<?xml version="1.0" encoding="utf-8"?>
<!-- Generator: Adobe Illustrator 19.0.0, SVG Export Plug-In . SVG Version: 6.00 Build 0)  -->
<svg version="1.1" id="Layer_1" xmlns="http://www.w3.org/2000/svg" xmlns:xlink="http://www.w3.org/1999/xlink" x="0px" y="0px"
	 viewBox="0 0 595.3 841.9" style="enable-background:new 0 0 595.3 841.9;" xml:space="preserve">
<style type="text/css">
	.st0{fill-rule:evenodd;clip-rule:evenodd;fill:#FFFFFF;}
	.st1{fill-rule:evenodd;clip-rule:evenodd;fill:#333333;}
</style>
<g>
	<path class="st0" d="M299.2,235.9c102,0,184,82,184,184s-82,184-184,184s-184-82-184-184C115.3,319.9,197.3,235.9,299.2,235.9
		L299.2,235.9z"/>
	<path class="st1" d="M157.3,279.9c78-78,204-78,282,0s78,204,0,282s-204,78-282,0C79.2,483.9,79.2,357.9,157.3,279.9L157.3,279.9z
		 M409.2,283.9C409.2,285.9,411.2,285.9,409.2,283.9c2,2,2,4,0,4l0,0c-2,10-8,22-16,36c6,0,14,0,22,2c6,6,28,30,38,68l-26,56
		c-14,0-38,0-56-2c-4-8-12-28-26-56c-26,30-58,60-88,84l56,28c2,8,6,24,8,44l-48,28c-36-10-62-26-74-38l-2-22c-12,6-24,10-34,10
		l-2-2c40-24,92-60,138-108C357.3,361.9,389.2,315.9,409.2,283.9L409.2,283.9z M193.2,543.9c-4,0-12-2-20-6c10,10,22,20,36,28
		c22,14,48,22,72,24l-16-10C229.2,571.9,205.3,553.9,193.2,543.9L193.2,543.9z M327.3,549.9l46,8c34-16,54-46,62-60l-8-44
		c-14,0-38,0-56-2l-52,50C321.2,515.9,325.3,531.9,327.3,549.9L327.3,549.9z M379.2,563.9c0,2-2,8-6,12c30-14,56-36,74-66
		c4-6,6-12,10-18l-14,8C437.3,509.9,415.3,545.9,379.2,563.9L379.2,563.9z M459.2,393.9l10,10c-4-40-22-76-50-104c2,8,4,22,4,28
		C431.2,333.9,451.2,357.9,459.2,393.9L459.2,393.9z M259.2,389.9l28,28c-28,26-56,50-84,70c-16,2-32-8-38-12c-8-6-4-16-4-16
		s-6,8-14,14c-8,8-12,4-18-4c-8-8-14-28-14-42c2-14,14-14,30-4c14,10,30,12,52,8s42,18,42,18c-22-38-46-26-54-26c-8-2-8-8-10-20
		s-16-22-16-22s6,10,8,22s-8,18-22,6s-26-32-20-52s24-22,36-18c10,6,18,20,18,20c-8-28-28-28-34-32c-6-4-6-18,12-26c8-4,18,0,24,6
		l0,0c2,0,2,2,4,2c4,4,10,8,16,16c10,10,22,24,10,36l0,0c-4,4-8,6-16,14c-14,12-2,26-2,26s-4-10,12-24
		C223.2,371.9,245.3,375.9,259.2,389.9L259.2,389.9z M159.2,517.9c0-2-2-4-2-8c-6-24,2-26,2-26s4,8,28,12c2,0,4,0,6,0
		C181.2,505.9,169.2,511.9,159.2,517.9L159.2,517.9z M241.2,303.9c0,0-14-8-20-18s-2-28,18-36c20-6,40,6,52,20s6,24-6,22
		c-12-2-22-8-22-8s10,12,22,16c12,2,18,2,20,10s-10,32,26,54c0,0-22-20-18-42s2-38-8-52s-10-28,4-30s36,6,44,14c8,8,10,10,4,18
		c-8,8-16,14-16,14s10-4,16,4c4,6,16,24,12,40c-20,26-44,54-70,80l-28-28c-12-12-20-36-8-52c12-16,24-12,24-12s-16-12-26,2
		c-6,8-10,14-14,16l0,0c-12,12-26,0-36-10s-30-28-24-44c6-18,22-18,26-12C213.2,275.9,213.2,295.9,241.2,303.9L241.2,303.9z
		 M375.3,315.9c0-2,0-6,0-8c-4-24-12-28-12-28s2-10,26-4c4,0,6,2,10,4C391.2,291.9,385.3,303.9,375.3,315.9L375.3,315.9z"/>
</g>
</svg>
