<?xml version="1.0" encoding="utf-8"?>
<!-- Generator: Adobe Illustrator 19.0.1, SVG Export Plug-In . SVG Version: 6.00 Build 0)  -->
<svg version="1.1" id="Layer_1" xmlns="http://www.w3.org/2000/svg" xmlns:xlink="http://www.w3.org/1999/xlink" x="0px" y="0px"
	 viewBox="0 0 595.3 841.9" style="enable-background:new 0 0 595.3 841.9;" xml:space="preserve">
<style type="text/css">
	.st0{fill-rule:evenodd;clip-rule:evenodd;fill:#FFFFFF;}
	.st1{fill-rule:evenodd;clip-rule:evenodd;fill:#333333;}
</style>
<g>
	<path class="st0" d="M298.3,411.7c5.1,0,9.2,4.1,9.2,9.2c0,5.1-4.1,9.2-9.2,9.2s-9.2-4.1-9.2-9.2
		C289.1,415.9,293.2,411.7,298.3,411.7L298.3,411.7z"/>
	<path class="st1" d="M291.2,413.9c3.9-3.9,10.2-3.9,14.1,0c3.9,3.9,3.9,10.2,0,14.1c-3.9,3.9-10.2,3.9-14.1,0
		C287.3,424.1,287.3,417.8,291.2,413.9L291.2,413.9z M303.8,414.1C303.8,414.2,303.9,414.2,303.8,414.1c0.1,0.1,0.1,0.2,0,0.2l0,0
		c-0.1,0.5-0.4,1.1-0.8,1.8c0.3,0,0.7,0,1.1,0.1c0.3,0.3,1.4,1.5,1.9,3.4l-1.3,2.8c-0.7,0-1.9,0-2.8-0.1c-0.2-0.4-0.6-1.4-1.3-2.8
		c-1.3,1.5-2.9,3-4.4,4.2l2.8,1.4c0.1,0.4,0.3,1.2,0.4,2.2l-2.4,1.4c-1.8-0.5-3.1-1.3-3.7-1.9l-0.1-1.1c-0.6,0.3-1.2,0.5-1.7,0.5
		c0,0-0.1-0.1-0.1-0.1c2-1.2,4.6-3,6.9-5.4C301.2,418,302.8,415.7,303.8,414.1L303.8,414.1z M293,427.1c-0.2,0-0.6-0.1-1-0.3
		c0.5,0.5,1.1,1,1.8,1.4c1.1,0.7,2.4,1.1,3.6,1.2l-0.8-0.5C294.8,428.5,293.6,427.6,293,427.1L293,427.1z M299.7,427.4l2.3,0.4
		c1.7-0.8,2.7-2.3,3.1-3l-0.4-2.2c-0.7,0-1.9,0-2.8-0.1l-2.6,2.5C299.4,425.7,299.6,426.5,299.7,427.4L299.7,427.4z M302.3,428.1
		c0,0.1-0.1,0.4-0.3,0.6c1.5-0.7,2.8-1.8,3.7-3.3c0.2-0.3,0.3-0.6,0.5-0.9l-0.7,0.4C305.2,425.4,304.1,427.2,302.3,428.1
		L302.3,428.1z M306.3,419.6l0.5,0.5c-0.2-2-1.1-3.8-2.5-5.2c0.1,0.4,0.2,1.1,0.2,1.4C304.9,416.6,305.9,417.8,306.3,419.6
		L306.3,419.6z M296.3,419.4l1.4,1.4c-1.4,1.3-2.8,2.5-4.2,3.5c-0.8,0.1-1.6-0.4-1.9-0.6c-0.4-0.3-0.2-0.8-0.2-0.8s-0.3,0.4-0.7,0.7
		c-0.4,0.4-0.6,0.2-0.9-0.2c-0.4-0.4-0.7-1.4-0.7-2.1c0.1-0.7,0.7-0.7,1.5-0.2c0.7,0.5,1.5,0.6,2.6,0.4c1.1-0.2,2.1,0.9,2.1,0.9
		c-1.1-1.9-2.3-1.3-2.7-1.3c-0.4-0.1-0.4-0.4-0.5-1c-0.1-0.6-0.8-1.1-0.8-1.1s0.3,0.5,0.4,1.1s-0.4,0.9-1.1,0.3
		c-0.7-0.6-1.3-1.6-1-2.6c0.3-1,1.2-1.1,1.8-0.9c0.5,0.3,0.9,1,0.9,1c-0.4-1.4-1.4-1.4-1.7-1.6c-0.3-0.2-0.3-0.9,0.6-1.3
		c0.4-0.2,0.9,0,1.2,0.3l0,0c0.1,0,0.1,0.1,0.2,0.1c0.2,0.2,0.5,0.4,0.8,0.8c0.5,0.5,1.1,1.2,0.5,1.8l0,0c-0.2,0.2-0.4,0.3-0.8,0.7
		c-0.7,0.6-0.1,1.3-0.1,1.3s-0.2-0.5,0.6-1.2C294.5,418.5,295.6,418.7,296.3,419.4L296.3,419.4z M291.3,425.8c0-0.1-0.1-0.2-0.1-0.4
		c-0.3-1.2,0.1-1.3,0.1-1.3s0.2,0.4,1.4,0.6c0.1,0,0.2,0,0.3,0C292.4,425.2,291.8,425.5,291.3,425.8L291.3,425.8z M295.4,415.1
		c0,0-0.7-0.4-1-0.9c-0.3-0.5-0.1-1.4,0.9-1.8c1-0.3,2,0.3,2.6,1c0.6,0.7,0.3,1.2-0.3,1.1c-0.6-0.1-1.1-0.4-1.1-0.4s0.5,0.6,1.1,0.8
		c0.6,0.1,0.9,0.1,1,0.5c0.1,0.4-0.5,1.6,1.3,2.7c0,0-1.1-1-0.9-2.1c0.2-1.1,0.1-1.9-0.4-2.6s-0.5-1.4,0.2-1.5
		c0.7-0.1,1.8,0.3,2.2,0.7c0.4,0.4,0.5,0.5,0.2,0.9c-0.4,0.4-0.8,0.7-0.8,0.7s0.5-0.2,0.8,0.2c0.2,0.3,0.8,1.2,0.6,2
		c-1,1.3-2.2,2.7-3.5,4l-1.4-1.4c-0.6-0.6-1-1.8-0.4-2.6c0.6-0.8,1.2-0.6,1.2-0.6s-0.8-0.6-1.3,0.1c-0.3,0.4-0.5,0.7-0.7,0.8
		c0,0,0,0,0,0c-0.6,0.6-1.3,0-1.8-0.5c-0.5-0.5-1.5-1.4-1.2-2.2c0.3-0.9,1.1-0.9,1.3-0.6C294,413.7,294,414.7,295.4,415.1
		L295.4,415.1z M302.1,415.7c0-0.1,0-0.3,0-0.4c-0.2-1.2-0.6-1.4-0.6-1.4s0.1-0.5,1.3-0.2c0.2,0,0.3,0.1,0.5,0.2
		C302.9,414.5,302.6,415.1,302.1,415.7L302.1,415.7z"/>
</g>
</svg>
