<?xml version="1.0" encoding="UTF-8"?>
<svg width="23px" height="17px" viewBox="0 0 23 17" version="1.1" xmlns="http://www.w3.org/2000/svg" xmlns:xlink="http://www.w3.org/1999/xlink">
    <!-- Generator: Sketch 41.2 (35397) - http://www.bohemiancoding.com/sketch -->
    <title>BL</title>
    <desc>Created with Sketch.</desc>
    <defs>
        <linearGradient x1="50%" y1="0%" x2="50%" y2="100%" id="linearGradient-1">
            <stop stop-color="#FFFFFF" offset="0%"></stop>
            <stop stop-color="#F0F0F0" offset="100%"></stop>
        </linearGradient>
        <rect id="path-2" x="0" y="0" width="21" height="15" rx="1.5"></rect>
        <filter x="-50%" y="-50%" width="200%" height="200%" filterUnits="objectBoundingBox" id="filter-4">
            <feOffset dx="0" dy="0.5" in="SourceAlpha" result="shadowOffsetOuter1"></feOffset>
            <feGaussianBlur stdDeviation="0.5" in="shadowOffsetOuter1" result="shadowBlurOuter1"></feGaussianBlur>
            <feColorMatrix values="0 0 0 0 0   0 0 0 0 0   0 0 0 0 0  0 0 0 0.16 0" type="matrix" in="shadowBlurOuter1"></feColorMatrix>
        </filter>
        <rect id="path-5" x="0" y="0" width="21" height="15"></rect>
        <filter x="-50%" y="-50%" width="200%" height="200%" filterUnits="objectBoundingBox" id="filter-6">
            <feMorphology radius="0.25" operator="dilate" in="SourceAlpha" result="shadowSpreadOuter1"></feMorphology>
            <feOffset dx="0" dy="0" in="shadowSpreadOuter1" result="shadowOffsetOuter1"></feOffset>
            <feColorMatrix values="0 0 0 0 0   0 0 0 0 0   0 0 0 0 0  0 0 0 0.06 0" type="matrix" in="shadowOffsetOuter1"></feColorMatrix>
        </filter>
        <linearGradient x1="50%" y1="0%" x2="50%" y2="100%" id="linearGradient-7">
            <stop stop-color="#216CD3" offset="0%"></stop>
            <stop stop-color="#1557B2" offset="100%"></stop>
        </linearGradient>
        <path d="M0.5,0 L7.49999992,0 L7.49999998,4.49121523 C7.49999999,5.04835167 7.16440529,5.78765261 6.74055213,6.15095532 L5.1460309,7.5176878 C4.51309551,8.06020385 3.48356295,8.05733967 2.8539691,7.5176878 L1.25944787,6.15095532 C0.840016394,5.79144262 0.5,5.04991192 0.5,4.49121523 L0.5,0 Z" id="path-8"></path>
        <linearGradient x1="50%" y1="0%" x2="50%" y2="100%" id="linearGradient-10">
            <stop stop-color="#F7E14B" offset="0%"></stop>
            <stop stop-color="#F7DF3E" offset="100%"></stop>
        </linearGradient>
        <path d="M2,2 C2.27614237,2 2.5,1.77614237 2.5,1.5 C2.5,1.22385763 2.27614237,1 2,1 C1.72385763,1 1.5,1.22385763 1.5,1.5 C1.5,1.77614237 1.72385763,2 2,2 Z M4,2 C4.27614237,2 4.5,1.77614237 4.5,1.5 C4.5,1.22385763 4.27614237,1 4,1 C3.72385763,1 3.5,1.22385763 3.5,1.5 C3.5,1.77614237 3.72385763,2 4,2 Z M6,2 C6.27614237,2 6.5,1.77614237 6.5,1.5 C6.5,1.22385763 6.27614237,1 6,1 C5.72385763,1 5.5,1.22385763 5.5,1.5 C5.5,1.77614237 5.72385763,2 6,2 Z" id="path-11"></path>
        <filter x="-50%" y="-50%" width="200%" height="200%" filterUnits="objectBoundingBox" id="filter-12">
            <feOffset dx="0" dy="0.5" in="SourceAlpha" result="shadowOffsetOuter1"></feOffset>
            <feColorMatrix values="0 0 0 0 0   0 0 0 0 0   0 0 0 0 0  0 0 0 0.24 0" type="matrix" in="shadowOffsetOuter1"></feColorMatrix>
        </filter>
        <path d="M2.5,6.5 C2.77614237,6.5 3,6.27614237 3,6 C3,5.72385763 2.77614237,5.5 2.5,5.5 C2.22385763,5.5 2,5.72385763 2,6 C2,6.27614237 2.22385763,6.5 2.5,6.5 Z M4,7 C4.27614237,7 4.5,6.77614237 4.5,6.5 C4.5,6.22385763 4.27614237,6 4,6 C3.72385763,6 3.5,6.22385763 3.5,6.5 C3.5,6.77614237 3.72385763,7 4,7 Z M5.5,6.5 C5.77614237,6.5 6,6.27614237 6,6 C6,5.72385763 5.77614237,5.5 5.5,5.5 C5.22385763,5.5 5,5.72385763 5,6 C5,6.27614237 5.22385763,6.5 5.5,6.5 Z" id="path-13"></path>
        <filter x="-50%" y="-50%" width="200%" height="200%" filterUnits="objectBoundingBox" id="filter-14">
            <feOffset dx="0" dy="0.5" in="SourceAlpha" result="shadowOffsetOuter1"></feOffset>
            <feColorMatrix values="0 0 0 0 0   0 0 0 0 0   0 0 0 0 0  0 0 0 0.24 0" type="matrix" in="shadowOffsetOuter1"></feColorMatrix>
        </filter>
        <linearGradient x1="50%" y1="0%" x2="50%" y2="100%" id="linearGradient-15">
            <stop stop-color="#E22439" offset="0%"></stop>
            <stop stop-color="#CA192C" offset="100%"></stop>
        </linearGradient>
        <rect id="path-16" x="0.5" y="3" width="7" height="2"></rect>
        <filter x="-50%" y="-50%" width="200%" height="200%" filterUnits="objectBoundingBox" id="filter-17">
            <feMorphology radius="0.25" operator="dilate" in="SourceAlpha" result="shadowSpreadOuter1"></feMorphology>
            <feOffset dx="0" dy="0" in="shadowSpreadOuter1" result="shadowOffsetOuter1"></feOffset>
            <feColorMatrix values="0 0 0 0 0   0 0 0 0 0   0 0 0 0 0  0 0 0 0.06 0" type="matrix" in="shadowOffsetOuter1"></feColorMatrix>
        </filter>
        <circle id="path-18" cx="4" cy="4" r="0.5"></circle>
        <filter x="-50%" y="-50%" width="200%" height="200%" filterUnits="objectBoundingBox" id="filter-19">
            <feOffset dx="0" dy="0.5" in="SourceAlpha" result="shadowOffsetOuter1"></feOffset>
            <feColorMatrix values="0 0 0 0 0   0 0 0 0 0   0 0 0 0 0  0 0 0 0.08 0" type="matrix" in="shadowOffsetOuter1"></feColorMatrix>
        </filter>
        <path d="M6.5,2.5 C6.5,2.5 8.5,2 10.5,2 C12.5,2 14.5,2.5 14.5,2.5 L14,4.5 C14,4.5 12.25,4 10.5,4 C8.75,4 7,4.5 7,4.5 L6.5,2.5 Z" id="path-20"></path>
        <filter x="-50%" y="-50%" width="200%" height="200%" filterUnits="objectBoundingBox" id="filter-21">
            <feOffset dx="0" dy="0.5" in="SourceAlpha" result="shadowOffsetOuter1"></feOffset>
            <feColorMatrix values="0 0 0 0 0   0 0 0 0 0   0 0 0 0 0  0 0 0 0.24 0" type="matrix" in="shadowOffsetOuter1"></feColorMatrix>
        </filter>
        <rect id="path-22" x="0" y="0" width="21" height="15" rx="1.5"></rect>
        <filter x="-50%" y="-50%" width="200%" height="200%" filterUnits="objectBoundingBox" id="filter-23">
            <feOffset dx="0" dy="-0.5" in="SourceAlpha" result="shadowOffsetInner1"></feOffset>
            <feComposite in="shadowOffsetInner1" in2="SourceAlpha" operator="arithmetic" k2="-1" k3="1" result="shadowInnerInner1"></feComposite>
            <feColorMatrix values="0 0 0 0 0   0 0 0 0 0   0 0 0 0 0  0 0 0 0.04 0" type="matrix" in="shadowInnerInner1" result="shadowMatrixInner1"></feColorMatrix>
            <feOffset dx="0" dy="0.5" in="SourceAlpha" result="shadowOffsetInner2"></feOffset>
            <feComposite in="shadowOffsetInner2" in2="SourceAlpha" operator="arithmetic" k2="-1" k3="1" result="shadowInnerInner2"></feComposite>
            <feColorMatrix values="0 0 0 0 1   0 0 0 0 1   0 0 0 0 1  0 0 0 0.12 0" type="matrix" in="shadowInnerInner2" result="shadowMatrixInner2"></feColorMatrix>
            <feMerge>
                <feMergeNode in="shadowMatrixInner1"></feMergeNode>
                <feMergeNode in="shadowMatrixInner2"></feMergeNode>
            </feMerge>
        </filter>
    </defs>
    <g id="Flag-Kit" stroke="none" stroke-width="1" fill="none" fill-rule="evenodd">
        <g id="BL">
            <g id="AE-Copy-6" transform="translate(1.000000, 1.000000)">
                <mask id="mask-3" fill="white">
                    <use xlink:href="#path-2"></use>
                </mask>
                <g id="Mask">
                    <use fill="black" fill-opacity="1" filter="url(#filter-4)" xlink:href="#path-2"></use>
                    <use fill="url(#linearGradient-1)" fill-rule="evenodd" xlink:href="#path-2"></use>
                </g>
                <g id="Rectangle-2" mask="url(#mask-3)">
                    <use fill="black" fill-opacity="1" filter="url(#filter-6)" xlink:href="#path-5"></use>
                    <use fill="url(#linearGradient-1)" fill-rule="evenodd" xlink:href="#path-5"></use>
                </g>
                <g id="Rectangle-1693" mask="url(#mask-3)">
                    <g transform="translate(6.500000, 4.000000)">
                        <mask id="mask-9" fill="white">
                            <use xlink:href="#path-8"></use>
                        </mask>
                        <use id="Mask" stroke="none" fill="url(#linearGradient-7)" fill-rule="evenodd" xlink:href="#path-8"></use>
                        <g id="Combined-Shape" stroke="none" fill="none" mask="url(#mask-9)">
                            <use fill="black" fill-opacity="1" filter="url(#filter-12)" xlink:href="#path-11"></use>
                            <use fill="url(#linearGradient-10)" fill-rule="evenodd" xlink:href="#path-11"></use>
                        </g>
                        <g id="Combined-Shape-Copy" stroke="none" fill="none" mask="url(#mask-9)">
                            <use fill="black" fill-opacity="1" filter="url(#filter-14)" xlink:href="#path-13"></use>
                            <use fill="url(#linearGradient-10)" fill-rule="evenodd" xlink:href="#path-13"></use>
                        </g>
                        <g id="Rectangle-1425-Copy" stroke="none" fill="none" mask="url(#mask-9)">
                            <use fill="black" fill-opacity="1" filter="url(#filter-17)" xlink:href="#path-16"></use>
                            <use fill="url(#linearGradient-15)" fill-rule="evenodd" xlink:href="#path-16"></use>
                        </g>
                        <g id="Oval-292" stroke="none" fill="none" mask="url(#mask-9)">
                            <use fill="black" fill-opacity="1" filter="url(#filter-19)" xlink:href="#path-18"></use>
                            <use fill="#FFFFFF" fill-rule="evenodd" xlink:href="#path-18"></use>
                        </g>
                    </g>
                </g>
                <g id="Rectangle-1426" mask="url(#mask-3)">
                    <use fill="black" fill-opacity="1" filter="url(#filter-21)" xlink:href="#path-20"></use>
                    <use fill="url(#linearGradient-10)" fill-rule="evenodd" xlink:href="#path-20"></use>
                </g>
                <path d="M10.5,3.5 C10.7761424,3.5 11,3.27614237 11,3 C11,2.72385763 10.7761424,2.5 10.5,2.5 C10.2238576,2.5 10,2.72385763 10,3 C10,3.27614237 10.2238576,3.5 10.5,3.5 Z M12.5,3.5 C12.7761424,3.5 13,3.27614237 13,3 C13,2.72385763 12.7761424,2.5 12.5,2.5 C12.2238576,2.5 12,2.72385763 12,3 C12,3.27614237 12.2238576,3.5 12.5,3.5 Z M8.5,3.5 C8.77614237,3.5 9,3.27614237 9,3 C9,2.72385763 8.77614237,2.5 8.5,2.5 C8.22385763,2.5 8,2.72385763 8,3 C8,3.27614237 8.22385763,3.5 8.5,3.5 Z" id="Combined-Shape" fill="#5E5216" mask="url(#mask-3)"></path>
                <g id="Depth" mask="url(#mask-3)" fill-opacity="1" fill="black">
                    <use filter="url(#filter-23)" xlink:href="#path-22"></use>
                </g>
            </g>
        </g>
    </g>
</svg>