<?xml version="1.0" encoding="UTF-8"?>
<svg width="23px" height="17px" viewBox="0 0 23 17" version="1.1" xmlns="http://www.w3.org/2000/svg" xmlns:xlink="http://www.w3.org/1999/xlink">
    <!-- Generator: Sketch 41.2 (35397) - http://www.bohemiancoding.com/sketch -->
    <title>GP</title>
    <desc>Created with Sketch.</desc>
    <defs>
        <linearGradient x1="50%" y1="0%" x2="50%" y2="100%" id="linearGradient-1">
            <stop stop-color="#FFFFFF" offset="0%"></stop>
            <stop stop-color="#F0F0F0" offset="100%"></stop>
        </linearGradient>
        <rect id="path-2" x="0" y="0" width="21" height="15" rx="1.5"></rect>
        <filter x="-50%" y="-50%" width="200%" height="200%" filterUnits="objectBoundingBox" id="filter-4">
            <feOffset dx="0" dy="0.5" in="SourceAlpha" result="shadowOffsetOuter1"></feOffset>
            <feGaussianBlur stdDeviation="0.5" in="shadowOffsetOuter1" result="shadowBlurOuter1"></feGaussianBlur>
            <feColorMatrix values="0 0 0 0 0   0 0 0 0 0   0 0 0 0 0  0 0 0 0.16 0" type="matrix" in="shadowBlurOuter1"></feColorMatrix>
        </filter>
        <linearGradient x1="50%" y1="0%" x2="50%" y2="100%" id="linearGradient-5">
            <stop stop-color="#25A157" offset="0%"></stop>
            <stop stop-color="#1C8245" offset="100%"></stop>
        </linearGradient>
        <linearGradient x1="50%" y1="0%" x2="50%" y2="100%" id="linearGradient-6">
            <stop stop-color="#30B9F4" offset="0%"></stop>
            <stop stop-color="#1EA2DC" offset="100%"></stop>
        </linearGradient>
        <linearGradient x1="50%" y1="0%" x2="50%" y2="100%" id="linearGradient-7">
            <stop stop-color="#FFE149" offset="0%"></stop>
            <stop stop-color="#FFDD32" offset="100%"></stop>
        </linearGradient>
        <rect id="path-8" x="0" y="0" width="21" height="15" rx="1.5"></rect>
        <filter x="-50%" y="-50%" width="200%" height="200%" filterUnits="objectBoundingBox" id="filter-10">
            <feOffset dx="0" dy="-0.5" in="SourceAlpha" result="shadowOffsetInner1"></feOffset>
            <feComposite in="shadowOffsetInner1" in2="SourceAlpha" operator="arithmetic" k2="-1" k3="1" result="shadowInnerInner1"></feComposite>
            <feColorMatrix values="0 0 0 0 0   0 0 0 0 0   0 0 0 0 0  0 0 0 0.04 0" type="matrix" in="shadowInnerInner1" result="shadowMatrixInner1"></feColorMatrix>
            <feOffset dx="0" dy="0.5" in="SourceAlpha" result="shadowOffsetInner2"></feOffset>
            <feComposite in="shadowOffsetInner2" in2="SourceAlpha" operator="arithmetic" k2="-1" k3="1" result="shadowInnerInner2"></feComposite>
            <feColorMatrix values="0 0 0 0 1   0 0 0 0 1   0 0 0 0 1  0 0 0 0.12 0" type="matrix" in="shadowInnerInner2" result="shadowMatrixInner2"></feColorMatrix>
            <feMerge>
                <feMergeNode in="shadowMatrixInner1"></feMergeNode>
                <feMergeNode in="shadowMatrixInner2"></feMergeNode>
            </feMerge>
        </filter>
        <path d="M12.6455298,3.64736583 C12.500163,3.79348951 12.3500892,3.98784334 12.1912262,4.2277593 C12.0640837,4.41977074 11.9324401,4.63950027 11.7974064,4.88212025 C11.6313922,5.18040394 11.3107554,5.97292475 11.1425138,5.99779703 C10.8619942,6.03926812 10.5810338,6.09126022 10.3158581,6.15513401 C9.84332098,6.26895564 9.4701645,6.40667298 9.20918862,6.59327068 C9.04183093,6.71293139 8.8704705,6.88116178 8.68903404,7.09437063 C8.5509241,7.2566658 7.51446786,9.30085403 7.75527162,9.43601379 C7.99607539,9.57117354 8.30085403,9.48553214 8.43601379,9.24472838 C8.47050224,9.18328294 8.53507594,9.0722648 8.62260012,8.92850018 C8.76861198,8.68866545 8.92361333,8.44902757 9.07991081,8.22696181 C9.20960751,8.04269015 9.33426625,7.87916366 9.45060495,7.74245222 C9.58359875,7.5861691 9.70087946,7.47103063 9.79081138,7.40672932 C9.92072955,7.31383786 10.1931976,7.21328067 10.5500338,7.12732828 C10.7829345,7.0712287 12.515503,5.64816362 12.671189,5.36843685 C12.7945875,5.14672236 12.9134315,4.94835697 13.0250063,4.77985596 C13.1505269,4.59029386 13.2631876,4.44439203 13.3544702,4.35263417 C13.4911009,4.21529214 13.7615566,4.04961626 14.1165718,3.8829428 C14.3417695,3.77721643 14.5856336,3.67771067 14.829822,3.58807533 C14.9762183,3.534337 15.0889777,3.49624517 15.1506008,3.47678023 C15.4139193,3.39360569 15.5599548,3.11271762 15.4767802,2.84939917 C15.3936057,2.58608072 12.883743,3.40791226 12.6455298,3.64736583 Z" id="path-11"></path>
        <mask id="mask-12" maskContentUnits="userSpaceOnUse" maskUnits="objectBoundingBox" x="-0.5" y="-0.5" width="8.78099718" height="7.70210652">
            <rect x="7.21913685" y="2.29798258" width="8.78099718" height="7.70210652" fill="white"></rect>
            <use xlink:href="#path-11" fill="black"></use>
        </mask>
    </defs>
    <g id="Flag-Kit" stroke="none" stroke-width="1" fill="none" fill-rule="evenodd">
        <g id="GP">
            <g id="Rectangle-1-Copy-3" transform="translate(1.000000, 1.000000)">
                <mask id="mask-3" fill="white">
                    <use xlink:href="#path-2"></use>
                </mask>
                <g id="Mask">
                    <use fill="black" fill-opacity="1" filter="url(#filter-4)" xlink:href="#path-2"></use>
                    <use fill="url(#linearGradient-1)" fill-rule="evenodd" xlink:href="#path-2"></use>
                </g>
                <g id="Group" mask="url(#mask-3)">
                    <g transform="translate(6.000000, 3.000000)">
                        <rect id="Rectangle-1381" fill="url(#linearGradient-5)" x="2" y="0" width="5" height="5" rx="0.25"></rect>
                        <path d="M2,0.241160393 C2,0.107971186 2.11539841,0 2.25021791,0 L5.74978209,0 C5.88797362,0 5.94445552,0.0935245553 5.87531119,0.209948243 L4.53753662,2.46246338 L2.18249338,2.81750662 L2.02093431,4.74964026 C2.00937261,4.88791013 2,4.89556789 2,4.75883961 L2,0.241160393 Z" id="Rectangle-1381-Copy-2" fill="url(#linearGradient-6)"></path>
                        <circle id="Oval-274" fill="url(#linearGradient-7)" cx="2" cy="2" r="1.5"></circle>
                    </g>
                </g>
                <rect id="Rectangle-1381-Copy" fill="url(#linearGradient-7)" mask="url(#mask-3)" x="8" y="11" width="5" height="1" rx="0.25"></rect>
                <path d="M8.14057143,8.95028571 L8.16,8.95028571 C8.2,8.95028571 8.23085714,8.988 8.23085714,9.03828571 L8.23085714,9.284 C8.23085714,9.32285714 8.25142857,9.35714286 8.304,9.35714286 L8.36342857,9.35714286 C8.36914286,9.35714286 8.37485714,9.35714286 8.37485714,9.35371429 C8.37485714,9.35028571 8.37028571,9.34571429 8.36571429,9.34114286 L8.32914286,9.30228571 C8.32342857,9.29657143 8.31885714,9.28971429 8.31885714,9.28171429 L8.31885714,9.04285714 C8.31885714,8.98 8.28457143,8.93542857 8.24571429,8.91485714 C8.28571429,8.88971429 8.33028571,8.83828571 8.33028571,8.71142857 C8.33028571,8.56285714 8.26857143,8.5 8.14971429,8.5 L8.00685714,8.5 C8.00228571,8.5 8,8.50342857 8,8.50685714 C8,8.51028571 8.00571429,8.51371429 8.008,8.51714286 L8.04228571,8.55028571 C8.05028571,8.55828571 8.05257143,8.56857143 8.05257143,8.58228571 L8.05257143,9.27485714 C8.05257143,9.28857143 8.05028571,9.29885714 8.04228571,9.30685714 L8.008,9.34 C8.00571429,9.34342857 8,9.34685714 8,9.35028571 C8,9.35371429 8.00228571,9.35714286 8.00685714,9.35714286 L8.18628571,9.35714286 C8.19085714,9.35714286 8.19314286,9.35371429 8.19314286,9.35028571 C8.19314286,9.34685714 8.18742857,9.34342857 8.18514286,9.34 L8.15085714,9.30685714 C8.14285714,9.29885714 8.14057143,9.28857143 8.14057143,9.27485714 L8.14057143,8.95028571 Z M8.14057143,8.55714286 L8.15771429,8.55714286 C8.21371429,8.55714286 8.23657143,8.59485714 8.23657143,8.71142857 C8.23657143,8.84857143 8.21371429,8.89314286 8.15771429,8.89314286 L8.14057143,8.89314286 L8.14057143,8.55714286 Z M8.52914286,8.55714286 L8.59428571,8.55714286 C8.60914286,8.55714286 8.61942857,8.564 8.624,8.57885714 L8.68571429,8.79371429 C8.68685714,8.79828571 8.69028571,8.80171429 8.69485714,8.80171429 C8.69828571,8.80171429 8.70057143,8.79942857 8.70057143,8.79485714 L8.70057143,8.51028571 C8.70057143,8.50457143 8.696,8.5 8.69142857,8.5 L8.39542857,8.5 C8.39085714,8.5 8.38857143,8.50342857 8.38857143,8.50685714 C8.38857143,8.51028571 8.39428571,8.51371429 8.39657143,8.51714286 L8.43085714,8.55028571 C8.43885714,8.55828571 8.44114286,8.56857143 8.44114286,8.58228571 L8.44114286,9.27485714 C8.44114286,9.28857143 8.43885714,9.29885714 8.43085714,9.30685714 L8.39657143,9.34 C8.39428571,9.34457143 8.38857143,9.34685714 8.38857143,9.35028571 C8.38857143,9.35371429 8.39085714,9.35714286 8.39542857,9.35714286 L8.69142857,9.35714286 C8.69714286,9.35714286 8.70057143,9.35257143 8.70057143,9.34685714 L8.70057143,9.06 C8.70057143,9.05657143 8.69828571,9.05314286 8.69485714,9.05314286 C8.69142857,9.05314286 8.688,9.05542857 8.68685714,9.06 L8.62514286,9.27942857 C8.62057143,9.29314286 8.60914286,9.3 8.59428571,9.3 L8.52914286,9.3 L8.52914286,8.95257143 L8.55428571,8.95257143 C8.56,8.95257143 8.56457143,8.95485714 8.56685714,8.96057143 L8.60571429,9.044 C8.608,9.04857143 8.60914286,9.052 8.61371429,9.052 C8.61714286,9.052 8.61828571,9.04971429 8.61828571,9.04628571 L8.61828571,8.804 C8.61828571,8.79942857 8.61714286,8.79714286 8.61371429,8.79714286 C8.61028571,8.79714286 8.60914286,8.79942857 8.60685714,8.804 L8.56685714,8.884 C8.56457143,8.88971429 8.56,8.892 8.55428571,8.892 L8.52914286,8.892 L8.52914286,8.55714286 Z M8.96914286,9.148 C8.96914286,9.25657143 8.944,9.3 8.90857143,9.3 C8.86742857,9.3 8.85371429,9.236 8.85371429,8.90685714 C8.85371429,8.66571429 8.86742857,8.55714286 8.91542857,8.55714286 C8.96571429,8.55714286 9.01485714,8.70457143 9.03885714,8.79028571 C9.04114286,8.79714286 9.04457143,8.80171429 9.04914286,8.80171429 C9.05257143,8.80171429 9.05485714,8.79828571 9.05485714,8.79371429 L9.05485714,8.51942857 C9.05485714,8.508 9.05257143,8.5 9.04685714,8.5 C9.04114286,8.5 9.03428571,8.50571429 9.024,8.51485714 C9.01257143,8.52514286 9.00114286,8.53314286 8.99542857,8.53314286 C8.99085714,8.53314286 8.98285714,8.52971429 8.97828571,8.52628571 C8.96685714,8.51714286 8.944,8.5 8.90628571,8.5 C8.76571429,8.5 8.76,8.76514286 8.76,8.90571429 C8.76,9.09657143 8.76571429,9.35714286 8.90857143,9.35714286 C8.93371429,9.35714286 8.95657143,9.34342857 8.98057143,9.32171429 C8.98514286,9.31828571 8.98857143,9.31714286 8.992,9.31714286 C8.99657143,9.31714286 8.99885714,9.31828571 9.00342857,9.32171429 L9.03771429,9.35257143 C9.04,9.35485714 9.04457143,9.35714286 9.04914286,9.35714286 C9.05257143,9.35714286 9.05485714,9.35485714 9.05485714,9.35142857 L9.05485714,8.99257143 C9.05485714,8.98114286 9.05828571,8.97314286 9.06628571,8.96742857 L9.09942857,8.94 C9.10285714,8.93542857 9.10514286,8.93314286 9.10514286,8.92857143 C9.10514286,8.924 9.10171429,8.92171429 9.09714286,8.92171429 L8.928,8.92171429 C8.92228571,8.92171429 8.91885714,8.924 8.91885714,8.92857143 C8.91885714,8.93314286 8.92,8.93542857 8.92457143,8.94 L8.95657143,8.96742857 C8.96457143,8.97428571 8.96914286,8.98114286 8.96914286,8.99257143 L8.96914286,9.148 Z M9.17142857,9.27485714 C9.17142857,9.28857143 9.16914286,9.29885714 9.16114286,9.30685714 L9.12685714,9.34 C9.12457143,9.34342857 9.11885714,9.34685714 9.11885714,9.35028571 C9.11885714,9.35371429 9.12114286,9.35714286 9.12571429,9.35714286 L9.30514286,9.35714286 C9.30971429,9.35714286 9.312,9.35371429 9.312,9.35028571 C9.312,9.34685714 9.30628571,9.34342857 9.304,9.34 L9.26971429,9.30685714 C9.26171429,9.29885714 9.25942857,9.28857143 9.25942857,9.27485714 L9.25942857,8.58228571 C9.25942857,8.56857143 9.26171429,8.55828571 9.26971429,8.55028571 L9.304,8.51714286 C9.30628571,8.51371429 9.312,8.51028571 9.312,8.50685714 C9.312,8.50342857 9.30971429,8.5 9.30514286,8.5 L9.12571429,8.5 C9.12114286,8.5 9.11885714,8.50342857 9.11885714,8.50685714 C9.11885714,8.51028571 9.12457143,8.51371429 9.12685714,8.51714286 L9.16114286,8.55028571 C9.16914286,8.55828571 9.17142857,8.56857143 9.17142857,8.58228571 L9.17142857,9.27485714 Z M9.50971429,8.5 C9.37257143,8.5 9.35771429,8.74114286 9.35771429,8.90571429 C9.35771429,9.12171429 9.37257143,9.35714286 9.50971429,9.35714286 C9.648,9.35714286 9.66285714,9.12171429 9.66285714,8.90571429 C9.66285714,8.74114286 9.648,8.5 9.50971429,8.5 L9.50971429,8.5 Z M9.50971429,8.55714286 C9.544,8.55714286 9.56914286,8.65314286 9.56914286,8.90685714 C9.56914286,9.204 9.544,9.3 9.50971429,9.3 C9.47657143,9.3 9.45142857,9.204 9.45142857,8.90685714 C9.45142857,8.65314286 9.47657143,8.55714286 9.50971429,8.55714286 L9.50971429,8.55714286 Z M9.75542857,9.27485714 C9.75542857,9.28857143 9.752,9.29771429 9.74514286,9.30685714 L9.71657143,9.34 C9.71428571,9.34342857 9.70857143,9.34685714 9.70857143,9.35142857 C9.70857143,9.35371429 9.71085714,9.35714286 9.71542857,9.35714286 L9.86628571,9.35714286 C9.87085714,9.35714286 9.87314286,9.35371429 9.87314286,9.35142857 C9.87314286,9.34685714 9.86857143,9.34342857 9.86514286,9.34 L9.83428571,9.30571429 C9.82628571,9.29771429 9.82285714,9.28857143 9.82285714,9.27485714 L9.82285714,8.70571429 L9.82514286,8.70571429 L9.95885714,9.32857143 C9.96228571,9.34571429 9.97142857,9.35714286 9.98171429,9.35714286 L10.0297143,9.35714286 C10.0377143,9.35714286 10.0411429,9.35257143 10.0411429,9.34457143 L10.0411429,8.58228571 C10.0411429,8.56857143 10.0445714,8.55942857 10.0514286,8.55028571 L10.08,8.51714286 C10.0834286,8.51371429 10.088,8.51028571 10.088,8.50571429 C10.088,8.50342857 10.0857143,8.5 10.0811429,8.5 L9.93028571,8.5 C9.92571429,8.5 9.92342857,8.50342857 9.92342857,8.50571429 C9.92342857,8.51028571 9.92914286,8.51371429 9.93142857,8.51714286 L9.96342857,8.55142857 C9.97142857,8.55942857 9.97371429,8.56857143 9.97371429,8.58228571 L9.97371429,9.01085714 L9.97142857,9.01085714 L9.86628571,8.51942857 C9.864,8.508 9.86057143,8.5 9.85257143,8.5 L9.71542857,8.5 C9.71085714,8.5 9.70857143,8.50342857 9.70857143,8.50571429 C9.70857143,8.51028571 9.71428571,8.51371429 9.71657143,8.51714286 L9.74514286,8.55028571 C9.752,8.55942857 9.75542857,8.56857143 9.75542857,8.58228571 L9.75542857,9.27485714 Z M8.22742857,10.2908571 C8.22742857,10.3994286 8.20228571,10.4428571 8.16685714,10.4428571 C8.12571429,10.4428571 8.112,10.3788571 8.112,10.0497143 C8.112,9.80857143 8.12571429,9.7 8.17371429,9.7 C8.224,9.7 8.27314286,9.84742857 8.29714286,9.93314286 C8.29942857,9.94 8.30285714,9.94457143 8.30742857,9.94457143 C8.31085714,9.94457143 8.31314286,9.94114286 8.31314286,9.93657143 L8.31314286,9.66228571 C8.31314286,9.65085714 8.31085714,9.64285714 8.30514286,9.64285714 C8.29942857,9.64285714 8.29257143,9.64857143 8.28228571,9.65771429 C8.27085714,9.668 8.25942857,9.676 8.25371429,9.676 C8.24914286,9.676 8.24114286,9.67257143 8.23657143,9.66914286 C8.22514286,9.66 8.20228571,9.64285714 8.16457143,9.64285714 C8.024,9.64285714 8.01828571,9.908 8.01828571,10.0485714 C8.01828571,10.2394286 8.024,10.5 8.16685714,10.5 C8.192,10.5 8.21485714,10.4862857 8.23885714,10.4645714 C8.24342857,10.4611429 8.24685714,10.46 8.25028571,10.46 C8.25485714,10.46 8.25714286,10.4611429 8.26171429,10.4645714 L8.296,10.4954286 C8.29828571,10.4977143 8.30285714,10.5 8.30742857,10.5 C8.31085714,10.5 8.31314286,10.4977143 8.31314286,10.4942857 L8.31314286,10.1354286 C8.31314286,10.124 8.31657143,10.116 8.32457143,10.1102857 L8.35771429,10.0828571 C8.36114286,10.0782857 8.36342857,10.076 8.36342857,10.0714286 C8.36342857,10.0668571 8.36,10.0645714 8.35542857,10.0645714 L8.18628571,10.0645714 C8.18057143,10.0645714 8.17714286,10.0668571 8.17714286,10.0714286 C8.17714286,10.076 8.17828571,10.0782857 8.18285714,10.0828571 L8.21485714,10.1102857 C8.22285714,10.1171429 8.22742857,10.124 8.22742857,10.1354286 L8.22742857,10.2908571 Z M8.41828571,10.3765714 C8.41828571,10.4474286 8.46514286,10.5 8.55542857,10.5 C8.63314286,10.5 8.688,10.4474286 8.688,10.3765714 L8.688,9.72514286 C8.688,9.71142857 8.69142857,9.7 8.69714286,9.69314286 L8.73257143,9.66 C8.736,9.65657143 8.73828571,9.65314286 8.73828571,9.64971429 C8.73828571,9.64628571 8.736,9.64285714 8.73142857,9.64285714 L8.57485714,9.64285714 C8.57028571,9.64285714 8.568,9.64628571 8.568,9.64971429 C8.568,9.65314286 8.57028571,9.65657143 8.57371429,9.66 L8.60914286,9.69314286 C8.616,9.7 8.61828571,9.71142857 8.61828571,9.72514286 L8.61828571,10.3468571 C8.61828571,10.3971429 8.60685714,10.4428571 8.56457143,10.4428571 C8.51085714,10.4428571 8.50628571,10.3971429 8.50628571,10.3468571 L8.50628571,9.72514286 C8.50628571,9.71142857 8.50971429,9.7 8.51542857,9.69314286 L8.55085714,9.66 C8.55428571,9.65657143 8.55657143,9.65314286 8.55657143,9.64971429 C8.55657143,9.64628571 8.55428571,9.64285714 8.54971429,9.64285714 L8.37485714,9.64285714 C8.37028571,9.64285714 8.368,9.64628571 8.368,9.64971429 C8.368,9.65314286 8.37028571,9.65657143 8.37371429,9.66 L8.40914286,9.69314286 C8.416,9.7 8.41828571,9.71142857 8.41828571,9.72514286 L8.41828571,10.3765714 Z M8.98514286,10.4291429 C8.98628571,10.4394286 8.984,10.4474286 8.97942857,10.452 L8.94857143,10.4828571 C8.94514286,10.4862857 8.94057143,10.4897143 8.94057143,10.4931429 C8.94057143,10.4965714 8.94285714,10.5 8.94857143,10.5 L9.11314286,10.5 C9.11885714,10.5 9.12114286,10.4965714 9.12114286,10.4931429 C9.12114286,10.4897143 9.11771429,10.4862857 9.11428571,10.4828571 L9.08114286,10.4531429 C9.07314286,10.4462857 9.06971429,10.4337143 9.06857143,10.4222857 L8.96,9.65542857 C8.95885714,9.64857143 8.95542857,9.64285714 8.94971429,9.64285714 L8.90742857,9.64285714 C8.90171429,9.64285714 8.89942857,9.64742857 8.89828571,9.65314286 L8.79428571,10.4211429 C8.79314286,10.4314286 8.792,10.4428571 8.78514286,10.4497143 L8.75314286,10.4817143 C8.74971429,10.4851429 8.74514286,10.4897143 8.74514286,10.4931429 C8.74514286,10.4965714 8.74742857,10.5 8.752,10.5 L8.88342857,10.5 C8.88914286,10.5 8.89142857,10.4965714 8.89142857,10.4931429 C8.89142857,10.4897143 8.88457143,10.4851429 8.88,10.4794286 L8.85485714,10.4531429 C8.85028571,10.4474286 8.848,10.4405714 8.84914286,10.4325714 L8.86628571,10.3068571 C8.86742857,10.3022857 8.86971429,10.2988571 8.87314286,10.2988571 L8.95771429,10.2988571 C8.96342857,10.2988571 8.96685714,10.3034286 8.968,10.3091429 L8.98514286,10.4291429 Z M8.88,10.2382857 C8.87771429,10.2382857 8.87542857,10.236 8.87657143,10.2314286 L8.91428571,9.95028571 L8.91657143,9.95028571 L8.95657143,10.2302857 C8.95771429,10.2348571 8.95542857,10.2382857 8.952,10.2382857 L8.88,10.2382857 Z M9.18971429,10.4177143 C9.18971429,10.4314286 9.18742857,10.4417143 9.17942857,10.4497143 L9.14514286,10.4828571 C9.14285714,10.4874286 9.13714286,10.4897143 9.13714286,10.4931429 C9.13714286,10.4965714 9.13942857,10.5 9.144,10.5 L9.29485714,10.5 C9.41028571,10.5 9.47885714,10.4222857 9.47885714,10.0497143 C9.47885714,9.75371429 9.41028571,9.64285714 9.29485714,9.64285714 L9.144,9.64285714 C9.13942857,9.64285714 9.13714286,9.64628571 9.13714286,9.64971429 C9.13714286,9.65314286 9.14285714,9.65657143 9.14514286,9.66 L9.17942857,9.69314286 C9.18742857,9.70114286 9.18971429,9.71142857 9.18971429,9.72514286 L9.18971429,10.4177143 Z M9.27771429,9.7 L9.29828571,9.7 C9.34285714,9.7 9.38514286,9.74342857 9.38514286,10.0497143 C9.38514286,10.3994286 9.34285714,10.4428571 9.29828571,10.4428571 L9.27771429,10.4428571 L9.27771429,9.7 Z M9.66514286,9.7 L9.73028571,9.7 C9.74514286,9.7 9.75542857,9.70685714 9.76,9.72171429 L9.82171429,9.93657143 C9.82285714,9.94114286 9.82628571,9.94457143 9.83085714,9.94457143 C9.83428571,9.94457143 9.83657143,9.94228571 9.83657143,9.93771429 L9.83657143,9.65314286 C9.83657143,9.64742857 9.832,9.64285714 9.82742857,9.64285714 L9.53142857,9.64285714 C9.52685714,9.64285714 9.52457143,9.64628571 9.52457143,9.64971429 C9.52457143,9.65314286 9.53028571,9.65657143 9.53257143,9.66 L9.56685714,9.69314286 C9.57485714,9.70114286 9.57714286,9.71142857 9.57714286,9.72514286 L9.57714286,10.4177143 C9.57714286,10.4314286 9.57485714,10.4417143 9.56685714,10.4497143 L9.53257143,10.4828571 C9.53028571,10.4874286 9.52457143,10.4897143 9.52457143,10.4931429 C9.52457143,10.4965714 9.52685714,10.5 9.53142857,10.5 L9.82742857,10.5 C9.83314286,10.5 9.83657143,10.4954286 9.83657143,10.4897143 L9.83657143,10.2028571 C9.83657143,10.1994286 9.83428571,10.196 9.83085714,10.196 C9.82742857,10.196 9.824,10.1982857 9.82285714,10.2028571 L9.76114286,10.4222857 C9.75657143,10.436 9.74514286,10.4428571 9.73028571,10.4428571 L9.66514286,10.4428571 L9.66514286,10.0954286 L9.69028571,10.0954286 C9.696,10.0954286 9.70057143,10.0977143 9.70285714,10.1034286 L9.74171429,10.1868571 C9.744,10.1914286 9.74514286,10.1948571 9.74971429,10.1948571 C9.75314286,10.1948571 9.75428571,10.1925714 9.75428571,10.1891429 L9.75428571,9.94685714 C9.75428571,9.94228571 9.75314286,9.94 9.74971429,9.94 C9.74628571,9.94 9.74514286,9.94228571 9.74285714,9.94685714 L9.70285714,10.0268571 C9.70057143,10.0325714 9.696,10.0348571 9.69028571,10.0348571 L9.66514286,10.0348571 L9.66514286,9.7 Z M9.93028571,10.4177143 C9.93028571,10.4314286 9.928,10.4417143 9.92,10.4497143 L9.88571429,10.4828571 C9.88342857,10.4874286 9.87771429,10.4897143 9.87771429,10.4931429 C9.87771429,10.4965714 9.88,10.5 9.88457143,10.5 L10.1645714,10.5 C10.1737143,10.5 10.1771429,10.4942857 10.1771429,10.484 L10.1771429,10.204 C10.1771429,10.1994286 10.1748571,10.196 10.1714286,10.196 C10.1668571,10.196 10.1668571,10.1994286 10.1645714,10.204 L10.0937143,10.4257143 C10.0891429,10.4394286 10.0777143,10.4428571 10.064,10.4428571 L10.0182857,10.4428571 L10.0182857,9.72514286 C10.0182857,9.71142857 10.0205714,9.70114286 10.0285714,9.69314286 L10.0628571,9.66 C10.0651429,9.65657143 10.0708571,9.65314286 10.0708571,9.64971429 C10.0708571,9.64628571 10.0685714,9.64285714 10.064,9.64285714 L9.88457143,9.64285714 C9.88,9.64285714 9.87771429,9.64628571 9.87771429,9.64971429 C9.87771429,9.65314286 9.88342857,9.65657143 9.88571429,9.66 L9.92,9.69314286 C9.928,9.70114286 9.93028571,9.71142857 9.93028571,9.72514286 L9.93028571,10.4177143 Z M10.3885714,9.64285714 C10.2514286,9.64285714 10.2365714,9.884 10.2365714,10.0485714 C10.2365714,10.2645714 10.2514286,10.5 10.3885714,10.5 C10.5268571,10.5 10.5417143,10.2645714 10.5417143,10.0485714 C10.5417143,9.884 10.5268571,9.64285714 10.3885714,9.64285714 L10.3885714,9.64285714 Z M10.3885714,9.7 C10.4228571,9.7 10.448,9.796 10.448,10.0497143 C10.448,10.3468571 10.4228571,10.4428571 10.3885714,10.4428571 C10.3554286,10.4428571 10.3302857,10.3468571 10.3302857,10.0497143 C10.3302857,9.796 10.3554286,9.7 10.3885714,9.7 L10.3885714,9.7 Z M10.6285714,10.3765714 C10.6285714,10.4474286 10.6754286,10.5 10.7657143,10.5 C10.8434286,10.5 10.8982857,10.4474286 10.8982857,10.3765714 L10.8982857,9.72514286 C10.8982857,9.71142857 10.9017143,9.7 10.9074286,9.69314286 L10.9428571,9.66 C10.9462857,9.65657143 10.9485714,9.65314286 10.9485714,9.64971429 C10.9485714,9.64628571 10.9462857,9.64285714 10.9417143,9.64285714 L10.7851429,9.64285714 C10.7805714,9.64285714 10.7782857,9.64628571 10.7782857,9.64971429 C10.7782857,9.65314286 10.7805714,9.65657143 10.784,9.66 L10.8194286,9.69314286 C10.8262857,9.7 10.8285714,9.71142857 10.8285714,9.72514286 L10.8285714,10.3468571 C10.8285714,10.3971429 10.8171429,10.4428571 10.7748571,10.4428571 C10.7211429,10.4428571 10.7165714,10.3971429 10.7165714,10.3468571 L10.7165714,9.72514286 C10.7165714,9.71142857 10.72,9.7 10.7257143,9.69314286 L10.7611429,9.66 C10.7645714,9.65657143 10.7668571,9.65314286 10.7668571,9.64971429 C10.7668571,9.64628571 10.7645714,9.64285714 10.76,9.64285714 L10.5851429,9.64285714 C10.5805714,9.64285714 10.5782857,9.64628571 10.5782857,9.64971429 C10.5782857,9.65314286 10.5805714,9.65657143 10.584,9.66 L10.6194286,9.69314286 C10.6262857,9.7 10.6285714,9.71142857 10.6285714,9.72514286 L10.6285714,10.3765714 Z M11.0194286,10.4177143 C11.0194286,10.4314286 11.0171429,10.4417143 11.0091429,10.4497143 L10.9748571,10.4828571 C10.9725714,10.4874286 10.9668571,10.4897143 10.9668571,10.4931429 C10.9668571,10.4965714 10.9691429,10.5 10.9737143,10.5 L11.1611429,10.5 C11.1657143,10.5 11.168,10.4965714 11.168,10.4931429 C11.168,10.4897143 11.1634286,10.4862857 11.16,10.4828571 L11.1177143,10.4497143 C11.1085714,10.4428571 11.1074286,10.4314286 11.1074286,10.4177143 L11.1074286,10.1011429 L11.1462857,10.1011429 C11.2491429,10.1011429 11.2971429,10.012 11.2971429,9.86457143 C11.2971429,9.68971429 11.2354286,9.64285714 11.1462857,9.64285714 L10.9737143,9.64285714 C10.9691429,9.64285714 10.9668571,9.64628571 10.9668571,9.64971429 C10.9668571,9.65314286 10.9725714,9.65657143 10.9748571,9.66 L11.0091429,9.69314286 C11.0171429,9.70114286 11.0194286,9.71142857 11.0194286,9.72514286 L11.0194286,10.4177143 Z M11.1074286,9.7 L11.1405714,9.7 C11.1885714,9.7 11.2034286,9.73771429 11.2034286,9.86457143 C11.2034286,9.99142857 11.1885714,10.044 11.1405714,10.044 L11.1074286,10.044 L11.1074286,9.7 Z M11.4788571,9.7 L11.544,9.7 C11.5588571,9.7 11.5691429,9.70685714 11.5737143,9.72171429 L11.6354286,9.93657143 C11.6365714,9.94114286 11.64,9.94457143 11.6445714,9.94457143 C11.648,9.94457143 11.6502857,9.94228571 11.6502857,9.93771429 L11.6502857,9.65314286 C11.6502857,9.64742857 11.6457143,9.64285714 11.6411429,9.64285714 L11.3451429,9.64285714 C11.3405714,9.64285714 11.3382857,9.64628571 11.3382857,9.64971429 C11.3382857,9.65314286 11.344,9.65657143 11.3462857,9.66 L11.3805714,9.69314286 C11.3885714,9.70114286 11.3908571,9.71142857 11.3908571,9.72514286 L11.3908571,10.4177143 C11.3908571,10.4314286 11.3885714,10.4417143 11.3805714,10.4497143 L11.3462857,10.4828571 C11.344,10.4874286 11.3382857,10.4897143 11.3382857,10.4931429 C11.3382857,10.4965714 11.3405714,10.5 11.3451429,10.5 L11.6411429,10.5 C11.6468571,10.5 11.6502857,10.4954286 11.6502857,10.4897143 L11.6502857,10.2028571 C11.6502857,10.1994286 11.648,10.196 11.6445714,10.196 C11.6411429,10.196 11.6377143,10.1982857 11.6365714,10.2028571 L11.5748571,10.4222857 C11.5702857,10.436 11.5588571,10.4428571 11.544,10.4428571 L11.4788571,10.4428571 L11.4788571,10.0954286 L11.504,10.0954286 C11.5097143,10.0954286 11.5142857,10.0977143 11.5165714,10.1034286 L11.5554286,10.1868571 C11.5577143,10.1914286 11.5588571,10.1948571 11.5634286,10.1948571 C11.5668571,10.1948571 11.568,10.1925714 11.568,10.1891429 L11.568,9.94685714 C11.568,9.94228571 11.5668571,9.94 11.5634286,9.94 C11.56,9.94 11.5588571,9.94228571 11.5565714,9.94685714 L11.5165714,10.0268571 C11.5142857,10.0325714 11.5097143,10.0348571 11.504,10.0348571 L11.4788571,10.0348571 L11.4788571,9.7 Z" id="REGION" fill="#000000" mask="url(#mask-3)"></path>
                <mask id="mask-9" fill="white">
                    <use xlink:href="#path-8"></use>
                </mask>
                <g id="Depth" fill-opacity="1" fill="black">
                    <use filter="url(#filter-10)" xlink:href="#path-8"></use>
                </g>
            </g>
            <g id="Line">
                <use fill="#29568D" fill-rule="evenodd" xlink:href="#path-11"></use>
                <use stroke="#FFFFFF" mask="url(#mask-12)" stroke-width="1" xlink:href="#path-11"></use>
            </g>
        </g>
    </g>
</svg>