<?xml version="1.0" encoding="UTF-8"?>
<svg width="23px" height="17px" viewBox="0 0 23 17" version="1.1" xmlns="http://www.w3.org/2000/svg" xmlns:xlink="http://www.w3.org/1999/xlink">
    <!-- Generator: Sketch 41.2 (35397) - http://www.bohemiancoding.com/sketch -->
    <title>IO</title>
    <desc>Created with Sketch.</desc>
    <defs>
        <linearGradient x1="50%" y1="0%" x2="50%" y2="100%" id="linearGradient-1">
            <stop stop-color="#FFFFFF" offset="0%"></stop>
            <stop stop-color="#F0F0F0" offset="100%"></stop>
        </linearGradient>
        <rect id="path-2" x="0" y="0" width="21" height="15" rx="1.5"></rect>
        <filter x="-50%" y="-50%" width="200%" height="200%" filterUnits="objectBoundingBox" id="filter-4">
            <feOffset dx="0" dy="0.5" in="SourceAlpha" result="shadowOffsetOuter1"></feOffset>
            <feGaussianBlur stdDeviation="0.5" in="shadowOffsetOuter1" result="shadowBlurOuter1"></feGaussianBlur>
            <feColorMatrix values="0 0 0 0 0   0 0 0 0 0   0 0 0 0 0  0 0 0 0.16 0" type="matrix" in="shadowBlurOuter1"></feColorMatrix>
        </filter>
        <linearGradient x1="50%" y1="0%" x2="50%" y2="100%" id="linearGradient-5">
            <stop stop-color="#06319C" offset="0%"></stop>
            <stop stop-color="#00247E" offset="100%"></stop>
        </linearGradient>
        <rect id="path-6" x="0" y="0" width="21" height="15"></rect>
        <filter x="-50%" y="-50%" width="200%" height="200%" filterUnits="objectBoundingBox" id="filter-7">
            <feOffset dx="0" dy="0.5" in="SourceAlpha" result="shadowOffsetOuter1"></feOffset>
            <feGaussianBlur stdDeviation="0.5" in="shadowOffsetOuter1" result="shadowBlurOuter1"></feGaussianBlur>
            <feColorMatrix values="0 0 0 0 0   0 0 0 0 0   0 0 0 0 0  0 0 0 0.16 0" type="matrix" in="shadowBlurOuter1"></feColorMatrix>
        </filter>
        <path d="M9,6.80628706 L10.6893639,7.36940835 C10.8419993,7.42028682 11.1566421,7.42073971 11.3106361,7.36940835 L13.3731361,6.68190835 C13.7305613,6.56276663 14.2671218,6.56199432 14.6268639,6.68190835 L16.6893639,7.36940835 C16.8419993,7.42028682 17.1566421,7.42073971 17.3106361,7.36940835 L19.3731361,6.68190835 C19.7305613,6.56276663 20.2671218,6.56199432 20.6268639,6.68190835 L22.6893639,7.36940835 L23.1581139,7.52565835 L23.6324555,7.68377223 L23.3162278,8.63245553 L22.8418861,8.47434165 C22.7340098,8.43838288 22.7340098,8.43838288 22.3731361,8.31809165 L20.3106361,7.63059165 C20.1566421,7.57926029 19.8419993,7.57971318 19.6893639,7.63059165 L17.6268639,8.31809165 C17.2671218,8.43800568 16.7305613,8.43723337 16.3731361,8.31809165 L14.3106361,7.63059165 C14.1566421,7.57926029 13.8419993,7.57971318 13.6893639,7.63059165 L11.6268639,8.31809165 C11.2671218,8.43800568 10.7305613,8.43723337 10.3731361,8.31809165 L8.31063612,7.63059165 C8.15664205,7.57926029 7.84199929,7.57971318 7.68936388,7.63059165 L5.62686388,8.31809165 C5.2671218,8.43800568 4.73056128,8.43723337 4.37313612,8.31809165 L2.31063612,7.63059165 C2.15664205,7.57926029 1.84199929,7.57971318 1.68936388,7.63059165 L-0.373136117,8.31809165 L-0.847477766,8.47620553 L-1.16370553,7.52752223 L-0.689363883,7.36940835 L0.41886117,7 L3.58113883,7 L4.68936388,7.36940835 C4.84199929,7.42028682 5.15664205,7.42073971 5.31063612,7.36940835 L6.41886117,7 L9,7 L9,6.80628706 Z M9,4.30628706 L10.6893639,4.86940835 C10.8419993,4.92028682 11.1566421,4.92073971 11.3106361,4.86940835 L13.3731361,4.18190835 C13.7305613,4.06276663 14.2671218,4.06199432 14.6268639,4.18190835 L16.6893639,4.86940835 C16.8419993,4.92028682 17.1566421,4.92073971 17.3106361,4.86940835 L19.3731361,4.18190835 C19.7305613,4.06276663 20.2671218,4.06199432 20.6268639,4.18190835 L22.6893639,4.86940835 L23.1581139,5.02565835 L23.6324555,5.18377223 L23.3162278,6.13245553 L22.8418861,5.97434165 L22.3731361,5.81809165 L20.3106361,5.13059165 C20.1566421,5.07926029 19.8419993,5.07971318 19.6893639,5.13059165 L17.6268639,5.81809165 C17.2671218,5.93800568 16.7305613,5.93723337 16.3731361,5.81809165 L14.3106361,5.13059165 C14.1566421,5.07926029 13.8419993,5.07971318 13.6893639,5.13059165 L11.6268639,5.81809165 C11.2671218,5.93800568 10.7305613,5.93723337 10.3731361,5.81809165 L9,5.36037961 L9,4.30628706 Z M4.4408921e-16,4.63962039 L-0.689363883,4.86940835 L-1.16370553,5.02752223 L-0.847477766,5.97620553 L-0.373136117,5.81809165 L-2.22044605e-16,5.69371294 L0,4.63962039 Z M9,1.80628706 L10.6893639,2.36940835 C10.8419993,2.42028682 11.1566421,2.42073971 11.3106361,2.36940835 L13.3731361,1.68190835 C13.7305613,1.56276663 14.2671218,1.56199432 14.6268639,1.68190835 L16.6893639,2.36940835 C16.8419993,2.42028682 17.1566421,2.42073971 17.3106361,2.36940835 L19.3731361,1.68190835 C19.7305613,1.56276663 20.2671218,1.56199432 20.6268639,1.68190835 L22.6893639,2.36940835 L23.1581139,2.52565835 L23.6324555,2.68377223 L23.3162278,3.63245553 L22.8418861,3.47434165 L22.3731361,3.31809165 L20.3106361,2.63059165 C20.1566421,2.57926029 19.8419993,2.57971318 19.6893639,2.63059165 L17.6268639,3.31809165 C17.2671218,3.43800568 16.7305613,3.43723337 16.3731361,3.31809165 L14.3106361,2.63059165 C14.1566421,2.57926029 13.8419993,2.57971318 13.6893639,2.63059165 L11.6268639,3.31809165 C11.2671218,3.43800568 10.7305613,3.43723337 10.3731361,3.31809165 L9,2.86037961 L9,1.80628706 Z M0,2.13962039 L-0.689363883,2.36940835 L-1.16370553,2.52752223 L-0.847477766,3.47620553 L-0.373136117,3.31809165 L0,3.19371294 L0,2.13962039 Z M0,0.693712943 L-0.373136117,0.818091649 L-0.847477766,0.976205532 L-1.16370553,0.027522234 L-0.689363883,-0.130591649 L1.37313612,-0.818091649 C1.73056128,-0.937233369 2.2671218,-0.938005675 2.62686388,-0.818091649 L4.68936388,-0.130591649 C4.84199929,-0.0797131797 5.15664205,-0.0792602939 5.31063612,-0.130591649 L7.37313612,-0.818091649 C7.73056128,-0.937233369 8.2671218,-0.938005675 8.62686388,-0.818091649 L10.6893639,-0.130591649 C10.8419993,-0.0797131797 11.1566421,-0.0792602939 11.3106361,-0.130591649 L13.3731361,-0.818091649 C13.7305613,-0.937233369 14.2671218,-0.938005675 14.6268639,-0.818091649 L16.6893639,-0.130591649 C16.8419993,-0.0797131797 17.1566421,-0.0792602939 17.3106361,-0.130591649 L19.3731361,-0.818091649 C19.7305613,-0.937233369 20.2671218,-0.938005675 20.6268639,-0.818091649 L22.6893639,-0.130591649 C23.0502376,-0.010300416 23.0502376,-0.010300416 23.1581139,0.025658351 L23.6324555,0.183772234 L23.3162278,1.13245553 L22.8418861,0.974341649 L22.3731361,0.818091649 L20.3106361,0.130591649 C20.1566421,0.0792602939 19.8419993,0.0797131797 19.6893639,0.130591649 L17.6268639,0.818091649 C17.2671218,0.938005675 16.7305613,0.937233369 16.3731361,0.818091649 L14.3106361,0.130591649 C14.1566421,0.0792602939 13.8419993,0.0797131797 13.6893639,0.130591649 L11.6268639,0.818091649 C11.2671218,0.938005675 10.7305613,0.937233369 10.3731361,0.818091649 L9,0.36037961 L9,0 L0,0 L0,0.693712943 Z M23.1581139,15.0256584 L22.6893639,14.8694084 L20.6268639,14.1819084 C20.2671218,14.0619943 19.7305613,14.0627666 19.3731361,14.1819084 L17.3106361,14.8694084 C17.1566421,14.9207397 16.8419993,14.9202868 16.6893639,14.8694084 L14.6268639,14.1819084 C14.2671218,14.0619943 13.7305613,14.0627666 13.3731361,14.1819084 L11.3106361,14.8694084 C11.1566421,14.9207397 10.8419993,14.9202868 10.6893639,14.8694084 L8.62686388,14.1819084 C8.2671218,14.0619943 7.73056128,14.0627666 7.37313612,14.1819084 L5.31063612,14.8694084 C5.15664205,14.9207397 4.84199929,14.9202868 4.68936388,14.8694084 L2.62686388,14.1819084 C2.2671218,14.0619943 1.73056128,14.0627666 1.37313612,14.1819084 L-0.689363883,14.8694084 L-1.16370553,15.0275222 L-0.847477766,15.9762055 L-0.373136117,15.8180916 L1.68936388,15.1305916 C1.84199929,15.0797132 2.15664205,15.0792603 2.31063612,15.1305916 L4.37313612,15.8180916 C4.73056128,15.9372334 5.2671218,15.9380057 5.62686388,15.8180916 L7.68936388,15.1305916 C7.84199929,15.0797132 8.15664205,15.0792603 8.31063612,15.1305916 L10.3731361,15.8180916 C10.7305613,15.9372334 11.2671218,15.9380057 11.6268639,15.8180916 L13.6893639,15.1305916 C13.8419993,15.0797132 14.1566421,15.0792603 14.3106361,15.1305916 L16.3731361,15.8180916 C16.7305613,15.9372334 17.2671218,15.9380057 17.6268639,15.8180916 L19.6893639,15.1305916 C19.8419993,15.0797132 20.1566421,15.0792603 20.3106361,15.1305916 L22.3731361,15.8180916 L22.8418861,15.9743416 L23.3162278,16.1324555 L23.6324555,15.1837722 L23.1581139,15.0256584 Z M23.1581139,12.5256584 L22.6893639,12.3694084 L20.6268639,11.6819084 C20.2671218,11.5619943 19.7305613,11.5627666 19.3731361,11.6819084 L17.3106361,12.3694084 C17.1566421,12.4207397 16.8419993,12.4202868 16.6893639,12.3694084 L14.6268639,11.6819084 C14.2671218,11.5619943 13.7305613,11.5627666 13.3731361,11.6819084 L11.3106361,12.3694084 C11.1566421,12.4207397 10.8419993,12.4202868 10.6893639,12.3694084 L8.62686388,11.6819084 C8.2671218,11.5619943 7.73056128,11.5627666 7.37313612,11.6819084 L5.31063612,12.3694084 C5.15664205,12.4207397 4.84199929,12.4202868 4.68936388,12.3694084 L2.62686388,11.6819084 C2.2671218,11.5619943 1.73056128,11.5627666 1.37313612,11.6819084 L-0.689363883,12.3694084 L-1.16370553,12.5275222 L-0.847477766,13.4762055 L-0.373136117,13.3180916 L1.68936388,12.6305916 C1.84199929,12.5797132 2.15664205,12.5792603 2.31063612,12.6305916 L4.37313612,13.3180916 C4.73056128,13.4372334 5.2671218,13.4380057 5.62686388,13.3180916 L7.68936388,12.6305916 C7.84199929,12.5797132 8.15664205,12.5792603 8.31063612,12.6305916 L10.3731361,13.3180916 C10.7305613,13.4372334 11.2671218,13.4380057 11.6268639,13.3180916 L13.6893639,12.6305916 C13.8419993,12.5797132 14.1566421,12.5792603 14.3106361,12.6305916 L16.3731361,13.3180916 C16.7305613,13.4372334 17.2671218,13.4380057 17.6268639,13.3180916 L19.6893639,12.6305916 C19.8419993,12.5797132 20.1566421,12.5792603 20.3106361,12.6305916 L22.3731361,13.3180916 L22.8418861,13.4743416 L23.3162278,13.6324555 L23.6324555,12.6837722 L23.1581139,12.5256584 Z M23.1581139,10.0256584 L22.6893639,9.86940835 L20.6268639,9.18190835 C20.2671218,9.06199432 19.7305613,9.06276663 19.3731361,9.18190835 L17.3106361,9.86940835 C17.1566421,9.92073971 16.8419993,9.92028682 16.6893639,9.86940835 L14.6268639,9.18190835 C14.2671218,9.06199432 13.7305613,9.06276663 13.3731361,9.18190835 L11.3106361,9.86940835 C11.1566421,9.92073971 10.8419993,9.92028682 10.6893639,9.86940835 L8.62686388,9.18190835 C8.2671218,9.06199432 7.73056128,9.06276663 7.37313612,9.18190835 L5.31063612,9.86940835 C5.15664205,9.92073971 4.84199929,9.92028682 4.68936388,9.86940835 L2.62686388,9.18190835 C2.2671218,9.06199432 1.73056128,9.06276663 1.37313612,9.18190835 L-0.689363883,9.86940835 L-1.16370553,10.0275222 L-0.847477766,10.9762055 L-0.373136117,10.8180916 L1.68936388,10.1305916 C1.84199929,10.0797132 2.15664205,10.0792603 2.31063612,10.1305916 L4.37313612,10.8180916 C4.73056128,10.9372334 5.2671218,10.9380057 5.62686388,10.8180916 L7.68936388,10.1305916 C7.84199929,10.0797132 8.15664205,10.0792603 8.31063612,10.1305916 L10.3731361,10.8180916 C10.7305613,10.9372334 11.2671218,10.9380057 11.6268639,10.8180916 L13.6893639,10.1305916 C13.8419993,10.0797132 14.1566421,10.0792603 14.3106361,10.1305916 L16.3731361,10.8180916 C16.7305613,10.9372334 17.2671218,10.9380057 17.6268639,10.8180916 L19.6893639,10.1305916 C19.8419993,10.0797132 20.1566421,10.0792603 20.3106361,10.1305916 L22.3731361,10.8180916 L22.8418861,10.9743416 L23.3162278,11.1324555 L23.6324555,10.1837722 L23.1581139,10.0256584 Z" id="path-8"></path>
        <filter x="-50%" y="-50%" width="200%" height="200%" filterUnits="objectBoundingBox" id="filter-9">
            <feOffset dx="0" dy="0.5" in="SourceAlpha" result="shadowOffsetOuter1"></feOffset>
            <feColorMatrix values="0 0 0 0 0   0 0 0 0 0   0 0 0 0 0  0 0 0 0.24 0" type="matrix" in="shadowOffsetOuter1"></feColorMatrix>
        </filter>
        <linearGradient x1="50%" y1="0%" x2="50%" y2="100%" id="linearGradient-10">
            <stop stop-color="#DB1E36" offset="0%"></stop>
            <stop stop-color="#D51931" offset="100%"></stop>
        </linearGradient>
        <path d="M3.5,3 L0,0 L0.5,0 L4,2.5 L5,2.5 L9,0 L9,0.25 C9,0.388071187 8.91348267,0.561798096 8.79154062,0.648899555 L5.5,3 L5.5,4 L8.8118248,6.83870697 C8.91575109,6.92778665 8.8840332,7 8.75,7 L8.75,7 C8.61192881,7 8.41348267,6.9382019 8.29154062,6.85110044 L5,4.5 L4,4.5 L0,7 L0,6.5 L3.5,4 L3.5,3 Z" id="path-11"></path>
        <mask id="mask-12" maskContentUnits="userSpaceOnUse" maskUnits="objectBoundingBox" x="-0.5" y="-0.5" width="10" height="8">
            <rect x="-0.5" y="-0.5" width="10" height="8" fill="white"></rect>
            <use xlink:href="#path-11" fill="black"></use>
        </mask>
        <rect id="path-13" x="0" y="0" width="21" height="15" rx="1.5"></rect>
        <filter x="-50%" y="-50%" width="200%" height="200%" filterUnits="objectBoundingBox" id="filter-14">
            <feOffset dx="0" dy="-0.5" in="SourceAlpha" result="shadowOffsetInner1"></feOffset>
            <feComposite in="shadowOffsetInner1" in2="SourceAlpha" operator="arithmetic" k2="-1" k3="1" result="shadowInnerInner1"></feComposite>
            <feColorMatrix values="0 0 0 0 0   0 0 0 0 0   0 0 0 0 0  0 0 0 0.04 0" type="matrix" in="shadowInnerInner1" result="shadowMatrixInner1"></feColorMatrix>
            <feOffset dx="0" dy="0.5" in="SourceAlpha" result="shadowOffsetInner2"></feOffset>
            <feComposite in="shadowOffsetInner2" in2="SourceAlpha" operator="arithmetic" k2="-1" k3="1" result="shadowInnerInner2"></feComposite>
            <feColorMatrix values="0 0 0 0 1   0 0 0 0 1   0 0 0 0 1  0 0 0 0.12 0" type="matrix" in="shadowInnerInner2" result="shadowMatrixInner2"></feColorMatrix>
            <feMerge>
                <feMergeNode in="shadowMatrixInner1"></feMergeNode>
                <feMergeNode in="shadowMatrixInner2"></feMergeNode>
            </feMerge>
        </filter>
    </defs>
    <g id="Flag-Kit" stroke="none" stroke-width="1" fill="none" fill-rule="evenodd">
        <g id="IO">
            <g id="AE" transform="translate(1.000000, 1.000000)">
                <mask id="mask-3" fill="white">
                    <use xlink:href="#path-2"></use>
                </mask>
                <g id="Mask">
                    <use fill="black" fill-opacity="1" filter="url(#filter-4)" xlink:href="#path-2"></use>
                    <use fill="url(#linearGradient-1)" fill-rule="evenodd" xlink:href="#path-2"></use>
                </g>
                <g id="Mask-Copy" mask="url(#mask-3)">
                    <use fill="black" fill-opacity="1" filter="url(#filter-7)" xlink:href="#path-6"></use>
                    <use fill="url(#linearGradient-5)" fill-rule="evenodd" xlink:href="#path-6"></use>
                </g>
                <g id="Combined-Shape" mask="url(#mask-3)">
                    <use fill="black" fill-opacity="1" filter="url(#filter-9)" xlink:href="#path-8"></use>
                    <use fill="#FFFFFF" fill-rule="evenodd" xlink:href="#path-8"></use>
                </g>
                <g id="Rectangle-36" mask="url(#mask-3)">
                    <use fill="url(#linearGradient-10)" fill-rule="evenodd" xlink:href="#path-11"></use>
                    <use stroke="#FFFFFF" mask="url(#mask-12)" stroke-width="1" xlink:href="#path-11"></use>
                </g>
                <path d="M0,2.5 L0,4.5 L3.5,4.5 L3.5,7.00461102 C3.5,7.2782068 3.71403503,7.5 4.00468445,7.5 L4.99531555,7.5 C5.27404508,7.5 5.5,7.2842474 5.5,7.00461102 L5.5,4.5 L9.00952148,4.5 C9.28040529,4.5 9.5,4.28596497 9.5,3.99531555 L9.5,3.00468445 C9.5,2.72595492 9.28494263,2.5 9.00952148,2.5 L5.5,2.5 L5.5,0 L3.5,0 L3.5,2.5 L0,2.5 Z" id="Rectangle-2" fill="url(#linearGradient-1)" mask="url(#mask-3)"></path>
                <polygon id="Rectangle-36" fill="url(#linearGradient-10)" mask="url(#mask-3)" points="0 3 4 3 4 2.5 4 0 5 0 5 2.5 5 3 9 3 9 4 5 4 5 4.5 5 7 4 7 4 4.5 4 4 0 4"></polygon>
                <g id="Depth" mask="url(#mask-3)" fill-opacity="1" fill="black">
                    <use filter="url(#filter-14)" xlink:href="#path-13"></use>
                </g>
            </g>
        </g>
    </g>
</svg>