<?xml version="1.0" encoding="UTF-8"?>
<svg width="23px" height="17px" viewBox="0 0 23 17" version="1.1" xmlns="http://www.w3.org/2000/svg" xmlns:xlink="http://www.w3.org/1999/xlink">
    <!-- Generator: Sketch 41.2 (35397) - http://www.bohemiancoding.com/sketch -->
    <title>PM</title>
    <desc>Created with Sketch.</desc>
    <defs>
        <linearGradient x1="50%" y1="0%" x2="50%" y2="100%" id="linearGradient-1">
            <stop stop-color="#FFFFFF" offset="0%"></stop>
            <stop stop-color="#F0F0F0" offset="100%"></stop>
        </linearGradient>
        <rect id="path-2" x="0" y="0" width="21" height="15" rx="1.5"></rect>
        <filter x="-50%" y="-50%" width="200%" height="200%" filterUnits="objectBoundingBox" id="filter-4">
            <feOffset dx="0" dy="0.5" in="SourceAlpha" result="shadowOffsetOuter1"></feOffset>
            <feGaussianBlur stdDeviation="0.5" in="shadowOffsetOuter1" result="shadowBlurOuter1"></feGaussianBlur>
            <feColorMatrix values="0 0 0 0 0   0 0 0 0 0   0 0 0 0 0  0 0 0 0.16 0" type="matrix" in="shadowBlurOuter1"></feColorMatrix>
        </filter>
        <linearGradient x1="50%" y1="0%" x2="50%" y2="100%" id="linearGradient-5">
            <stop stop-color="#128F15" offset="0%"></stop>
            <stop stop-color="#0F7F12" offset="100%"></stop>
        </linearGradient>
        <rect id="path-6" x="0" y="10" width="21" height="5"></rect>
        <filter x="-50%" y="-50%" width="200%" height="200%" filterUnits="objectBoundingBox" id="filter-7">
            <feMorphology radius="0.25" operator="dilate" in="SourceAlpha" result="shadowSpreadOuter1"></feMorphology>
            <feOffset dx="0" dy="0" in="shadowSpreadOuter1" result="shadowOffsetOuter1"></feOffset>
            <feColorMatrix values="0 0 0 0 0   0 0 0 0 0   0 0 0 0 0  0 0 0 0.06 0" type="matrix" in="shadowOffsetOuter1"></feColorMatrix>
        </filter>
        <linearGradient x1="50%" y1="0%" x2="50%" y2="100%" id="linearGradient-8">
            <stop stop-color="#26A7DD" offset="0%"></stop>
            <stop stop-color="#1B94C6" offset="100%"></stop>
        </linearGradient>
        <linearGradient x1="50%" y1="0%" x2="50%" y2="100%" id="linearGradient-9">
            <stop stop-color="#FCCD3F" offset="0%"></stop>
            <stop stop-color="#FFCE2F" offset="100%"></stop>
        </linearGradient>
        <path d="M14.586681,6.97616846 C14.3942463,6.99144098 14.1984736,7 14,7 C13.8015264,7 13.6057537,6.99144098 13.413319,6.97616846 C13.5600365,6.49023126 13.5827623,5.8793947 13.4474422,5.24276346 C13.160376,3.89222345 12.2707656,2.93702231 11.4604415,3.109262 C10.6501175,3.28150168 10.2259332,4.51595853 10.5129994,5.86649853 C10.5547704,6.06301595 10.6092993,6.25116276 10.6744853,6.42868342 C9.64703249,6.17626317 9,6.10923857 9,7 C9,8.65685425 11.2385763,10 14,10 C16.7614237,10 19,8.65685425 19,7 C19,6.10923857 18.3529675,6.17626317 17.3255147,6.42868342 C17.3907007,6.25116276 17.4452296,6.06301595 17.4870006,5.86649853 C17.7740668,4.51595853 17.3498825,3.28150168 16.5395585,3.109262 C15.7292344,2.93702231 14.839624,3.89222345 14.5525578,5.24276346 C14.4172377,5.8793947 14.4399635,6.49023126 14.586681,6.97616846 Z" id="path-10"></path>
        <filter x="-50%" y="-50%" width="200%" height="200%" filterUnits="objectBoundingBox" id="filter-11">
            <feOffset dx="0" dy="0.5" in="SourceAlpha" result="shadowOffsetOuter1"></feOffset>
            <feColorMatrix values="0 0 0 0 0   0 0 0 0 0   0 0 0 0 0  0 0 0 0.06 0" type="matrix" in="shadowOffsetOuter1"></feColorMatrix>
        </filter>
        <linearGradient x1="50%" y1="0%" x2="50%" y2="100%" id="linearGradient-12">
            <stop stop-color="#F13533" offset="0%"></stop>
            <stop stop-color="#D82A28" offset="100%"></stop>
        </linearGradient>
        <rect id="path-13" x="0" y="0" width="7" height="5"></rect>
        <linearGradient x1="82.8416049%" y1="18.1366533%" x2="20.4259648%" y2="78.4787716%" id="linearGradient-15">
            <stop stop-color="#2AA954" offset="0%"></stop>
            <stop stop-color="#219447" offset="100%"></stop>
        </linearGradient>
        <path d="M4,2 L4,-1 L3,-1 L3,2 L0,2 L0,3 L3,3 L3,6 L4,6 L4,3 L7,3 L7,2 L4,2 Z" id="path-16"></path>
        <filter x="-50%" y="-50%" width="200%" height="200%" filterUnits="objectBoundingBox" id="filter-17">
            <feMorphology radius="0.25" operator="dilate" in="SourceAlpha" result="shadowSpreadOuter1"></feMorphology>
            <feOffset dx="0" dy="0" in="shadowSpreadOuter1" result="shadowOffsetOuter1"></feOffset>
            <feColorMatrix values="0 0 0 0 0   0 0 0 0 0   0 0 0 0 0  0 0 0 0.06 0" type="matrix" in="shadowOffsetOuter1"></feColorMatrix>
        </filter>
        <rect id="path-18" x="0" y="5" width="7" height="5"></rect>
        <filter x="-50%" y="-50%" width="200%" height="200%" filterUnits="objectBoundingBox" id="filter-19">
            <feOffset dx="0" dy="0.5" in="SourceAlpha" result="shadowOffsetOuter1"></feOffset>
            <feColorMatrix values="0 0 0 0 0   0 0 0 0 0   0 0 0 0 0  0 0 0 0.06 0" type="matrix" in="shadowOffsetOuter1"></feColorMatrix>
        </filter>
        <linearGradient x1="50%" y1="0%" x2="50%" y2="100%" id="linearGradient-20">
            <stop stop-color="#262626" offset="0%"></stop>
            <stop stop-color="#0C0C0C" offset="100%"></stop>
        </linearGradient>
        <linearGradient x1="50%" y1="0%" x2="50%" y2="100%" id="linearGradient-21">
            <stop stop-color="#D7171C" offset="0%"></stop>
            <stop stop-color="#C60E13" offset="100%"></stop>
        </linearGradient>
        <rect id="path-22" x="0" y="0" width="21" height="15" rx="1.5"></rect>
        <filter x="-50%" y="-50%" width="200%" height="200%" filterUnits="objectBoundingBox" id="filter-24">
            <feOffset dx="0" dy="-0.5" in="SourceAlpha" result="shadowOffsetInner1"></feOffset>
            <feComposite in="shadowOffsetInner1" in2="SourceAlpha" operator="arithmetic" k2="-1" k3="1" result="shadowInnerInner1"></feComposite>
            <feColorMatrix values="0 0 0 0 0   0 0 0 0 0   0 0 0 0 0  0 0 0 0.04 0" type="matrix" in="shadowInnerInner1" result="shadowMatrixInner1"></feColorMatrix>
            <feOffset dx="0" dy="0.5" in="SourceAlpha" result="shadowOffsetInner2"></feOffset>
            <feComposite in="shadowOffsetInner2" in2="SourceAlpha" operator="arithmetic" k2="-1" k3="1" result="shadowInnerInner2"></feComposite>
            <feColorMatrix values="0 0 0 0 1   0 0 0 0 1   0 0 0 0 1  0 0 0 0.12 0" type="matrix" in="shadowInnerInner2" result="shadowMatrixInner2"></feColorMatrix>
            <feMerge>
                <feMergeNode in="shadowMatrixInner1"></feMergeNode>
                <feMergeNode in="shadowMatrixInner2"></feMergeNode>
            </feMerge>
        </filter>
        <linearGradient x1="50%" y1="0%" x2="50%" y2="100%" id="linearGradient-25">
            <stop stop-color="#FCCD3F" offset="0%"></stop>
            <stop stop-color="#FECB2F" offset="100%"></stop>
        </linearGradient>
    </defs>
    <g id="Flag-Kit" stroke="none" stroke-width="1" fill="none" fill-rule="evenodd">
        <g id="PM">
            <g id="AE-Copy-2" transform="translate(1.000000, 1.000000)">
                <mask id="mask-3" fill="white">
                    <use xlink:href="#path-2"></use>
                </mask>
                <g id="Mask">
                    <use fill="black" fill-opacity="1" filter="url(#filter-4)" xlink:href="#path-2"></use>
                    <use fill="url(#linearGradient-1)" fill-rule="evenodd" xlink:href="#path-2"></use>
                </g>
                <g id="Rectangle-2" mask="url(#mask-3)">
                    <use fill="black" fill-opacity="1" filter="url(#filter-7)" xlink:href="#path-6"></use>
                    <use fill="url(#linearGradient-5)" fill-rule="evenodd" xlink:href="#path-6"></use>
                </g>
                <polygon id="Rectangle-2" fill="url(#linearGradient-8)" mask="url(#mask-3)" points="0 15 7 15 21 15 21 0 7 0 0 0"></polygon>
                <g id="Combined-Shape" mask="url(#mask-3)">
                    <use fill="black" fill-opacity="1" filter="url(#filter-11)" xlink:href="#path-10"></use>
                    <use fill="url(#linearGradient-9)" fill-rule="evenodd" xlink:href="#path-10"></use>
                </g>
                <polyline id="Line" stroke="url(#linearGradient-1)" stroke-linecap="round" stroke-linejoin="round" mask="url(#mask-3)" points="10 11.5 12 12.5 14 11.5 16 12.5 18 11.5"></polyline>
                <g id="Group" mask="url(#mask-3)">
                    <mask id="mask-14" fill="white">
                        <use xlink:href="#path-13"></use>
                    </mask>
                    <use id="Rectangle-2" fill="url(#linearGradient-12)" xlink:href="#path-13"></use>
                    <path d="M4,2 L4,-2 L3,-2 L3,2 L-1,2 L-1,3 L3,3 L3,7 L4,7 L4,3 L8,3 L8,2 L4,2 Z" id="Combined-Shape" fill="url(#linearGradient-15)" mask="url(#mask-14)" transform="translate(3.500000, 2.500000) rotate(-45.000000) translate(-3.500000, -2.500000) "></path>
                    <g id="Combined-Shape-Copy" mask="url(#mask-14)">
                        <use fill="black" fill-opacity="1" filter="url(#filter-17)" xlink:href="#path-16"></use>
                        <use fill="url(#linearGradient-1)" fill-rule="evenodd" xlink:href="#path-16"></use>
                    </g>
                </g>
                <g id="Rectangle-2-Copy" mask="url(#mask-3)">
                    <use fill="black" fill-opacity="1" filter="url(#filter-19)" xlink:href="#path-18"></use>
                    <use fill="url(#linearGradient-1)" fill-rule="evenodd" xlink:href="#path-18"></use>
                </g>
                <path d="M1.5,7 C1.77614237,7 2,6.77614237 2,6.5 C2,6.22385763 1.77614237,6 1.5,6 C1.22385763,6 1,6.22385763 1,6.5 C1,6.77614237 1.22385763,7 1.5,7 Z M3.5,7 C3.77614237,7 4,6.77614237 4,6.5 C4,6.22385763 3.77614237,6 3.5,6 C3.22385763,6 3,6.22385763 3,6.5 C3,6.77614237 3.22385763,7 3.5,7 Z M5.5,7 C5.77614237,7 6,6.77614237 6,6.5 C6,6.22385763 5.77614237,6 5.5,6 C5.22385763,6 5,6.22385763 5,6.5 C5,6.77614237 5.22385763,7 5.5,7 Z M4.5,9 C4.77614237,9 5,8.77614237 5,8.5 C5,8.22385763 4.77614237,8 4.5,8 C4.22385763,8 4,8.22385763 4,8.5 C4,8.77614237 4.22385763,9 4.5,9 Z M2.5,9 C2.77614237,9 3,8.77614237 3,8.5 C3,8.22385763 2.77614237,8 2.5,8 C2.22385763,8 2,8.22385763 2,8.5 C2,8.77614237 2.22385763,9 2.5,9 Z" id="Combined-Shape" fill="url(#linearGradient-20)" mask="url(#mask-3)"></path>
                <rect id="Rectangle-2-Copy-2" fill="url(#linearGradient-21)" mask="url(#mask-3)" x="0" y="10" width="7" height="5"></rect>
                <mask id="mask-23" fill="white">
                    <use xlink:href="#path-22"></use>
                </mask>
                <g id="Depth" fill-opacity="1" fill="black">
                    <use filter="url(#filter-24)" xlink:href="#path-22"></use>
                </g>
            </g>
            <path d="M4.5,13 C5.88071187,13 7,12.7761424 7,12.5 C7,12.2238576 5.88071187,12 4.5,12 C3.11928813,12 2,12.2238576 2,12.5 C2,12.7761424 3.11928813,13 4.5,13 Z M4.5,15 C5.88071187,15 7,14.7761424 7,14.5 C7,14.2238576 5.88071187,14 4.5,14 C3.11928813,14 2,14.2238576 2,14.5 C2,14.7761424 3.11928813,15 4.5,15 Z" id="Combined-Shape" fill="url(#linearGradient-25)"></path>
        </g>
    </g>
</svg>