<?xml version="1.0" encoding="UTF-8"?>
<svg width="23px" height="17px" viewBox="0 0 23 17" version="1.1" xmlns="http://www.w3.org/2000/svg" xmlns:xlink="http://www.w3.org/1999/xlink">
    <!-- Generator: Sketch 41.2 (35397) - http://www.bohemiancoding.com/sketch -->
    <title>PN</title>
    <desc>Created with Sketch.</desc>
    <defs>
        <linearGradient x1="50%" y1="0%" x2="50%" y2="100%" id="linearGradient-1">
            <stop stop-color="#FFFFFF" offset="0%"></stop>
            <stop stop-color="#F0F0F0" offset="100%"></stop>
        </linearGradient>
        <rect id="path-2" x="0" y="0" width="21" height="15" rx="1.5"></rect>
        <filter x="-50%" y="-50%" width="200%" height="200%" filterUnits="objectBoundingBox" id="filter-4">
            <feOffset dx="0" dy="0.5" in="SourceAlpha" result="shadowOffsetOuter1"></feOffset>
            <feGaussianBlur stdDeviation="0.5" in="shadowOffsetOuter1" result="shadowBlurOuter1"></feGaussianBlur>
            <feColorMatrix values="0 0 0 0 0   0 0 0 0 0   0 0 0 0 0  0 0 0 0.16 0" type="matrix" in="shadowBlurOuter1"></feColorMatrix>
        </filter>
        <linearGradient x1="50%" y1="0%" x2="50%" y2="100%" id="linearGradient-5">
            <stop stop-color="#06319C" offset="0%"></stop>
            <stop stop-color="#00247E" offset="100%"></stop>
        </linearGradient>
        <rect id="path-6" x="0" y="0" width="21" height="15"></rect>
        <filter x="-50%" y="-50%" width="200%" height="200%" filterUnits="objectBoundingBox" id="filter-7">
            <feOffset dx="0" dy="0.5" in="SourceAlpha" result="shadowOffsetOuter1"></feOffset>
            <feGaussianBlur stdDeviation="0.5" in="shadowOffsetOuter1" result="shadowBlurOuter1"></feGaussianBlur>
            <feColorMatrix values="0 0 0 0 0   0 0 0 0 0   0 0 0 0 0  0 0 0 0.16 0" type="matrix" in="shadowBlurOuter1"></feColorMatrix>
        </filter>
        <linearGradient x1="50%" y1="0%" x2="50%" y2="100%" id="linearGradient-8">
            <stop stop-color="#1E8BDE" offset="0%"></stop>
            <stop stop-color="#1075C2" offset="100%"></stop>
        </linearGradient>
        <path d="M0,3.5 L1.54164674e-17,0.509643555 C6.90218757e-18,0.228175192 0.21484375,0 0.497698784,0 L4.50230122,0 C4.77717266,0 5,0.226606369 5,0.509643555 L5,3.5 C5,6 2.5,7 2.5,7 C2.5,7 0,6 0,3.5 Z" id="path-9"></path>
        <filter x="-50%" y="-50%" width="200%" height="200%" filterUnits="objectBoundingBox" id="filter-11">
            <feOffset dx="0" dy="0.5" in="SourceAlpha" result="shadowOffsetOuter1"></feOffset>
            <feColorMatrix values="0 0 0 0 0   0 0 0 0 0   0 0 0 0 0  0 0 0 0.06 0" type="matrix" in="shadowOffsetOuter1"></feColorMatrix>
        </filter>
        <linearGradient x1="50%" y1="0%" x2="50%" y2="100%" id="linearGradient-12">
            <stop stop-color="#4A8C35" offset="0%"></stop>
            <stop stop-color="#397127" offset="100%"></stop>
        </linearGradient>
        <linearGradient x1="50%" y1="0%" x2="50%" y2="100%" id="linearGradient-13">
            <stop stop-color="#F8E14A" offset="0%"></stop>
            <stop stop-color="#F7DE38" offset="100%"></stop>
        </linearGradient>
        <polygon id="path-14" points="-0.5 6 2.5 0 5.5 6 5.5 8 -0.5 8"></polygon>
        <mask id="mask-15" maskContentUnits="userSpaceOnUse" maskUnits="objectBoundingBox" x="0" y="0" width="6" height="8" fill="white">
            <use xlink:href="#path-14"></use>
        </mask>
        <linearGradient x1="50%" y1="0%" x2="50%" y2="100%" id="linearGradient-16">
            <stop stop-color="#DB1E36" offset="0%"></stop>
            <stop stop-color="#D51931" offset="100%"></stop>
        </linearGradient>
        <path d="M3.5,3 L0,0 L0.5,0 L4,2.5 L5,2.5 L9,0 L9,0.25 C9,0.388071187 8.91348267,0.561798096 8.79154062,0.648899555 L5.5,3 L5.5,4 L8.8118248,6.83870697 C8.91575109,6.92778665 8.8840332,7 8.75,7 L8.75,7 C8.61192881,7 8.41348267,6.9382019 8.29154062,6.85110044 L5,4.5 L4,4.5 L0,7 L0,6.5 L3.5,4 L3.5,3 Z" id="path-17"></path>
        <mask id="mask-18" maskContentUnits="userSpaceOnUse" maskUnits="objectBoundingBox" x="-0.5" y="-0.5" width="10" height="8">
            <rect x="-0.5" y="-0.5" width="10" height="8" fill="white"></rect>
            <use xlink:href="#path-17" fill="black"></use>
        </mask>
        <rect id="path-19" x="0" y="0" width="21" height="15" rx="1.5"></rect>
        <filter x="-50%" y="-50%" width="200%" height="200%" filterUnits="objectBoundingBox" id="filter-20">
            <feOffset dx="0" dy="-0.5" in="SourceAlpha" result="shadowOffsetInner1"></feOffset>
            <feComposite in="shadowOffsetInner1" in2="SourceAlpha" operator="arithmetic" k2="-1" k3="1" result="shadowInnerInner1"></feComposite>
            <feColorMatrix values="0 0 0 0 0   0 0 0 0 0   0 0 0 0 0  0 0 0 0.04 0" type="matrix" in="shadowInnerInner1" result="shadowMatrixInner1"></feColorMatrix>
            <feOffset dx="0" dy="0.5" in="SourceAlpha" result="shadowOffsetInner2"></feOffset>
            <feComposite in="shadowOffsetInner2" in2="SourceAlpha" operator="arithmetic" k2="-1" k3="1" result="shadowInnerInner2"></feComposite>
            <feColorMatrix values="0 0 0 0 1   0 0 0 0 1   0 0 0 0 1  0 0 0 0.12 0" type="matrix" in="shadowInnerInner2" result="shadowMatrixInner2"></feColorMatrix>
            <feMerge>
                <feMergeNode in="shadowMatrixInner1"></feMergeNode>
                <feMergeNode in="shadowMatrixInner2"></feMergeNode>
            </feMerge>
        </filter>
        <rect id="path-21" x="16" y="9.5" width="1" height="1" rx="0.25"></rect>
        <filter x="-50%" y="-50%" width="200%" height="200%" filterUnits="objectBoundingBox" id="filter-22">
            <feOffset dx="0" dy="0.5" in="SourceAlpha" result="shadowOffsetOuter1"></feOffset>
            <feColorMatrix values="0 0 0 0 0   0 0 0 0 0   0 0 0 0 0  0 0 0 0.24 0" type="matrix" in="shadowOffsetOuter1"></feColorMatrix>
        </filter>
        <linearGradient x1="50%" y1="0%" x2="50%" y2="100%" id="linearGradient-23">
            <stop stop-color="#F7E14B" offset="0%"></stop>
            <stop stop-color="#F7DF3E" offset="100%"></stop>
        </linearGradient>
        <path d="M16.25,12.5 L16.060518,11.7420721 C16.0270948,11.6083794 16.1070175,11.5 16.2523422,11.5 L16.7476578,11.5 C16.8870225,11.5 16.9732456,11.6070175 16.939482,11.7420721 L16.75,12.5 L17.2950592,12.8633728 C17.4082449,12.9388299 17.3924713,13 17.2547607,13 L15.7452393,13 C15.6097974,13 15.5919647,12.9386902 15.7049408,12.8633728 L16.25,12.5 Z" id="path-24"></path>
        <filter x="-50%" y="-50%" width="200%" height="200%" filterUnits="objectBoundingBox" id="filter-25">
            <feOffset dx="0" dy="0.5" in="SourceAlpha" result="shadowOffsetOuter1"></feOffset>
            <feColorMatrix values="0 0 0 0 0   0 0 0 0 0   0 0 0 0 0  0 0 0 0.24 0" type="matrix" in="shadowOffsetOuter1"></feColorMatrix>
        </filter>
        <linearGradient x1="50%" y1="0%" x2="50%" y2="100%" id="linearGradient-26">
            <stop stop-color="#AB9B91" offset="0%"></stop>
            <stop stop-color="#95877E" offset="100%"></stop>
        </linearGradient>
        <ellipse id="path-27" cx="16.5" cy="6" rx="1" ry="1.5"></ellipse>
        <filter x="-50%" y="-50%" width="200%" height="200%" filterUnits="objectBoundingBox" id="filter-28">
            <feOffset dx="0" dy="0.5" in="SourceAlpha" result="shadowOffsetOuter1"></feOffset>
            <feColorMatrix values="0 0 0 0 0   0 0 0 0 0   0 0 0 0 0  0 0 0 0.24 0" type="matrix" in="shadowOffsetOuter1"></feColorMatrix>
        </filter>
        <path d="M19.5,13 C19.7761424,13 20,12.7761424 20,12.5 C20,12.2238576 19.7761424,12 19.5,12 C19.2238576,12 19,12.2238576 19,12.5 C19,12.7761424 19.2238576,13 19.5,13 Z M13.5,13 C13.7761424,13 14,12.7761424 14,12.5 C14,12.2238576 13.7761424,12 13.5,12 C13.2238576,12 13,12.2238576 13,12.5 C13,12.7761424 13.2238576,13 13.5,13 Z M12.5,7 C12.7761424,7 13,6.77614237 13,6.5 C13,6.22385763 12.7761424,6 12.5,6 C12.2238576,6 12,6.22385763 12,6.5 C12,6.77614237 12.2238576,7 12.5,7 Z M17,4 C17.2761424,4 17.5,3.77614237 17.5,3.5 C17.5,3.22385763 17.2761424,3 17,3 C16.7238576,3 16.5,3.22385763 16.5,3.5 C16.5,3.77614237 16.7238576,4 17,4 Z M20.5,9 C20.7761424,9 21,8.77614237 21,8.5 C21,8.22385763 20.7761424,8 20.5,8 C20.2238576,8 20,8.22385763 20,8.5 C20,8.77614237 20.2238576,9 20.5,9 Z" id="path-29"></path>
        <filter x="-50%" y="-50%" width="200%" height="200%" filterUnits="objectBoundingBox" id="filter-30">
            <feOffset dx="0" dy="0.5" in="SourceAlpha" result="shadowOffsetOuter1"></feOffset>
            <feColorMatrix values="0 0 0 0 0   0 0 0 0 0   0 0 0 0 0  0 0 0 0.24 0" type="matrix" in="shadowOffsetOuter1"></feColorMatrix>
        </filter>
        <linearGradient x1="50%" y1="0%" x2="50%" y2="100%" id="linearGradient-31">
            <stop stop-color="#498934" offset="0%"></stop>
            <stop stop-color="#3B7529" offset="100%"></stop>
        </linearGradient>
        <path d="M20.5,7 C20.7761424,7 21,6.77614237 21,6.5 C21,6.22385763 20.7761424,6 20.5,6 C20.2238576,6 20,6.22385763 20,6.5 C20,6.77614237 20.2238576,7 20.5,7 Z M16,4 C16.2761424,4 16.5,3.77614237 16.5,3.5 C16.5,3.22385763 16.2761424,3 16,3 C15.7238576,3 15.5,3.22385763 15.5,3.5 C15.5,3.77614237 15.7238576,4 16,4 Z M12.5,9 C12.7761424,9 13,8.77614237 13,8.5 C13,8.22385763 12.7761424,8 12.5,8 C12.2238576,8 12,8.22385763 12,8.5 C12,8.77614237 12.2238576,9 12.5,9 Z" id="path-32"></path>
        <filter x="-50%" y="-50%" width="200%" height="200%" filterUnits="objectBoundingBox" id="filter-33">
            <feOffset dx="0" dy="0.5" in="SourceAlpha" result="shadowOffsetOuter1"></feOffset>
            <feColorMatrix values="0 0 0 0 0   0 0 0 0 0   0 0 0 0 0  0 0 0 0.24 0" type="matrix" in="shadowOffsetOuter1"></feColorMatrix>
        </filter>
    </defs>
    <g id="Flag-Kit" stroke="none" stroke-width="1" fill="none" fill-rule="evenodd">
        <g id="PN">
            <g id="AE" transform="translate(1.000000, 1.000000)">
                <mask id="mask-3" fill="white">
                    <use xlink:href="#path-2"></use>
                </mask>
                <g id="Mask">
                    <use fill="black" fill-opacity="1" filter="url(#filter-4)" xlink:href="#path-2"></use>
                    <use fill="url(#linearGradient-1)" fill-rule="evenodd" xlink:href="#path-2"></use>
                </g>
                <g id="Mask-Copy" mask="url(#mask-3)">
                    <use fill="black" fill-opacity="1" filter="url(#filter-7)" xlink:href="#path-6"></use>
                    <use fill="url(#linearGradient-5)" fill-rule="evenodd" xlink:href="#path-6"></use>
                </g>
                <g id="Rectangle-1105" mask="url(#mask-3)">
                    <g transform="translate(13.000000, 6.000000)">
                        <mask id="mask-10" fill="white">
                            <use xlink:href="#path-9"></use>
                        </mask>
                        <g id="Mask" stroke="none" fill="none">
                            <use fill="black" fill-opacity="1" filter="url(#filter-11)" xlink:href="#path-9"></use>
                            <use fill="url(#linearGradient-8)" fill-rule="evenodd" xlink:href="#path-9"></use>
                        </g>
                        <g id="Rectangle-1293" stroke="none" fill="none" mask="url(#mask-10)" stroke-width="1" fill-rule="evenodd">
                            <use stroke="url(#linearGradient-13)" mask="url(#mask-15)" fill="url(#linearGradient-12)" xlink:href="#path-14"></use>
                        </g>
                    </g>
                </g>
                <g id="Rectangle-36" mask="url(#mask-3)">
                    <use fill="url(#linearGradient-16)" fill-rule="evenodd" xlink:href="#path-17"></use>
                    <use stroke="#FFFFFF" mask="url(#mask-18)" stroke-width="1" xlink:href="#path-17"></use>
                </g>
                <path d="M0,2.5 L0,4.5 L3.5,4.5 L3.5,7.00461102 C3.5,7.2782068 3.71403503,7.5 4.00468445,7.5 L4.99531555,7.5 C5.27404508,7.5 5.5,7.2842474 5.5,7.00461102 L5.5,4.5 L9.00952148,4.5 C9.28040529,4.5 9.5,4.28596497 9.5,3.99531555 L9.5,3.00468445 C9.5,2.72595492 9.28494263,2.5 9.00952148,2.5 L5.5,2.5 L5.5,0 L3.5,0 L3.5,2.5 L0,2.5 Z" id="Rectangle-2" fill="url(#linearGradient-1)" mask="url(#mask-3)"></path>
                <polygon id="Rectangle-36" fill="url(#linearGradient-16)" mask="url(#mask-3)" points="0 3 4 3 4 2.5 4 0 5 0 5 2.5 5 3 9 3 9 4 5 4 5 4.5 5 7 4 7 4 4.5 4 4 0 4"></polygon>
                <g id="Depth" mask="url(#mask-3)" fill-opacity="1" fill="black">
                    <use filter="url(#filter-20)" xlink:href="#path-19"></use>
                </g>
            </g>
            <g id="Rectangle-1294">
                <use fill="black" fill-opacity="1" filter="url(#filter-22)" xlink:href="#path-21"></use>
                <use fill="#FFFFFF" fill-rule="evenodd" xlink:href="#path-21"></use>
            </g>
            <g id="Rectangle-1294-Copy">
                <use fill="black" fill-opacity="1" filter="url(#filter-25)" xlink:href="#path-24"></use>
                <use fill="url(#linearGradient-23)" fill-rule="evenodd" xlink:href="#path-24"></use>
            </g>
            <g id="Oval-234">
                <use fill="black" fill-opacity="1" filter="url(#filter-28)" xlink:href="#path-27"></use>
                <use fill="url(#linearGradient-26)" fill-rule="evenodd" xlink:href="#path-27"></use>
            </g>
            <g id="Combined-Shape">
                <use fill="black" fill-opacity="1" filter="url(#filter-30)" xlink:href="#path-29"></use>
                <use fill="url(#linearGradient-23)" fill-rule="evenodd" xlink:href="#path-29"></use>
            </g>
            <g id="Combined-Shape-Copy">
                <use fill="black" fill-opacity="1" filter="url(#filter-33)" xlink:href="#path-32"></use>
                <use fill="url(#linearGradient-31)" fill-rule="evenodd" xlink:href="#path-32"></use>
            </g>
        </g>
    </g>
</svg>