<?xml version="1.0" encoding="UTF-8"?>
<svg width="23px" height="17px" viewBox="0 0 23 17" version="1.1" xmlns="http://www.w3.org/2000/svg" xmlns:xlink="http://www.w3.org/1999/xlink">
    <!-- Generator: Sketch 41.2 (35397) - http://www.bohemiancoding.com/sketch -->
    <title>VA</title>
    <desc>Created with Sketch.</desc>
    <defs>
        <linearGradient x1="50%" y1="0%" x2="50%" y2="100%" id="linearGradient-1">
            <stop stop-color="#FFFFFF" offset="0%"></stop>
            <stop stop-color="#F0F0F0" offset="100%"></stop>
        </linearGradient>
        <rect id="path-2" x="0" y="0" width="21" height="15" rx="1.5"></rect>
        <filter x="-50%" y="-50%" width="200%" height="200%" filterUnits="objectBoundingBox" id="filter-4">
            <feOffset dx="0" dy="0.5" in="SourceAlpha" result="shadowOffsetOuter1"></feOffset>
            <feGaussianBlur stdDeviation="0.5" in="shadowOffsetOuter1" result="shadowBlurOuter1"></feGaussianBlur>
            <feColorMatrix values="0 0 0 0 0   0 0 0 0 0   0 0 0 0 0  0 0 0 0.16 0" type="matrix" in="shadowBlurOuter1"></feColorMatrix>
        </filter>
        <linearGradient x1="50%" y1="0%" x2="50%" y2="100%" id="linearGradient-5">
            <stop stop-color="#FDE148" offset="0%"></stop>
            <stop stop-color="#FFDF32" offset="100%"></stop>
        </linearGradient>
        <rect id="path-6" x="0" y="0" width="21" height="15"></rect>
        <filter x="-50%" y="-50%" width="200%" height="200%" filterUnits="objectBoundingBox" id="filter-7">
            <feMorphology radius="0.25" operator="dilate" in="SourceAlpha" result="shadowSpreadOuter1"></feMorphology>
            <feOffset dx="0" dy="0" in="shadowSpreadOuter1" result="shadowOffsetOuter1"></feOffset>
            <feColorMatrix values="0 0 0 0 0   0 0 0 0 0   0 0 0 0 0  0 0 0 0.06 0" type="matrix" in="shadowOffsetOuter1"></feColorMatrix>
        </filter>
        <rect id="path-8" x="10" y="0" width="11" height="15"></rect>
        <filter x="-50%" y="-50%" width="200%" height="200%" filterUnits="objectBoundingBox" id="filter-9">
            <feMorphology radius="0.25" operator="dilate" in="SourceAlpha" result="shadowSpreadOuter1"></feMorphology>
            <feOffset dx="0" dy="0" in="shadowSpreadOuter1" result="shadowOffsetOuter1"></feOffset>
            <feColorMatrix values="0 0 0 0 0   0 0 0 0 0   0 0 0 0 0  0 0 0 0.06 0" type="matrix" in="shadowOffsetOuter1"></feColorMatrix>
        </filter>
        <linearGradient x1="50%" y1="0%" x2="50%" y2="100%" id="linearGradient-10">
            <stop stop-color="#CDCCCC" offset="0%"></stop>
            <stop stop-color="#E4E4E4" offset="100%"></stop>
        </linearGradient>
        <linearGradient x1="50%" y1="0%" x2="50%" y2="100%" id="linearGradient-11">
            <stop stop-color="#CD9D25" offset="0%"></stop>
            <stop stop-color="#ECB93A" offset="100%"></stop>
        </linearGradient>
        <rect id="path-12" x="0" y="0" width="21" height="15" rx="1.5"></rect>
        <filter x="-50%" y="-50%" width="200%" height="200%" filterUnits="objectBoundingBox" id="filter-13">
            <feOffset dx="0" dy="-0.5" in="SourceAlpha" result="shadowOffsetInner1"></feOffset>
            <feComposite in="shadowOffsetInner1" in2="SourceAlpha" operator="arithmetic" k2="-1" k3="1" result="shadowInnerInner1"></feComposite>
            <feColorMatrix values="0 0 0 0 0   0 0 0 0 0   0 0 0 0 0  0 0 0 0.04 0" type="matrix" in="shadowInnerInner1" result="shadowMatrixInner1"></feColorMatrix>
            <feOffset dx="0" dy="0.5" in="SourceAlpha" result="shadowOffsetInner2"></feOffset>
            <feComposite in="shadowOffsetInner2" in2="SourceAlpha" operator="arithmetic" k2="-1" k3="1" result="shadowInnerInner2"></feComposite>
            <feColorMatrix values="0 0 0 0 1   0 0 0 0 1   0 0 0 0 1  0 0 0 0.12 0" type="matrix" in="shadowInnerInner2" result="shadowMatrixInner2"></feColorMatrix>
            <feMerge>
                <feMergeNode in="shadowMatrixInner1"></feMergeNode>
                <feMergeNode in="shadowMatrixInner2"></feMergeNode>
            </feMerge>
        </filter>
        <linearGradient x1="50%" y1="0%" x2="50%" y2="100%" id="linearGradient-14">
            <stop stop-color="#F5252B" offset="0%"></stop>
            <stop stop-color="#F6151C" offset="100%"></stop>
        </linearGradient>
    </defs>
    <g id="Flag-Kit" stroke="none" stroke-width="1" fill="none" fill-rule="evenodd">
        <g id="VA">
            <g id="BE-Copy-7" transform="translate(1.000000, 1.000000)">
                <mask id="mask-3" fill="white">
                    <use xlink:href="#path-2"></use>
                </mask>
                <g id="Mask">
                    <use fill="black" fill-opacity="1" filter="url(#filter-4)" xlink:href="#path-2"></use>
                    <use fill="url(#linearGradient-1)" fill-rule="evenodd" xlink:href="#path-2"></use>
                </g>
                <g id="Rectangle-2-Copy-2" mask="url(#mask-3)">
                    <use fill="black" fill-opacity="1" filter="url(#filter-7)" xlink:href="#path-6"></use>
                    <use fill="url(#linearGradient-5)" fill-rule="evenodd" xlink:href="#path-6"></use>
                </g>
                <g id="Rectangle-2" mask="url(#mask-3)">
                    <use fill="black" fill-opacity="1" filter="url(#filter-9)" xlink:href="#path-8"></use>
                    <use fill="url(#linearGradient-1)" fill-rule="evenodd" xlink:href="#path-8"></use>
                </g>
                <g id="Group" mask="url(#mask-3)">
                    <g transform="translate(15.500000, 8.000000) scale(1, -1) translate(-15.500000, -8.000000) translate(11.000000, 4.500000)">
                        <path d="M7.68198052,2.85355339 C8.26776695,2.26776695 8.26776695,1.31801948 7.68198052,0.732233047 C7.09619408,0.146446609 6.14644661,0.146446609 5.56066017,0.732233047 C5.09884208,1.19405114 5.00110881,1.88208255 5.26746036,2.43964642 L3.08578644,4.62132034 L2.73223305,4.26776695 L2.37867966,3.91421356 L1.67157288,4.62132034 L2.02512627,4.97487373 L2.73223305,5.68198052 L3.08578644,6.03553391 L3.43933983,5.68198052 L5.97456714,3.1467532 C6.53213102,3.41310476 7.22016242,3.31537149 7.68198052,2.85355339 Z" id="Combined-Shape" fill="url(#linearGradient-10)"></path>
                        <path d="M3.02543286,3.1467532 C2.46786898,3.41310476 1.77983758,3.31537149 1.31801948,2.85355339 C0.732233047,2.26776695 0.732233047,1.31801948 1.31801948,0.732233047 C1.90380592,0.146446609 2.85355339,0.146446609 3.43933983,0.732233047 C3.90115792,1.19405114 3.99889119,1.88208255 3.73253964,2.43964642 L5.91421356,4.62132034 L6.26776695,4.26776695 L6.62132034,3.91421356 L7.32842712,4.62132034 L6.97487373,4.97487373 L6.26776695,5.68198052 L5.91421356,6.03553391 L5.56066017,5.68198052 L3.02543286,3.1467532 L3.02543286,3.1467532 Z" id="Combined-Shape-Copy" fill="url(#linearGradient-11)"></path>
                    </g>
                </g>
                <g id="Depth" mask="url(#mask-3)" fill-opacity="1" fill="black">
                    <use filter="url(#filter-13)" xlink:href="#path-12"></use>
                </g>
            </g>
            <path d="M16.5,6 C17.3284271,6 18,5.77614237 18,5.5 C18,5.22385763 17.3284271,5 16.5,5 C15.6715729,5 15,5.22385763 15,5.5 C15,5.77614237 15.6715729,6 16.5,6 Z M16.5,3.5 C16.9142136,3.5 17.25,3.38807119 17.25,3.25 C17.25,3.11192881 16.9142136,3 16.5,3 C16.0857864,3 15.75,3.11192881 15.75,3.25 C15.75,3.38807119 16.0857864,3.5 16.5,3.5 Z M16.5,4.66666667 C17.0522847,4.66666667 17.5,4.51742825 17.5,4.33333333 C17.5,4.14923842 17.0522847,4 16.5,4 C15.9477153,4 15.5,4.14923842 15.5,4.33333333 C15.5,4.51742825 15.9477153,4.66666667 16.5,4.66666667 Z" id="Combined-Shape" fill="url(#linearGradient-11)"></path>
            <path d="M14.5,11.5 C14.5,11.5 15,13 16.5,13 C18,13 18.5,11.5 18.5,11.5" id="Line" stroke="url(#linearGradient-14)" stroke-linecap="round"></path>
        </g>
    </g>
</svg>