<?xml version="1.0" encoding="UTF-8"?>
<svg width="23px" height="17px" viewBox="0 0 23 17" version="1.1" xmlns="http://www.w3.org/2000/svg" xmlns:xlink="http://www.w3.org/1999/xlink">
    <!-- Generator: Sketch 41.2 (35397) - http://www.bohemiancoding.com/sketch -->
    <title>VI</title>
    <desc>Created with Sketch.</desc>
    <defs>
        <linearGradient x1="50%" y1="0%" x2="50%" y2="100%" id="linearGradient-1">
            <stop stop-color="#FFFFFF" offset="0%"></stop>
            <stop stop-color="#F0F0F0" offset="100%"></stop>
        </linearGradient>
        <rect id="path-2" x="0" y="0" width="21" height="15" rx="1.5"></rect>
        <filter x="-50%" y="-50%" width="200%" height="200%" filterUnits="objectBoundingBox" id="filter-4">
            <feOffset dx="0" dy="0.5" in="SourceAlpha" result="shadowOffsetOuter1"></feOffset>
            <feGaussianBlur stdDeviation="0.5" in="shadowOffsetOuter1" result="shadowBlurOuter1"></feGaussianBlur>
            <feColorMatrix values="0 0 0 0 0   0 0 0 0 0   0 0 0 0 0  0 0 0 0.16 0" type="matrix" in="shadowBlurOuter1"></feColorMatrix>
        </filter>
        <rect id="path-5" x="0" y="0" width="21" height="15" rx="1.5"></rect>
        <filter x="-50%" y="-50%" width="200%" height="200%" filterUnits="objectBoundingBox" id="filter-7">
            <feOffset dx="0" dy="-0.5" in="SourceAlpha" result="shadowOffsetInner1"></feOffset>
            <feComposite in="shadowOffsetInner1" in2="SourceAlpha" operator="arithmetic" k2="-1" k3="1" result="shadowInnerInner1"></feComposite>
            <feColorMatrix values="0 0 0 0 0   0 0 0 0 0   0 0 0 0 0  0 0 0 0.04 0" type="matrix" in="shadowInnerInner1" result="shadowMatrixInner1"></feColorMatrix>
            <feOffset dx="0" dy="0.5" in="SourceAlpha" result="shadowOffsetInner2"></feOffset>
            <feComposite in="shadowOffsetInner2" in2="SourceAlpha" operator="arithmetic" k2="-1" k3="1" result="shadowInnerInner2"></feComposite>
            <feColorMatrix values="0 0 0 0 1   0 0 0 0 1   0 0 0 0 1  0 0 0 0.12 0" type="matrix" in="shadowInnerInner2" result="shadowMatrixInner2"></feColorMatrix>
            <feMerge>
                <feMergeNode in="shadowMatrixInner1"></feMergeNode>
                <feMergeNode in="shadowMatrixInner2"></feMergeNode>
            </feMerge>
        </filter>
        <linearGradient x1="50%" y1="0%" x2="50%" y2="100%" id="linearGradient-8">
            <stop stop-color="#F9CE61" offset="0%"></stop>
            <stop stop-color="#F3C44B" offset="100%"></stop>
        </linearGradient>
        <path d="M15,6.5 C15,6.5 15.0356721,7.1645154 14.1969604,7.50000007 C13.3582488,7.83548473 12.5,7.5 12.5,7.5 C12.5,7.5 13.1176381,7.86273012 13.5,8.5 C13.8823619,9.13726988 13.6823104,9.48327481 14,9.80096442 C14.3176896,10.118654 14.891321,9.90196984 15.1184082,10.1742554 C15.3454954,10.446541 15.3276517,10.7580878 15,11 C14.6723483,11.2419122 14.5683183,11.1291023 14.1969604,10.8815304 C13.8256026,10.6339584 14,10.3866573 14,10.3866573 C14,10.3866573 13.3606567,10.0556641 12.8721924,9.91265876 C12.5,9.21820075 12,9 12,9 L12,9.5 C12,9.5 13,10.0128174 13,10.5 C13,10.7129671 12.5377888,11.4164721 12,11.9169307 C11.3075456,12.561319 10.5,12.7393795 10.5,12.7393795 L10.5,5.5 L13.5,5 C13.5,5 12.1186523,3.91320801 15.25,3.15325923 C18.3813477,2.39331045 19.0296852,2.23568932 19.0296852,2.23568932 C19.5655753,2.1055217 19.7706705,2.37691757 19.4722096,2.84142443 C19.4722096,2.84142443 19.4479739,2.94003268 19,3.5 C18.5520261,4.05996732 18.4535522,4.15983583 18,4.5 C17.5464478,4.84016417 17.5464478,4.59016417 17,5 C16.4535522,5.40983583 16.433423,5.7832885 16,6 C15.566577,6.2167115 15,6 15,6 L15,6.5 Z M5.99976347,6.5 C5.99976347,6.5 5.96409137,7.1645154 6.80280303,7.50000007 C7.64151468,7.83548473 8.49976347,7.5 8.49976347,7.5 C8.49976347,7.5 7.8821254,7.86273012 7.49976347,8.5 C7.11740155,9.13726988 7.31745309,9.48327481 6.99976347,9.80096442 C6.68207386,10.118654 6.10844244,9.90196984 5.88135527,10.1742554 C5.65426811,10.446541 5.67211173,10.7580878 5.99976347,11 C6.32741522,11.2419122 6.43144515,11.1291023 6.80280303,10.8815304 C7.17416091,10.6339584 6.99976347,10.3866573 6.99976347,10.3866573 C6.99976347,10.3866573 7.63910674,10.0556641 8.12757109,9.91265876 C8.49976347,9.21820075 8.99976347,9 8.99976347,9 L8.99976347,9.5 C8.99976347,9.5 7.99976347,10.0128174 7.99976347,10.5 C7.99976347,10.7129671 8.46197466,11.4164721 8.99976347,11.9169307 C9.69221791,12.561319 10.4997635,12.7393795 10.4997635,12.7393795 L10.4997635,5.5 L7.49976347,5 C7.49976347,5 8.88111113,3.91320801 5.74976347,3.15325923 C2.61841582,2.39331045 1.97007826,2.23568932 1.97007826,2.23568932 C1.4341882,2.1055217 1.22909294,2.37691757 1.5275539,2.84142443 C1.5275539,2.84142443 1.55178962,2.94003268 1.99976347,3.5 C2.44773733,4.05996732 2.54621125,4.15983583 2.99976347,4.5 C3.4533157,4.84016417 3.4533157,4.59016417 3.99976347,5 C4.54621125,5.40983583 4.56634047,5.7832885 4.99976347,6 C5.43318648,6.2167115 5.99976347,6 5.99976347,6 L5.99976347,6.5 Z M9.24829102,4.7263794 C9.22754629,4.58717663 8.92986933,4.47579669 9.06256189,4.4416504 C9.31018067,4.37792969 9.43445033,4.29913995 9.55615234,4.08917237 C9.60964223,3.99688843 9.36896349,4.05736223 9.4473877,3.96643067 C9.85894775,3.48923362 9.94454854,3.11858888 9.68066406,2.99414063 C9.11004639,2.72503663 9.03954561,3.42050733 9.06256189,3.13402035 C9.07898416,2.92960995 9.09965972,2.76547828 9.12567139,2.68273926 C9.24051734,2.31743235 9.82315304,2.3394117 9.85894775,2.26782227 C10.0053643,1.9749892 10.1734111,1.94738939 10.5,2 C10.8265889,2.05261061 10.9751994,2.20876058 11.1051025,2.46856689 C11.2034956,2.66535309 11.1752823,2.97129105 11.2827759,3.26324463 C11.3523501,3.45220868 11.4537615,3.55686745 11.5299072,3.74591064 C11.5742682,3.85604344 11.2412561,3.63828311 11.2827759,3.74591064 C11.3961582,4.03982034 11.6794349,4.027165 11.8487549,4.29290771 C11.9181882,4.40188128 11.5930666,4.27327708 11.6143799,4.44165039 C11.6287728,4.55535339 12,5 12,5 L9,5 C9,5 9.26625821,4.84694418 9.24829102,4.7263794 Z" id="path-9"></path>
        <mask id="mask-10" maskContentUnits="userSpaceOnUse" maskUnits="objectBoundingBox" x="0" y="0" width="18.2197633" height="10.7609122" fill="white">
            <use xlink:href="#path-9"></use>
        </mask>
        <path d="M0,2.5 L0,0 C0,0 0.498466087,0.489013672 1.1628418,0.489013672 C1.82721751,0.489013672 2.5,0 2.5,0 C2.5,0 3.12659518,0.489013672 3.75109863,0.489013672 C4.37560209,0.489013672 5,0 5,0 L5,2.5 C5,5 2.5,6 2.5,6 C2.5,6 0,5 0,2.5 Z" id="path-11"></path>
        <filter x="-50%" y="-50%" width="200%" height="200%" filterUnits="objectBoundingBox" id="filter-13">
            <feOffset dx="0" dy="0.5" in="SourceAlpha" result="shadowOffsetOuter1"></feOffset>
            <feColorMatrix values="0 0 0 0 0   0 0 0 0 0   0 0 0 0 0  0 0 0 0.06 0" type="matrix" in="shadowOffsetOuter1"></feColorMatrix>
        </filter>
        <linearGradient x1="50%" y1="0%" x2="50%" y2="100%" id="linearGradient-14">
            <stop stop-color="#1D347F" offset="0%"></stop>
            <stop stop-color="#162966" offset="100%"></stop>
        </linearGradient>
        <linearGradient x1="50%" y1="0%" x2="50%" y2="100%" id="linearGradient-15">
            <stop stop-color="#BD1442" offset="0%"></stop>
            <stop stop-color="#A30B35" offset="100%"></stop>
        </linearGradient>
        <path d="M0,2 L1,2 L1,6 L0,6 L0,2 Z M2,2 L3,2 L3,6 L2,6 L2,2 Z M4,2 L5,2 L5,6 L4,6 L4,2 Z" id="path-16"></path>
        <filter x="-50%" y="-50%" width="200%" height="200%" filterUnits="objectBoundingBox" id="filter-17">
            <feMorphology radius="0.25" operator="dilate" in="SourceAlpha" result="shadowSpreadOuter1"></feMorphology>
            <feOffset dx="0" dy="0" in="shadowSpreadOuter1" result="shadowOffsetOuter1"></feOffset>
            <feColorMatrix values="0 0 0 0 0   0 0 0 0 0   0 0 0 0 0  0 0 0 0.06 0" type="matrix" in="shadowOffsetOuter1"></feColorMatrix>
        </filter>
    </defs>
    <g id="Flag-Kit" stroke="none" stroke-width="1" fill="none" fill-rule="evenodd">
        <g id="VI">
            <g id="Rectangle-1-Copy-3" transform="translate(1.000000, 1.000000)">
                <mask id="mask-3" fill="white">
                    <use xlink:href="#path-2"></use>
                </mask>
                <g id="Mask">
                    <use fill="black" fill-opacity="1" filter="url(#filter-4)" xlink:href="#path-2"></use>
                    <use fill="url(#linearGradient-1)" fill-rule="evenodd" xlink:href="#path-2"></use>
                </g>
                <mask id="mask-6" fill="white">
                    <use xlink:href="#path-5"></use>
                </mask>
                <g id="Depth" fill-opacity="1" fill="black">
                    <use filter="url(#filter-7)" xlink:href="#path-5"></use>
                </g>
                <path d="M16.5706787,6.62023926 L13.5,12.5" id="Line" stroke="#1583C4" stroke-width="0.5" stroke-linecap="round" mask="url(#mask-6)"></path>
                <path d="M16.979248,7.96533203 L13.5,12.5" id="Line-Copy-2" stroke="#1583C4" stroke-width="0.5" stroke-linecap="round" mask="url(#mask-6)"></path>
                <path d="M15.4555664,7.5 L13.5,12.5" id="Line-Copy" stroke="#1583C4" stroke-width="0.5" stroke-linecap="round" mask="url(#mask-6)"></path>
                <path d="M4.5,6.5 C4.5,6.5 5.01257683,8.18762805 5.5,9 C6.01257683,9.85429472 7.5,11.5 7.5,11.5" id="Line-Copy-3" stroke="#409347" stroke-width="0.5" stroke-linecap="round" mask="url(#mask-6)"></path>
                <path d="M19.5,6.5 L19.5,9" id="Line" stroke="#1583C4" stroke-linecap="round" stroke-linejoin="round" mask="url(#mask-6)"></path>
                <polyline id="Line" stroke="#1583C4" stroke-linecap="round" stroke-linejoin="round" mask="url(#mask-6)" points="1.5 6.5 2.5 9 3.5 6.5"></polyline>
                <g id="Combined-Shape" mask="url(#mask-6)" stroke="#000000" stroke-opacity="0.08" fill="url(#linearGradient-8)">
                    <use mask="url(#mask-10)" xlink:href="#path-9"></use>
                </g>
                <g id="Group" mask="url(#mask-6)">
                    <g transform="translate(8.000000, 4.000000)">
                        <mask id="mask-12" fill="white">
                            <use xlink:href="#path-11"></use>
                        </mask>
                        <g id="Mask" stroke="none" fill="none">
                            <use fill="black" fill-opacity="1" filter="url(#filter-13)" xlink:href="#path-11"></use>
                            <use fill="url(#linearGradient-1)" fill-rule="evenodd" xlink:href="#path-11"></use>
                        </g>
                        <rect id="Rectangle-1313" stroke="none" fill="url(#linearGradient-14)" fill-rule="evenodd" mask="url(#mask-12)" x="0" y="0" width="5" height="2"></rect>
                        <g id="Combined-Shape" stroke="none" fill="none" mask="url(#mask-12)">
                            <use fill="black" fill-opacity="1" filter="url(#filter-17)" xlink:href="#path-16"></use>
                            <use fill="url(#linearGradient-15)" fill-rule="evenodd" xlink:href="#path-16"></use>
                        </g>
                    </g>
                </g>
            </g>
        </g>
    </g>
</svg>