<?xml version="1.0" encoding="UTF-8"?>
<svg width="23px" height="17px" viewBox="0 0 23 17" version="1.1" xmlns="http://www.w3.org/2000/svg" xmlns:xlink="http://www.w3.org/1999/xlink">
    <!-- Generator: Sketch 41.2 (35397) - http://www.bohemiancoding.com/sketch -->
    <title>ZM</title>
    <desc>Created with Sketch.</desc>
    <defs>
        <linearGradient x1="50%" y1="0%" x2="50%" y2="100%" id="linearGradient-1">
            <stop stop-color="#FFFFFF" offset="0%"></stop>
            <stop stop-color="#F0F0F0" offset="100%"></stop>
        </linearGradient>
        <rect id="path-2" x="0" y="0" width="21" height="15" rx="1.5"></rect>
        <filter x="-50%" y="-50%" width="200%" height="200%" filterUnits="objectBoundingBox" id="filter-4">
            <feOffset dx="0" dy="0.5" in="SourceAlpha" result="shadowOffsetOuter1"></feOffset>
            <feGaussianBlur stdDeviation="0.5" in="shadowOffsetOuter1" result="shadowBlurOuter1"></feGaussianBlur>
            <feColorMatrix values="0 0 0 0 0   0 0 0 0 0   0 0 0 0 0  0 0 0 0.16 0" type="matrix" in="shadowBlurOuter1"></feColorMatrix>
        </filter>
        <linearGradient x1="50%" y1="100%" x2="50%" y2="3.061617e-15%" id="linearGradient-5">
            <stop stop-color="#2A8815" offset="0%"></stop>
            <stop stop-color="#35A51C" offset="100%"></stop>
        </linearGradient>
        <rect id="path-6" x="0" y="0" width="21" height="15"></rect>
        <filter x="-50%" y="-50%" width="200%" height="200%" filterUnits="objectBoundingBox" id="filter-7">
            <feOffset dx="0" dy="0.5" in="SourceAlpha" result="shadowOffsetOuter1"></feOffset>
            <feGaussianBlur stdDeviation="0.5" in="shadowOffsetOuter1" result="shadowBlurOuter1"></feGaussianBlur>
            <feColorMatrix values="0 0 0 0 0   0 0 0 0 0   0 0 0 0 0  0 0 0 0.16 0" type="matrix" in="shadowBlurOuter1"></feColorMatrix>
        </filter>
        <linearGradient x1="50%" y1="0%" x2="50%" y2="100%" id="linearGradient-8">
            <stop stop-color="#F08A34" offset="0%"></stop>
            <stop stop-color="#EC7E21" offset="100%"></stop>
        </linearGradient>
        <path d="M16.1957397,3.6239624 C16.1957397,3.6239624 15.7925991,3.77693009 15.3621827,3.62396231 C15.0196689,3.50223465 14.6752552,3.09044022 14.3922729,2.9473877 C14.2282057,2.86444882 14.5326538,2.46911625 14.2079468,2.57580571 C13.8832397,2.68249516 13.3528442,2.18682861 13.3528442,2.18682861 C13.3528442,2.18682861 12.8048939,1.5189209 13.6119995,1.5189209 C14.4191051,1.5189209 16.1215821,2.09881594 16.1215821,2.09881594 C16.1215821,2.09881594 16.1853303,1.79933622 16.3241578,1.66131594 C16.4629853,1.52329565 16.565926,1.39648807 16.7933961,1.43090822 C17.0208662,1.46532837 17.1466065,1.78576662 17.1466065,1.78576662 L16.7933961,1.92059328 L16.7933961,2.18682863 C16.7933961,2.18682863 19.1547325,1.4626417 19.7128906,1.5189209 C20.2710488,1.57520009 19.8218249,2.18758725 19.4848633,2.57580566 C19.3545218,2.72597403 18.9289552,3.03192214 18.6702271,2.78662113 C18.4114991,2.54132013 18.5074741,3.05183429 18.2393188,3.21664429 C17.802004,3.48542085 17.6378414,3.73174013 17.4874878,3.80340576 C17.3371342,3.87507139 17.0083008,3.80340576 17.0083008,3.80340576 L17.1043701,4.04992676 C17.1043701,4.04992676 17.1312984,4.34621467 17.0083008,4.46435547 C16.8853032,4.58249626 16.7997934,4.66581581 16.5,4.63043213 C16.2002066,4.59504845 16.0587347,4.67027965 15.9590454,4.34051514 C15.8593561,4.01075062 16.1957397,3.6239624 16.1957397,3.6239624 Z M16.442688,3.28240967 L16.7818604,3.77026367 L16.442688,4.05389404 L16.442688,3.28240967 Z" id="path-9"></path>
        <filter x="-50%" y="-50%" width="200%" height="200%" filterUnits="objectBoundingBox" id="filter-10">
            <feOffset dx="0" dy="0.5" in="SourceAlpha" result="shadowOffsetOuter1"></feOffset>
            <feColorMatrix values="0 0 0 0 0   0 0 0 0 0   0 0 0 0 0  0 0 0 0.06 0" type="matrix" in="shadowOffsetOuter1"></feColorMatrix>
        </filter>
        <linearGradient x1="50%" y1="0%" x2="50%" y2="100%" id="linearGradient-11">
            <stop stop-color="#F58D36" offset="0%"></stop>
            <stop stop-color="#EC7E21" offset="100%"></stop>
        </linearGradient>
        <linearGradient x1="50%" y1="0%" x2="50%" y2="100%" id="linearGradient-12">
            <stop stop-color="#262626" offset="0%"></stop>
            <stop stop-color="#0C0C0C" offset="100%"></stop>
        </linearGradient>
        <linearGradient x1="50%" y1="0%" x2="50%" y2="100%" id="linearGradient-13">
            <stop stop-color="#ED322B" offset="0%"></stop>
            <stop stop-color="#DB261F" offset="100%"></stop>
        </linearGradient>
        <rect id="path-14" x="0" y="0" width="21" height="15" rx="1.5"></rect>
        <filter x="-50%" y="-50%" width="200%" height="200%" filterUnits="objectBoundingBox" id="filter-15">
            <feOffset dx="0" dy="-0.5" in="SourceAlpha" result="shadowOffsetInner1"></feOffset>
            <feComposite in="shadowOffsetInner1" in2="SourceAlpha" operator="arithmetic" k2="-1" k3="1" result="shadowInnerInner1"></feComposite>
            <feColorMatrix values="0 0 0 0 0   0 0 0 0 0   0 0 0 0 0  0 0 0 0.04 0" type="matrix" in="shadowInnerInner1" result="shadowMatrixInner1"></feColorMatrix>
            <feOffset dx="0" dy="0.5" in="SourceAlpha" result="shadowOffsetInner2"></feOffset>
            <feComposite in="shadowOffsetInner2" in2="SourceAlpha" operator="arithmetic" k2="-1" k3="1" result="shadowInnerInner2"></feComposite>
            <feColorMatrix values="0 0 0 0 1   0 0 0 0 1   0 0 0 0 1  0 0 0 0.12 0" type="matrix" in="shadowInnerInner2" result="shadowMatrixInner2"></feColorMatrix>
            <feMerge>
                <feMergeNode in="shadowMatrixInner1"></feMergeNode>
                <feMergeNode in="shadowMatrixInner2"></feMergeNode>
            </feMerge>
        </filter>
    </defs>
    <g id="Flag-Kit" stroke="none" stroke-width="1" fill="none" fill-rule="evenodd">
        <g id="ZM">
            <g id="SUI" transform="translate(1.000000, 1.000000)">
                <mask id="mask-3" fill="white">
                    <use xlink:href="#path-2"></use>
                </mask>
                <g id="Mask">
                    <use fill="black" fill-opacity="1" filter="url(#filter-4)" xlink:href="#path-2"></use>
                    <use fill="url(#linearGradient-1)" fill-rule="evenodd" xlink:href="#path-2"></use>
                </g>
                <g id="Mask-Copy" mask="url(#mask-3)">
                    <use fill="black" fill-opacity="1" filter="url(#filter-7)" xlink:href="#path-6"></use>
                    <use fill="url(#linearGradient-5)" fill-rule="evenodd" xlink:href="#path-6"></use>
                </g>
                <g id="Combined-Shape" mask="url(#mask-3)">
                    <use fill="black" fill-opacity="1" filter="url(#filter-10)" xlink:href="#path-9"></use>
                    <use fill="url(#linearGradient-8)" fill-rule="evenodd" xlink:href="#path-9"></use>
                </g>
                <rect id="Rectangle-1349" fill="url(#linearGradient-11)" mask="url(#mask-3)" x="18" y="6" width="3" height="9"></rect>
                <rect id="Rectangle-1349-Copy" fill="url(#linearGradient-12)" mask="url(#mask-3)" x="15" y="6" width="3" height="9"></rect>
                <rect id="Rectangle-1349-Copy-2" fill="url(#linearGradient-13)" mask="url(#mask-3)" x="12" y="6" width="3" height="9"></rect>
                <g id="Depth" mask="url(#mask-3)" fill-opacity="1" fill="black">
                    <use filter="url(#filter-15)" xlink:href="#path-14"></use>
                </g>
            </g>
        </g>
    </g>
</svg>