<?xml version="1.0" ?><!DOCTYPE svg  PUBLIC '-//W3C//DTD SVG 1.1//EN'  'http://www.w3.org/Graphics/SVG/1.1/DTD/svg11.dtd'><svg enable-background="new 0 0 512 512" height="512px" id="Layer_1" version="1.1" viewBox="0 0 512 512" width="512px" xml:space="preserve" xmlns="http://www.w3.org/2000/svg" xmlns:xlink="http://www.w3.org/1999/xlink"><path d="M325.711,269l107.407-107.407c19.526-19.526,19.526-51.185,0-70.711c-19.527-19.526-51.185-19.525-70.711,0  L255,198.289L147.593,90.882c-19.526-19.524-51.184-19.525-70.711,0c-19.526,19.526-19.526,51.185,0,70.711L184.289,269  L76.882,376.407c-31.602,31.603-8.777,85.355,35.355,85.355c12.796,0,25.592-4.882,35.355-14.645L255,339.711l107.407,107.407  c19.527,19.526,51.184,19.526,70.711,0c19.526-19.526,19.526-51.185,0-70.711L325.711,269z" fill="#E83E42"/></svg>