<?xml version="1.0" ?><!DOCTYPE svg  PUBLIC '-//W3C//DTD SVG 1.1//EN'  'http://www.w3.org/Graphics/SVG/1.1/DTD/svg11.dtd'><svg enable-background="new 0 0 512 512" height="512px" id="Layer_1" version="1.1" viewBox="0 0 512 512" width="512px" xml:space="preserve" xmlns="http://www.w3.org/2000/svg" xmlns:xlink="http://www.w3.org/1999/xlink"><g id="bill_x5F_reciept_x5F_check"><path d="M452.75,60.517L424.125,21.72c-6.6-11.432-17.337-11.432-23.938,0l-28.719,38.797   c-6.6,11.432-17.384,11.432-23.984,0L318.742,21.72c-6.6-11.432-17.396-11.432-23.996,0l-28.748,38.797   c-6.6,11.432-17.399,11.432-23.999,0L213.25,21.72c-6.6-11.432-17.4-11.432-24,0L160.5,60.517c-6.6,11.432-17.4,11.432-24,0   L107.75,21.72c-6.6-11.432-17.65-11.432-24.25,0l-28,37.065V448c0,26.4,22.1,48.5,48.5,48.5h303c26.4,0,47.5-22.1,47.5-48.5V63.478   C454.5,62.595,453.381,61.609,452.75,60.517z M422.5,448c0,8.673-6.827,16.5-15.5,16.5H104c-8.673,0-16.5-7.827-16.5-16.5V69.437   l7.93-10.258l14.368,19.22c8.981,14.252,23.318,22.691,38.639,22.691s29.627-8.439,38.608-22.691l14.189-19.125l14.181,19.125   c8.981,14.252,23.261,22.691,38.581,22.691s29.598-8.441,38.579-22.692l14.174-19.125l14.173,19.125   c8.981,14.251,23.257,22.692,38.577,22.692s29.596-8.441,38.577-22.692L412,59.273l10.5,14.507V448z" fill="#333333"/><rect fill="#F37737" height="30" width="30" x="341.5" y="208.5"/><rect fill="#333333" height="30" width="174" x="137.5" y="208.5"/><rect fill="#333333" height="30" width="234" x="137.5" y="148.5"/><path d="M269.314,280.021c5.931-5.206,13.795-9.521,23.43-11.521H137.5v30h119.978   C259.661,290.5,263.611,285.023,269.314,280.021z" fill="#333333"/><path d="M255.5,356.999l2.439,1.501h26.359c-3.736-2-7.074-4.279-9.972-6.452   c-6.465-4.85-11.284-10.328-14.319-16.53c-1.078-2.201-1.958-5.018-2.654-7.018H137.5v30h118V356.999z" fill="#333333"/><path d="M260.389,412.534l-4.889-2.339V388.5h-118v30h138.805C271.026,416.5,265.581,414.785,260.389,412.534z" fill="#333333"/><path d="M308.031,415.5c-15.347-1-30.531-4.389-44.531-10.555v-34.899c8,4.136,17.044,7.587,26.575,10.354   c9.529,2.769,17.947,4.152,25.165,4.152c5.955,0,10.34-0.718,13.109-2.155c2.767-1.436,4.163-3.837,4.163-7.2   c0-2.312-0.994-4.274-2.991-5.887c-1.997-1.611-5.324-3.432-9.983-5.466c-4.661-2.032-10.949-4.484-18.867-7.358   c-8.9-3.293-16.082-6.99-21.548-11.089c-5.466-4.1-9.444-8.689-11.931-13.771c-2.488-5.08-3.731-11.404-3.731-18.973   c0-11.563,3.949-20.603,11.378-27.119c7.427-6.517,18.662-10.546,33.662-12.089V259.5h21v13.735   c14,0.772,28.139,4.205,42.295,10.301l-12.437,29.958c-14.646-6.586-27.819-9.881-39.592-9.881c-5.607,0-9.531,0.684-11.808,2.05   c-2.278,1.366-3.407,3.382-3.407,6.044c0,2.312,0.828,4.223,2.475,5.729c1.646,1.508,4.504,3.19,8.569,5.046   c4.063,1.857,9.706,4.012,16.925,6.464c14.645,5.187,25.158,11.089,31.535,17.712c6.376,6.622,9.566,15.154,9.566,25.596   c0,11.773-3.876,21.338-11.339,28.696S344.5,412.864,329.5,414.616V434.5h-21v-19H308.031z" fill="#F37737"/></g></svg>