<?xml version="1.0" ?><!DOCTYPE svg  PUBLIC '-//W3C//DTD SVG 1.1//EN'  'http://www.w3.org/Graphics/SVG/1.1/DTD/svg11.dtd'><svg enable-background="new 0 0 512 512" height="512px" id="Layer_1" version="1.1" viewBox="0 0 512 512" width="512px" xml:space="preserve" xmlns="http://www.w3.org/2000/svg" xmlns:xlink="http://www.w3.org/1999/xlink"><g id="free_x5F_tag_x5F_label"><g><path d="M171.329,241.107l-4.99,1.794l7.684,21.367l4.734-1.702c8.828-3.175,11.839-8.664,9.032-16.469    C185.473,239.658,179.986,237.993,171.329,241.107z" fill="#333333"/><path d="M411.415,157.415c12.779-4.653,26.779,0.86,33.146,12.408c7.792,2.738,15.094,6.818,21.706,12.017    c1.027-11.798-4.838-24.831-14.688-31.084l-84.433-53.605c-11.568-7.344-30.627-9.86-42.353-5.59L29.204,199.19    c-11.726,4.27-17.228,19.004-12.225,32.743l63.064,173.196c5.003,13.739,18.69,21.487,30.416,17.217l295.588-107.628    c11.726-4.269,24.706-18.451,28.843-31.513l21.505-67.897c-4.534-5.749-9.924-10.388-15.902-13.578    c-2.814,2.973-6.338,5.359-10.446,6.855c-14.13,5.145-29.756-2.139-34.901-16.269C390.001,178.186,397.285,162.56,411.415,157.415    z M122.084,342.839l-24.886,8.949l-33.634-93.529l55.273-19.877l7.293,20.28L95.743,269.59l6.419,17.849l28.02-10.076l7.293,20.28    l-28.02,10.076L122.084,342.839z M219.323,307.87l-32.071-26.902l-6.397,2.301l12.239,34.034l-25.269,9.087l-33.635-93.53    l30.643-11.02c25.419-9.141,41.441-4.499,48.067,13.925c3.896,10.834,1.621,21.116-6.824,30.847l41.907,30.951L219.323,307.87z     M256.492,294.504l-33.634-93.529l55.529-19.969l7.293,20.28l-30.259,10.882l5.291,14.714l28.02-10.076l7.293,20.28l-28.02,10.076    l6.349,17.657l30.259-10.882l7.408,20.599L256.492,294.504z M328.398,268.646l-33.634-93.529l55.529-19.969l7.293,20.28    l-30.259,10.882l5.291,14.714l28.02-10.076l7.293,20.28l-28.02,10.076l6.35,17.657l30.259-10.882l7.408,20.599L328.398,268.646z" fill="#333333"/></g><path d="M421.427,173.857c-6.532,0-12.861,1.032-18.884,2.957c-1.368,4.008-1.439,8.486,0.119,12.766   c0.339,0.931,0.747,1.823,1.216,2.674c5.537-2.199,11.432-3.396,17.549-3.396c31.826,0,57.719,32.14,57.719,71.645   s-25.893,71.645-57.719,71.645c-8.252,0-16.098-2.176-23.204-6.065l-17.378,6.328c11.591,9.305,25.553,14.737,40.581,14.737   c40.162,0,72.719-38.792,72.719-86.644S461.589,173.857,421.427,173.857z" fill="#F37737"/></g></svg>