<?xml version="1.0" ?><!DOCTYPE svg  PUBLIC '-//W3C//DTD SVG 1.1//EN'  'http://www.w3.org/Graphics/SVG/1.1/DTD/svg11.dtd'><svg enable-background="new -0.001 0 512 512" height="512px" version="1.1" viewBox="-0.001 0 512 512" width="512px" xml:space="preserve" xmlns="http://www.w3.org/2000/svg" xmlns:xlink="http://www.w3.org/1999/xlink"><defs/><radialGradient cx="298.187" cy="107.4688" fx="299.9896" fy="107.4761" gradientUnits="userSpaceOnUse" id="SVGID_1_" r="429.1797"><stop offset="0.0235" style="stop-color:#676666"/><stop offset="0.3803" style="stop-color:#343434"/><stop offset="0.4994" style="stop-color:#262525"/><stop offset="0.7562" style="stop-color:#020202"/><stop offset="0.7746" style="stop-color:#000000"/><stop offset="1" style="stop-color:#676666"/></radialGradient><path d="M511.997,256c0,141.385-114.611,256-255.999,256C114.614,512,0,397.385,0,256  C0,114.615,114.614,0,255.998,0C397.385,0,511.997,114.615,511.997,256z" fill="url(#SVGID_1_)"/><defs><filter filterUnits="userSpaceOnUse" height="129.775" id="Adobe_OpacityMaskFilter" width="163.493" x="60.617" y="55.855"><feColorMatrix type="matrix" values="1 0 0 0 0  0 1 0 0 0  0 0 1 0 0  0 0 0 1 0"/></filter></defs><mask height="129.775" id="SVGID_2_" maskUnits="userSpaceOnUse" width="163.493" x="60.617" y="55.855"><g filter="url(#Adobe_OpacityMaskFilter)"><linearGradient gradientUnits="userSpaceOnUse" id="SVGID_3_" x1="191.103" x2="115.7122" y1="-3.1104" y2="167.087"><stop offset="0" style="stop-color:#FFFFFF"/><stop offset="0.0857" style="stop-color:#F0EEEE"/><stop offset="0.2348" style="stop-color:#C9C4C3"/><stop offset="0.4293" style="stop-color:#908887"/><stop offset="0.6619" style="stop-color:#4F4645"/><stop offset="0.9238" style="stop-color:#100D0E"/><stop offset="1" style="stop-color:#000000"/></linearGradient><path d="M131.128,57.319c0,0-48.939,26.127-70.511,95.385l70.511,32.926c0,0,32.811-105.15,92.982-121.266    C224.11,64.364,164.45,52.479,131.128,57.319z" fill="url(#SVGID_3_)"/></g></mask><path d="M131.128,57.319c0,0-48.939,26.127-70.511,95.385l70.511,32.926  c0,0,32.811-105.15,92.982-121.266C224.11,64.364,180.067,51.628,131.128,57.319z" fill="#FFFFFF" mask="url(#SVGID_2_)"/><radialGradient cx="299.5649" cy="140.1694" gradientUnits="userSpaceOnUse" id="SVGID_4_" r="334.7671"><stop offset="0.1596" style="stop-color:#FBFAF8"/><stop offset="0.3803" style="stop-color:#E2E2D4"/><stop offset="0.5107" style="stop-color:#C2BFB1"/><stop offset="0.7919" style="stop-color:#797166"/><stop offset="0.8121" style="stop-color:#736C61"/><stop offset="1" style="stop-color:#C2C1A3"/></radialGradient><path d="M440.139,186.168c0,65.372-52.996,118.363-118.369,118.363s-118.367-52.991-118.367-118.363  c0-65.376,52.994-118.368,118.367-118.368S440.139,120.792,440.139,186.168z" fill="url(#SVGID_4_)"/><path d="M301.407,186.124c-13.113-6.309-19.824-16.933-20.221-28.589c-0.768-22.496,18.969-38.117,45.555-39.023  c31.086-1.061,44.584,16.497,45.137,32.653c0.389,11.453-5.361,22.91-18.432,29.908l0.02,0.614  c13.258,4.461,25.086,15.114,25.666,32.088c0.824,24.133-18.865,41.184-49.746,42.238c-33.744,1.152-49.936-17.337-50.551-35.334  c-0.543-15.953,8.283-27.31,22.588-34.146L301.407,186.124z M347.516,217.31c-0.398-11.657-9.43-18.311-21.607-21.171  c-10.127,3.212-15.807,10.777-15.479,20.389c0.123,9.619,7.793,18.366,19.449,17.968  C340.719,234.127,347.836,226.717,347.516,217.31z M310.6,155.507c0.307,8.999,8.479,14.453,19.225,17.362  c7.088-2.29,13.203-9.05,12.926-17.23c-0.287-8.385-5.27-16.406-16.723-16.015C315.395,139.987,310.321,147.327,310.6,155.507z" fill="#1A1A19"/></svg>