<?xml version="1.0" encoding="utf-8"?>
<!-- Generator: Adobe Illustrator 19.0.0, SVG Export Plug-In . SVG Version: 6.00 Build 0)  -->
<svg version="1.1" id="Darts" xmlns="http://www.w3.org/2000/svg" xmlns:xlink="http://www.w3.org/1999/xlink" x="0px" y="0px"
	 viewBox="0 0 841.9 595.3" style="enable-background:new 0 0 841.9 595.3;" xml:space="preserve">
<style type="text/css">
	.st0{display:none;fill:#FFFFFF;}
	.st1{fill:#009444;}
	.st2{fill:#ED1C24;}
	.st3{fill:#FFFFFF;}
	.st4{fill:url(#SVGID_1_);}
	.st5{fill:url(#SVGID_2_);}
	.st6{fill:url(#SVGID_3_);}
	.st7{fill:url(#SVGID_4_);}
	.st8{fill:url(#SVGID_5_);}
	.st9{fill:url(#SVGID_6_);}
	.st10{fill:url(#SVGID_7_);}
	.st11{fill:url(#SVGID_8_);}
	.st12{fill:url(#SVGID_9_);}
	.st13{fill:url(#SVGID_10_);}
	.st14{fill:url(#SVGID_11_);}
	.st15{fill:url(#SVGID_12_);}
	.st16{fill:url(#SVGID_13_);}
	.st17{fill:url(#SVGID_14_);}
	.st18{fill:url(#SVGID_15_);}
	.st19{fill:url(#SVGID_16_);}
	.st20{fill:url(#SVGID_17_);}
	.st21{fill:url(#SVGID_18_);}
	.st22{fill:url(#SVGID_19_);}
	.st23{fill:url(#SVGID_20_);}
	.st24{fill:url(#SVGID_21_);}
	.st25{fill:url(#SVGID_22_);}
	.st26{fill:url(#SVGID_23_);}
	.st27{fill:url(#SVGID_24_);}
	.st28{fill:url(#SVGID_25_);}
	.st29{fill:url(#SVGID_26_);}
</style>
<g>
	<circle cx="416.8" cy="289.3" r="191.8"/>
	<path class="st0" d="M354.7,442.4c-0.1,0-3.4,1.8-3.4,1.8l-0.5-2l4.2-2.2h2.2v19.2h-2.5V442.4z"/>
	<path class="st0" d="M365.7,457.3c0.6,0.1,1.2,0,2.1-0.1c1.5-0.2,2.9-0.8,4-1.9c1.3-1.2,2.2-2.8,2.5-5.1h-0.1c-1.1,1.3-2.6,2-4.5,2
		c-3.4,0-5.6-2.6-5.6-5.9c0-3.6,2.6-6.8,6.6-6.8s6.3,3.2,6.3,8.1c0,4.2-1.4,7.1-3.3,9c-1.5,1.4-3.5,2.3-5.6,2.6
		c-0.9,0.1-1.8,0.2-2.4,0.1V457.3z M366.6,446.3c0,2.4,1.4,4.1,3.7,4.1c1.7,0,3.1-0.9,3.8-2c0.1-0.3,0.2-0.5,0.2-1
		c0-3.3-1.2-5.8-4-5.8C368.2,441.6,366.6,443.6,366.6,446.3z"/>
	<path class="st0" d="M507.3,145.1c-0.1,0-3.4,1.8-3.4,1.8l-0.5-2l4.2-2.2h2.2v19.2h-2.5V145.1z"/>
	<path class="st0" d="M520.4,151.8c-2.2-1-3.1-2.7-3.1-4.3c0-3,2.6-5.1,6-5.1c3.7,0,5.6,2.3,5.6,4.7c0,1.6-0.8,3.4-3.2,4.5v0.1
		c2.4,0.9,3.9,2.7,3.9,5c0,3.4-2.9,5.6-6.5,5.6c-4,0-6.4-2.4-6.4-5.2C516.6,154.6,518,152.9,520.4,151.8L520.4,151.8z M526.9,156.9
		c0-2.3-1.6-3.5-4.2-4.2c-2.2,0.6-3.5,2.2-3.5,4c-0.1,1.9,1.4,3.6,3.8,3.6C525.4,160.3,526.9,158.9,526.9,156.9z M519.8,147.3
		c0,1.9,1.4,3,3.7,3.5c1.7-0.6,2.9-1.7,2.9-3.5c0-1.5-0.9-3.1-3.3-3.1C521,144.2,519.8,145.6,519.8,147.3z"/>
	<path class="st0" d="M458.3,444.7c-0.1,0-3.4,1.8-3.4,1.8l-0.5-2l4.2-2.2h2.2v19.2h-2.5V444.7z"/>
	<path class="st0" d="M480.3,442.3v1.7l-8.4,17.5h-2.7l8.3-17c0-0.1-9.4-0.1-9.4-0.1v-2.2H480.3z"/>
	<path class="st0" d="M270.4,380.4c-0.1,0-3.4,1.8-3.4,1.8l-0.5-2l4.2-2.2h2.2v19.2h-2.5V380.4z"/>
	<path class="st0" d="M290.8,379.8c-0.5,0-1.2,0-1.9,0.1c-4.1,0.7-6.2,3.6-6.7,6.8c1-1.2,2.6-2.2,4.7-2.2c3.4,0,5.8,2.5,5.8,6.2
		c0,3.5-2.4,6.8-6.4,6.8c-4.1,0-6.8-3.2-6.8-8.2c0-3.8,1.3-6.8,3.2-8.7c1.6-1.6,3.7-2.5,6.1-2.8c0.8-0.1,1.4-0.1,1.9-0.1V379.8z
		 M290.1,390.9c0-2.7-1.6-4.4-4-4.4c-1.6,0-3,0.9-3.8,2.4c-0.1,0.3-0.3,0.7-0.3,1.1c0,3.2,1.5,5.5,4.3,5.5
		C288.6,395.5,290.1,393.7,290.1,390.9z"/>
	<path class="st0" d="M308.3,143.2c-0.1,0-3.4,1.8-3.4,1.8l-0.5-2l4.2-2.2h2.2V160h-2.5V143.2z"/>
	<path class="st0" d="M317.8,160v-1.6l2-2c4.9-4.7,7.1-7.1,7.1-10c0-1.9-0.9-3.8-3.8-3.8c-1.7,0-3.2,0.9-4.1,1.6l-0.8-1.8
		c1.3-1.1,3.2-1.9,5.4-1.9c4.1,0,5.9,2.8,5.9,5.6c0,3.5-2.6,6.4-6.6,10.3l-1.5,1.4c0,0.1,8.6,0.1,8.6,0.1v2.2H317.8z"/>
	<path class="st0" d="M568.8,229.6c-0.1,0-3.4,1.8-3.4,1.8l-0.5-2l4.2-2.2h2.2v19.2h-2.5V229.6z"/>
	<path class="st0" d="M579,243.5c0.7,0.4,2.4,1.2,4.3,1.2c3.3,0,4.4-2.1,4.3-3.7c0-2.7-2.5-3.8-5-3.8h-1.4v-1.9h1.4
		c1.9,0,4.3-1,4.3-3.2c0-1.5-1-2.9-3.4-2.9c-1.5,0-3,0.7-3.8,1.3l-0.7-1.9c1-0.7,3-1.5,5.1-1.5c3.8,0,5.5,2.2,5.5,4.6
		c0,2-1.2,3.7-3.5,4.5c2.4,0.5,4.3,2.3,4.3,5c0,3.1-2.4,5.8-7,5.8c-2.2,0-4-0.7-5-1.3L579,243.5z"/>
	<path class="st0" d="M246.9,228.9c-0.1,0-3.4,1.8-3.4,1.8l-0.5-2l4.2-2.2h2.2v19.2h-2.5V228.9z"/>
	<path class="st0" d="M264.6,245.6v-5.3h-8.9v-1.7l8.6-12.3h2.8v11.9h2.7v2H267v5.3H264.6z M264.6,238.4V232c0-1,0-2,0.1-3h-0.1
		c-0.6,1.1-1.1,1.9-1.6,2.8l-4.7,6.5C258.3,238.4,264.6,238.4,264.6,238.4z"/>
	<path class="st0" d="M543.8,383.4c-0.1,0-3.4,1.8-3.4,1.8l-0.5-2l4.2-2.2h2.2v19.2h-2.5V383.4z"/>
	<path class="st0" d="M564.8,383.1h-7.3l-0.7,4.9c0.4-0.1,0.9-0.1,1.6-0.1c1.5,0,3,0.3,4.1,1c1.5,0.8,2.7,2.5,2.7,4.9
		c0,3.8-3,6.6-7.1,6.6c-2.1,0-3.8-0.6-4.8-1.2l0.7-2c0.8,0.5,2.4,1.1,4.1,1.1c2.4,0,4.5-1.6,4.5-4.2c0-2.5-1.7-4.2-5.5-4.2
		c-1.1,0-2,0.1-2.7,0.2l1.2-9.2h9.2V383.1z"/>
	<path class="st0" d="M405.1,129.4v-1.6l2-2c4.9-4.7,7.1-7.1,7.1-10c0-1.9-0.9-3.8-3.8-3.8c-1.7,0-3.2,0.9-4.1,1.6l-0.8-1.8
		c1.3-1.1,3.2-1.9,5.4-1.9c4.1,0,5.9,2.8,5.9,5.6c0,3.5-2.6,6.4-6.6,10.3l-1.5,1.4c0,0.1,8.6,0.1,8.6,0.1v2.2H405.1z"/>
	<path class="st0" d="M433,119.6c0,6.5-2.5,10.1-6.7,10.1c-3.8,0-6.3-3.5-6.4-9.9c0-6.5,2.8-10,6.7-10
		C430.7,109.9,433,113.5,433,119.6z M422.6,119.9c0,5,1.5,7.8,3.9,7.8c2.6,0,3.9-3.1,3.9-8c0-4.7-1.2-7.8-3.9-7.8
		C424.2,111.9,422.6,114.7,422.6,119.9z"/>
	<path class="st0" d="M469.2,120.1c-0.1,0-3.4,1.8-3.4,1.8l-0.5-2l4.2-2.2h2.2v19.2h-2.5V120.1z"/>
	<path class="st0" d="M509.5,436.1v-1.6l2-2c4.9-4.7,7.1-7.1,7.1-10c0-2-0.9-3.8-3.8-3.8c-1.7,0-3.2,0.9-4.1,1.6l-0.8-1.8
		c1.3-1.1,3.2-1.9,5.4-1.9c4.1,0,5.9,2.8,5.9,5.6c0,3.5-2.6,6.4-6.6,10.3l-1.5,1.4c0,0.1,8.6,0.1,8.6,0.1v2.2H509.5z"/>
	<path class="st0" d="M410.7,465.8c0.7,0.4,2.4,1.2,4.3,1.2c3.3,0,4.4-2.1,4.3-3.7c0-2.7-2.5-3.8-5-3.8h-1.4v-2h1.4
		c1.9,0,4.3-1,4.3-3.3c0-1.5-1-2.9-3.4-2.9c-1.5,0-3,0.7-3.8,1.3l-0.7-1.9c1-0.7,3-1.5,5-1.5c3.8,0,5.5,2.2,5.5,4.6
		c0,2-1.2,3.7-3.5,4.5c2.4,0.5,4.3,2.3,4.3,5c0,3.1-2.4,5.8-7,5.8c-2.2,0-4-0.7-5-1.3L410.7,465.8z"/>
	<path class="st0" d="M554.5,198.8v-5.3h-8.9v-1.7l8.6-12.3h2.8v11.9h2.7v2H557v5.3H554.5z M554.5,191.6v-6.4c0-1,0-2,0.1-3h-0.1
		c-0.6,1.1-1.1,1.9-1.6,2.8l-4.7,6.5C548.2,191.6,554.5,191.6,554.5,191.6z"/>
	<path class="st0" d="M372.1,122.7h-7.3l-0.7,4.9c0.4-0.1,0.9-0.1,1.6-0.1c1.5,0,3,0.3,4.1,1c1.5,0.8,2.7,2.5,2.7,4.9
		c0,3.8-3,6.6-7.1,6.6c-2.1,0-3.8-0.6-4.8-1.2l0.6-2c0.8,0.5,2.4,1.1,4.1,1.1c2.4,0,4.5-1.6,4.5-4.2c0-2.5-1.7-4.2-5.5-4.2
		c-1.1,0-2,0.1-2.7,0.2l1.2-9.2h9.2V122.7z"/>
	<path class="st0" d="M590.6,281.5c-0.5,0-1.2,0-1.9,0.1c-4.1,0.6-6.2,3.6-6.7,6.8c1-1.2,2.6-2.2,4.7-2.2c3.4,0,5.8,2.5,5.8,6.2
		c0,3.5-2.4,6.8-6.4,6.8c-4.1,0-6.8-3.2-6.8-8.2c0-3.8,1.3-6.8,3.2-8.7c1.6-1.6,3.7-2.5,6.1-2.8c0.8-0.1,1.4-0.1,1.9-0.1V281.5z
		 M589.9,292.6c0-2.7-1.6-4.4-4-4.4c-1.6,0-3,0.9-3.8,2.4c-0.1,0.3-0.3,0.7-0.3,1.1c0,3.2,1.5,5.5,4.3,5.5
		C588.4,297.2,589.9,295.4,589.9,292.6z"/>
	<path class="st0" d="M323.7,417v1.7l-8.4,17.5h-2.7l8.3-17c0-0.1-9.4-0.1-9.4-0.1V417H323.7z"/>
	<path class="st0" d="M253,340.7c-2.2-1-3.1-2.7-3.1-4.3c0-3,2.6-5.1,6-5.1c3.7,0,5.6,2.3,5.6,4.7c0,1.6-0.8,3.4-3.2,4.5v0.1
		c2.4,0.9,3.9,2.7,3.9,5c0,3.4-2.9,5.6-6.5,5.6c-4,0-6.4-2.4-6.4-5.2C249.2,343.5,250.7,341.8,253,340.7L253,340.7z M259.6,345.8
		c0-2.3-1.6-3.5-4.2-4.2c-2.2,0.7-3.5,2.2-3.5,4c-0.1,1.9,1.4,3.6,3.8,3.6C258.1,349.2,259.6,347.8,259.6,345.8z M252.4,336.2
		c0,1.9,1.4,3,3.7,3.5c1.7-0.6,2.9-1.7,2.9-3.5c0-1.5-0.9-3.1-3.2-3.1C253.6,333.1,252.4,334.5,252.4,336.2z"/>
	<path class="st0" d="M276.1,196.1c0.6,0.1,1.2,0,2.1-0.1c1.5-0.2,2.9-0.8,4-1.9c1.3-1.2,2.2-2.8,2.5-5.1h-0.1c-1.1,1.3-2.6,2-4.5,2
		c-3.4,0-5.6-2.6-5.6-5.9c0-3.6,2.6-6.8,6.6-6.8c3.9,0,6.4,3.2,6.4,8.1c0,4.2-1.4,7.1-3.3,9c-1.5,1.4-3.5,2.3-5.6,2.6
		c-0.9,0.1-1.8,0.2-2.4,0.1V196.1z M277,185.1c0,2.4,1.4,4.1,3.7,4.1c1.7,0,3.1-0.9,3.8-2c0.1-0.3,0.2-0.5,0.2-1
		c0-3.3-1.2-5.8-4-5.8C278.6,180.4,277,182.3,277,185.1z"/>
	<path class="st0" d="M569.2,334.8c-0.1,0-3.4,1.8-3.4,1.8l-0.5-2l4.2-2.2h2.2v19.2h-2.5V334.8z"/>
	<path class="st0" d="M591.5,341.8c0,6.5-2.5,10.1-6.7,10.1c-3.8,0-6.3-3.5-6.4-9.9c0-6.5,2.8-10,6.7-10
		C589.1,332.1,591.5,335.7,591.5,341.8z M581.1,342.1c0,5,1.5,7.8,3.9,7.8c2.6,0,3.9-3.1,3.9-8c0-4.7-1.2-7.8-3.9-7.8
		C582.7,334.1,581.1,336.8,581.1,342.1z"/>
	<path class="st0" d="M240,281.3c-0.1,0-3.4,1.8-3.4,1.8l-0.5-2l4.2-2.2h2.2v19.2H240V281.3z"/>
	<path class="st0" d="M255.1,281.3c-0.1,0-3.4,1.8-3.4,1.8l-0.5-2l4.2-2.2h2.2v19.2h-2.5V281.3z"/>
	<g>
		<path class="st1" d="M394.9,152.3l-1.1-7.2c-15.4,2.4-30,7.3-43.5,14.1l3.3,6.5C366.4,159.2,380.3,154.6,394.9,152.3z"/>
		<path class="st2" d="M416.6,150.6c7.4,0,14.6,0.6,21.7,1.7l1.1-7.2c-7.4-1.2-15.1-1.8-22.8-1.8c-7.8,0-15.4,0.6-22.8,1.8l1.1,7.2
			C402,151.2,409.3,150.6,416.6,150.6z"/>
		<path class="st2" d="M293,226.3l-6.5-3.3c-6.9,13.4-11.7,28-14.1,43.5l7.2,1.1C281.9,253,286.5,239.1,293,226.3z"/>
		<path class="st1" d="M318.5,191.2l-5.2-5.2c-10.8,10.8-19.9,23.2-26.9,37l6.5,3.3C299.7,213.3,308.3,201.5,318.5,191.2z"/>
		<path class="st2" d="M353.6,165.7l-3.3-6.5c-13.7,7-26.2,16.1-37,26.9l5.2,5.2C328.8,181,340.6,172.3,353.6,165.7z"/>
		<path class="st1" d="M479.6,165.7l3.3-6.5c-13.4-6.9-28-11.7-43.5-14.1l-1.1,7.2C453,154.6,466.9,159.2,479.6,165.7z"/>
		<path class="st2" d="M514.7,191.2l5.2-5.2c-10.8-10.8-23.2-19.9-37-26.9l-3.3,6.5C492.7,172.3,504.5,181,514.7,191.2z"/>
		<path class="st2" d="M553.7,267.6l7.2-1.1c-2.4-15.4-7.3-30-14.1-43.5l-6.5,3.3C546.8,239.1,551.4,253,553.7,267.6z"/>
		<path class="st1" d="M555.4,289.3c0,7.4-0.6,14.6-1.7,21.7l7.2,1.1c1.2-7.4,1.8-15.1,1.8-22.8c0-7.8-0.6-15.4-1.8-22.8l-7.2,1.1
			C554.8,274.7,555.4,281.9,555.4,289.3z"/>
		<path class="st1" d="M540.3,226.3l6.5-3.3c-7-13.7-16.1-26.2-26.9-37l-5.2,5.2C525,201.5,533.6,213.3,540.3,226.3z"/>
		<path class="st2" d="M553.7,311c-2.3,14.7-6.9,28.5-13.4,41.3l6.5,3.3c6.9-13.4,11.7-28,14.1-43.5L553.7,311z"/>
		<path class="st2" d="M479.6,413l3.3,6.5c13.7-7,26.2-16.1,37-26.9l-5.2-5.2C504.5,397.7,492.7,406.3,479.6,413z"/>
		<path class="st1" d="M438.3,426.4l1.1,7.2c15.4-2.4,30-7.3,43.5-14.1l-3.3-6.5C466.9,419.5,453,424.1,438.3,426.4z"/>
		<path class="st2" d="M416.6,428.1c-7.4,0-14.6-0.6-21.7-1.7l-1.1,7.2c7.4,1.2,15.1,1.8,22.8,1.8c7.8,0,15.4-0.6,22.8-1.8l-1.1-7.2
			C431.3,427.5,424,428.1,416.6,428.1z"/>
		<path class="st1" d="M514.7,387.4l5.2,5.2c10.8-10.8,19.9-23.2,26.9-37l-6.5-3.3C533.6,365.4,525,377.2,514.7,387.4z"/>
		<path class="st1" d="M277.9,289.3c0-7.4,0.6-14.6,1.7-21.7l-7.2-1.1c-1.2,7.4-1.8,15.1-1.8,22.8c0,7.8,0.6,15.4,1.8,22.8l7.2-1.1
			C278.5,304,277.9,296.7,277.9,289.3z"/>
		<path class="st1" d="M293,352.3l-6.5,3.3c7,13.7,16.1,26.2,26.9,37l5.2-5.2C308.3,377.2,299.7,365.4,293,352.3z"/>
		<path class="st1" d="M353.6,413l-3.3,6.5c13.4,6.9,28,11.7,43.5,14.1l1.1-7.2C380.3,424.1,366.4,419.5,353.6,413z"/>
		<path class="st2" d="M279.6,311l-7.2,1.1c2.4,15.4,7.3,30,14.1,43.5l6.5-3.3C286.5,339.6,281.9,325.7,279.6,311z"/>
		<path class="st2" d="M318.5,387.4l-5.2,5.2c10.8,10.8,23.2,19.9,37,26.9l3.3-6.5C340.6,406.3,328.8,397.7,318.5,387.4z"/>
		<path d="M416.6,199.2c4.8,0,9.5,0.4,14.1,1.1l7.6-48c-7.1-1.1-14.3-1.7-21.7-1.7c-7.4,0-14.6,0.6-21.7,1.7l7.6,48
			C407.1,199.5,411.8,199.2,416.6,199.2z"/>
		<path class="st3" d="M326.5,289.3c0-4.8,0.4-9.5,1.1-14.1l-48-7.6c-1.1,7.1-1.7,14.3-1.7,21.7c0,7.4,0.6,14.6,1.7,21.7l48-7.6
			C326.8,298.8,326.5,294.1,326.5,289.3z"/>
		<path d="M375.7,209l-22-43.3c-13,6.6-24.9,15.3-35.1,25.5l34.3,34.3C359.5,218.9,367.2,213.3,375.7,209z"/>
		<path d="M336.3,248.4l-43.3-22c-6.5,12.7-11.1,26.6-13.4,41.3l48,7.6C329.1,265.7,332,256.7,336.3,248.4z"/>
		<path class="st3" d="M352.9,225.6l-34.3-34.3c-10.2,10.2-18.9,22.1-25.5,35.1l43.3,22C340.6,239.9,346.2,232.2,352.9,225.6z"/>
		<path class="st3" d="M402.5,200.3l-7.6-48c-14.7,2.3-28.5,6.9-41.3,13.4l22,43.3C384,204.7,393,201.8,402.5,200.3z"/>
		<path class="st3" d="M497,248.4l43.3-22c-6.6-13-15.3-24.9-25.5-35.1l-34.3,34.3C487.1,232.2,492.7,239.9,497,248.4z"/>
		<path d="M505.7,275.2l48-7.6c-2.3-14.7-6.9-28.5-13.4-41.3l-43.3,22C501.2,256.7,504.2,265.7,505.7,275.2z"/>
		<path class="st3" d="M457.6,209l22-43.3c-12.7-6.5-26.6-11.1-41.3-13.4l-7.6,48C440.3,201.8,449.3,204.7,457.6,209z"/>
		<path d="M480.4,225.6l34.3-34.3c-10.2-10.2-22.1-18.9-35.1-25.5l-22,43.3C466.1,213.3,473.8,218.9,480.4,225.6z"/>
		<path d="M457.6,369.7l22,43.3c13-6.7,24.9-15.3,35.1-25.5l-34.3-34.3C473.8,359.8,466.1,365.4,457.6,369.7z"/>
		<path d="M327.6,303.4l-48,7.6c2.3,14.7,6.9,28.5,13.4,41.3l43.3-22C332,322,329.1,313,327.6,303.4z"/>
		<path d="M497,330.3l43.3,22c6.5-12.7,11.1-26.6,13.4-41.3l-48-7.6C504.2,313,501.2,322,497,330.3z"/>
		<path class="st3" d="M430.8,378.4l7.6,48c14.7-2.3,28.5-6.9,41.3-13.4l-22-43.3C449.3,373.9,440.3,376.9,430.8,378.4z"/>
		<path class="st3" d="M553.7,267.6l-48,7.6c0.7,4.6,1.1,9.3,1.1,14.1c0,4.8-0.4,9.5-1.1,14.1l48,7.6c1.1-7.1,1.7-14.3,1.7-21.7
			C555.4,281.9,554.8,274.7,553.7,267.6z"/>
		<path class="st3" d="M480.4,353.1l34.3,34.3c10.2-10.2,18.9-22.1,25.5-35.1l-43.3-22C492.7,338.7,487.1,346.4,480.4,353.1z"/>
		<path d="M416.6,379.5c-4.8,0-9.5-0.4-14.1-1.1l-7.6,48c7.1,1.1,14.3,1.7,21.7,1.7c7.4,0,14.6-0.6,21.7-1.7l-7.6-48
			C426.2,379.1,421.4,379.5,416.6,379.5z"/>
		<path class="st3" d="M336.3,330.3l-43.3,22c6.7,13,15.3,24.9,25.5,35.1l34.3-34.3C346.2,346.4,340.6,338.7,336.3,330.3z"/>
		<path d="M352.9,353.1l-34.3,34.3c10.2,10.2,22.1,18.9,35.1,25.5l22-43.3C367.2,365.4,359.5,359.8,352.9,353.1z"/>
		<path class="st3" d="M375.7,369.7l-22,43.3c12.7,6.5,26.6,11.1,41.3,13.4l7.6-48C393,376.9,384,373.9,375.7,369.7z"/>
		<path class="st2" d="M379,215.4l-3.3-6.5c-8.5,4.3-16.2,9.9-22.8,16.6l5.1,5.1C364.1,224.5,371.2,219.4,379,215.4z"/>
		<path class="st2" d="M342.7,251.7l-6.4-3.3c-4.2,8.3-7.2,17.3-8.7,26.8l7.1,1.1C336.1,267.6,338.8,259.3,342.7,251.7z"/>
		<path class="st1" d="M333.7,289.3c0-4.4,0.4-8.7,1-13l-7.1-1.1c-0.7,4.6-1.1,9.3-1.1,14.1c0,4.8,0.4,9.5,1.1,14.1l7.1-1.1
			C334,298.1,333.7,293.7,333.7,289.3z"/>
		<path class="st1" d="M403.7,207.4l-1.1-7.1c-9.5,1.5-18.6,4.5-26.8,8.7l3.3,6.5C386.6,211.5,394.9,208.8,403.7,207.4z"/>
		<path class="st1" d="M358,230.7l-5.1-5.1c-6.7,6.7-12.3,14.4-16.6,22.8l6.4,3.3C346.7,243.9,351.9,236.8,358,230.7z"/>
		<path class="st2" d="M334.7,302.3l-7.1,1.1c1.5,9.5,4.5,18.6,8.7,26.8l6.4-3.3C338.8,319.4,336.1,311.1,334.7,302.3z"/>
		<path class="st2" d="M475.3,230.7l5.1-5.1c-6.7-6.7-14.4-12.3-22.8-16.6l-3.3,6.5C462.1,219.4,469.2,224.5,475.3,230.7z"/>
		<path class="st2" d="M416.6,206.4c4.4,0,8.7,0.4,13,1l1.1-7.1c-4.6-0.7-9.3-1.1-14.1-1.1c-4.8,0-9.5,0.4-14.1,1.1l1.1,7.1
			C407.9,206.7,412.2,206.4,416.6,206.4z"/>
		<path class="st1" d="M454.3,215.4l3.3-6.5c-8.3-4.2-17.3-7.2-26.8-8.7l-1.1,7.1C438.4,208.8,446.7,211.5,454.3,215.4z"/>
		<path class="st1" d="M490.6,251.7l6.4-3.3c-4.3-8.5-9.9-16.2-16.6-22.8l-5.1,5.1C481.4,236.8,486.6,243.9,490.6,251.7z"/>
		<path class="st1" d="M499.6,289.3c0,4.4-0.4,8.8-1,13l7.1,1.1c0.7-4.6,1.1-9.3,1.1-14.1c0-4.8-0.4-9.5-1.1-14.1l-7.1,1.1
			C499.3,280.6,499.6,284.9,499.6,289.3z"/>
		<path class="st2" d="M490.6,327l6.4,3.3c4.2-8.3,7.2-17.3,8.7-26.8l-7.1-1.1C497.2,311.1,494.5,319.4,490.6,327z"/>
		<path class="st1" d="M342.7,327l-6.4,3.3c4.3,8.5,9.9,16.2,16.6,22.8l5.1-5.1C351.9,341.9,346.7,334.8,342.7,327z"/>
		<path class="st1" d="M475.3,348l5.1,5.1c6.7-6.7,12.3-14.4,16.6-22.8l-6.4-3.3C486.6,334.8,481.4,341.9,475.3,348z"/>
		<path class="st2" d="M490.6,251.7c3.9,7.6,6.7,15.9,8,24.7l7.1-1.1c-1.5-9.5-4.5-18.6-8.7-26.8L490.6,251.7z"/>
		<path class="st2" d="M416.6,372.3c-4.4,0-8.8-0.4-13-1l-1.1,7.1c4.6,0.7,9.3,1.1,14.1,1.1c4.8,0,9.5-0.4,14.1-1.1l-1.1-7.1
			C425.4,371.9,421.1,372.3,416.6,372.3z"/>
		<path class="st1" d="M379,363.2l-3.3,6.4c8.3,4.2,17.3,7.2,26.8,8.7l1.1-7.1C394.9,369.9,386.6,367.1,379,363.2z"/>
		<path class="st2" d="M358,348l-5.1,5.1c6.7,6.7,14.4,12.3,22.8,16.6l3.3-6.4C371.2,359.3,364.1,354.1,358,348z"/>
		<path class="st2" d="M454.3,363.2l3.3,6.4c8.5-4.3,16.2-9.9,22.8-16.6l-5.1-5.1C469.2,354.1,462.1,359.3,454.3,363.2z"/>
		<path class="st1" d="M429.6,371.3l1.1,7.1c9.5-1.5,18.6-4.5,26.8-8.7l-3.3-6.4C446.7,367.1,438.4,369.9,429.6,371.3z"/>
		<path d="M475.3,230.7c-6.1-6.1-13.2-11.3-21-15.3l-37.7,73.9L475.3,230.7z"/>
		<path class="st3" d="M475.3,230.7l-58.7,58.7c0,0,73.9-37.7,73.9-37.7C486.6,243.9,481.4,236.8,475.3,230.7z"/>
		<path class="st3" d="M379,363.2c7.6,3.9,15.9,6.7,24.7,8l13-81.9L379,363.2z"/>
		<path d="M416.6,289.3l-13,81.9c4.2,0.7,8.6,1,13,1c4.4,0,8.7-0.4,13-1L416.6,289.3z"/>
		<path class="st3" d="M416.6,289.3l13,81.9c8.8-1.4,17.1-4.1,24.7-8L416.6,289.3z"/>
		<path d="M416.6,289.3c0,0-58.7,58.7-58.7,58.7c6.1,6.1,13.2,11.3,21,15.3L416.6,289.3z"/>
		<path class="st3" d="M342.7,327c4,7.8,9.1,14.9,15.3,21l58.7-58.7L342.7,327z"/>
		<path d="M498.6,276.4c-1.4-8.8-4.1-17.1-8-24.7l-73.9,37.7L498.6,276.4z"/>
		<path class="st3" d="M416.6,289.3l81.9,13c0.7-4.2,1-8.6,1-13c0-4.4-0.4-8.7-1-13L416.6,289.3z"/>
		<path d="M416.6,289.3l-81.9,13c1.4,8.8,4.1,17.1,8,24.7C342.7,327,416.6,289.3,416.6,289.3z"/>
		<path d="M416.6,289.3l37.7,73.9c7.8-4,14.9-9.1,21-15.3L416.6,289.3z"/>
		<path d="M416.6,289.3l73.9,37.7c3.9-7.6,6.7-15.9,8-24.7L416.6,289.3z"/>
		<path class="st3" d="M416.6,289.3l58.7,58.7c6.1-6.1,11.3-13.2,15.3-21L416.6,289.3z"/>
		<path class="st3" d="M416.6,289.3l37.7-73.9c-7.6-3.9-15.9-6.7-24.7-8C429.6,207.4,416.6,289.3,416.6,289.3z"/>
		<path d="M416.6,289.3l13-81.9c-4.2-0.7-8.6-1-13-1c-4.4,0-8.8,0.4-13,1L416.6,289.3z"/>
		<path d="M416.6,289.3l-73.9-37.7c-3.9,7.6-6.7,15.9-8,24.7L416.6,289.3z"/>
		<path class="st3" d="M416.6,289.3L358,230.7c-6.1,6.1-11.3,13.2-15.3,21L416.6,289.3z"/>
		<path class="st3" d="M416.6,289.3l-81.9-13c-0.7,4.2-1,8.6-1,13c0,4.4,0.4,8.8,1,13L416.6,289.3z"/>
		<path class="st3" d="M416.6,289.3l-13-81.9c-8.8,1.4-17.1,4.1-24.7,8L416.6,289.3z"/>
		<path d="M416.6,289.3L379,215.4c-7.8,4-14.9,9.1-21,15.3L416.6,289.3z"/>
	</g>
	<g>
		<radialGradient id="SVGID_1_" cx="416.6455" cy="289.3325" r="83.925" gradientUnits="userSpaceOnUse">
			<stop  offset="0.9699" style="stop-color:#130C0E"/>
			<stop  offset="0.9715" style="stop-color:#221B1D"/>
			<stop  offset="0.9746" style="stop-color:#484344"/>
			<stop  offset="0.9789" style="stop-color:#878384"/>
			<stop  offset="0.9841" style="stop-color:#DCDBDB"/>
			<stop  offset="0.9861" style="stop-color:#FFFFFF"/>
			<stop  offset="0.9877" style="stop-color:#FBFBFB"/>
			<stop  offset="0.9895" style="stop-color:#EEEEEE"/>
			<stop  offset="0.9912" style="stop-color:#D8D8D8"/>
			<stop  offset="0.9931" style="stop-color:#BABABA"/>
			<stop  offset="0.9949" style="stop-color:#939393"/>
			<stop  offset="0.9968" style="stop-color:#646464"/>
			<stop  offset="0.9987" style="stop-color:#2C2C2C"/>
			<stop  offset="1" style="stop-color:#000000"/>
		</radialGradient>
		<path class="st4" d="M416.6,373.3c-46.3,0-83.9-37.6-83.9-83.9c0-46.3,37.6-83.9,83.9-83.9s83.9,37.6,83.9,83.9
			C500.6,335.6,462.9,373.3,416.6,373.3z M416.6,207.4c-45.2,0-81.9,36.8-81.9,81.9c0,45.2,36.8,81.9,81.9,81.9s81.9-36.8,81.9-81.9
			C498.6,244.2,461.8,207.4,416.6,207.4z"/>
	</g>
	<g>
		<radialGradient id="SVGID_2_" cx="416.6451" cy="289.3323" r="92.1403" gradientUnits="userSpaceOnUse">
			<stop  offset="0.9607" style="stop-color:#130C0E"/>
			<stop  offset="0.9669" style="stop-color:#150E10"/>
			<stop  offset="0.9705" style="stop-color:#1D1719"/>
			<stop  offset="0.9734" style="stop-color:#2B2527"/>
			<stop  offset="0.976" style="stop-color:#3F393B"/>
			<stop  offset="0.9784" style="stop-color:#585354"/>
			<stop  offset="0.9806" style="stop-color:#777374"/>
			<stop  offset="0.9827" style="stop-color:#9C999A"/>
			<stop  offset="0.9846" style="stop-color:#C7C5C5"/>
			<stop  offset="0.9865" style="stop-color:#F6F5F6"/>
			<stop  offset="0.9868" style="stop-color:#FFFFFF"/>
			<stop  offset="0.9881" style="stop-color:#FAFAFA"/>
			<stop  offset="0.9898" style="stop-color:#EBEBEB"/>
			<stop  offset="0.9915" style="stop-color:#D2D2D2"/>
			<stop  offset="0.9934" style="stop-color:#B0B0B0"/>
			<stop  offset="0.9954" style="stop-color:#848484"/>
			<stop  offset="0.9975" style="stop-color:#4E4E4E"/>
			<stop  offset="0.9995" style="stop-color:#0F0F0F"/>
			<stop  offset="1" style="stop-color:#000000"/>
		</radialGradient>
		<path class="st5" d="M416.6,381.5c-50.8,0-92.1-41.3-92.1-92.1c0-50.8,41.3-92.1,92.1-92.1c50.8,0,92.1,41.3,92.1,92.1
			C508.8,340.1,467.5,381.5,416.6,381.5z M416.6,199.2c-49.7,0-90.1,40.4-90.1,90.1c0,49.7,40.4,90.1,90.1,90.1
			c49.7,0,90.1-40.4,90.1-90.1C506.8,239.6,466.3,199.2,416.6,199.2z"/>
	</g>
	<g>
		<radialGradient id="SVGID_3_" cx="416.645" cy="289.3311" r="148.2923" gradientUnits="userSpaceOnUse">
			<stop  offset="0.9688" style="stop-color:#130C0E"/>
			<stop  offset="0.9708" style="stop-color:#221B1D"/>
			<stop  offset="0.9745" style="stop-color:#484344"/>
			<stop  offset="0.9796" style="stop-color:#878384"/>
			<stop  offset="0.9859" style="stop-color:#DCDBDB"/>
			<stop  offset="0.9884" style="stop-color:#FFFFFF"/>
			<stop  offset="0.9893" style="stop-color:#DEDEDE"/>
			<stop  offset="0.9909" style="stop-color:#A4A4A4"/>
			<stop  offset="0.9926" style="stop-color:#727272"/>
			<stop  offset="0.9942" style="stop-color:#494949"/>
			<stop  offset="0.9958" style="stop-color:#292929"/>
			<stop  offset="0.9973" style="stop-color:#121212"/>
			<stop  offset="0.9987" style="stop-color:#050505"/>
			<stop  offset="1" style="stop-color:#000000"/>
		</radialGradient>
		<path class="st6" d="M416.6,437.2c-81.5,0-147.9-66.3-147.9-147.9c0-81.5,66.3-147.9,147.9-147.9c81.5,0,147.9,66.3,147.9,147.9
			C564.5,370.9,498.2,437.2,416.6,437.2z M416.6,143.5c-80.4,0-145.9,65.4-145.9,145.9c0,80.4,65.4,145.9,145.9,145.9
			s145.9-65.4,145.9-145.9C562.5,208.9,497.1,143.5,416.6,143.5z"/>
	</g>
	<g>
		<radialGradient id="SVGID_4_" cx="416.6451" cy="289.0259" r="141.195" gradientUnits="userSpaceOnUse">
			<stop  offset="0.9688" style="stop-color:#130C0E"/>
			<stop  offset="0.9708" style="stop-color:#221B1D"/>
			<stop  offset="0.9745" style="stop-color:#484344"/>
			<stop  offset="0.9796" style="stop-color:#878384"/>
			<stop  offset="0.9859" style="stop-color:#DCDBDB"/>
			<stop  offset="0.9884" style="stop-color:#FFFFFF"/>
			<stop  offset="0.9893" style="stop-color:#DEDEDE"/>
			<stop  offset="0.9909" style="stop-color:#A4A4A4"/>
			<stop  offset="0.9926" style="stop-color:#727272"/>
			<stop  offset="0.9942" style="stop-color:#494949"/>
			<stop  offset="0.9958" style="stop-color:#292929"/>
			<stop  offset="0.9973" style="stop-color:#121212"/>
			<stop  offset="0.9987" style="stop-color:#050505"/>
			<stop  offset="1" style="stop-color:#000000"/>
		</radialGradient>
		<path class="st7" d="M416.6,429.8c-77.5,0-140.5-63-140.5-140.5c0-77.5,63-140.5,140.5-140.5s140.5,63,140.5,140.5
			C557.1,366.8,494.1,429.8,416.6,429.8z M416.6,150.8c-76.4,0-138.6,62.2-138.6,138.6c0,76.4,62.2,138.6,138.6,138.6
			s138.6-62.2,138.6-138.6C555.2,212.9,493.1,150.8,416.6,150.8z"/>
	</g>
	<g>
		
			<linearGradient id="SVGID_5_" gradientUnits="userSpaceOnUse" x1="401.0294" y1="217.0277" x2="403.026" y2="216.7157" gradientTransform="matrix(0.9511 0.309 -0.309 0.9511 113.0485 -115.3055)">
			<stop  offset="0" style="stop-color:#000000"/>
			<stop  offset="0.5" style="stop-color:#FFFFFF"/>
			<stop  offset="1" style="stop-color:#000000"/>
		</linearGradient>
		<polygon class="st8" points="415.7,289.2 439.1,140.9 441.1,141.2 417.6,289.5 		"/>
	</g>
	<g>
		
			<linearGradient id="SVGID_6_" gradientUnits="userSpaceOnUse" x1="409.683" y1="232.3447" x2="411.6872" y2="232.0315" gradientTransform="matrix(-0.9511 0.309 -0.309 -0.9511 913.0609 450.1565)">
			<stop  offset="0" style="stop-color:#000000"/>
			<stop  offset="0.5" style="stop-color:#FFFFFF"/>
			<stop  offset="1" style="stop-color:#000000"/>
		</linearGradient>
		<polygon class="st9" points="417.5,288.9 485.7,422.7 483.9,423.6 415.8,289.8 		"/>
	</g>
	<g>
		
			<linearGradient id="SVGID_7_" gradientUnits="userSpaceOnUse" x1="406.6787" y1="233.1194" x2="408.6758" y2="232.8074" gradientTransform="matrix(-0.809 0.5878 -0.5878 -0.809 936.463 291.2573)">
			<stop  offset="0" style="stop-color:#000000"/>
			<stop  offset="0.5" style="stop-color:#FFFFFF"/>
			<stop  offset="1" style="stop-color:#000000"/>
		</linearGradient>
		<polygon class="st10" points="417.4,288.6 523.5,394.8 522.1,396.2 415.9,290 		"/>
	</g>
	<g>
		
			<linearGradient id="SVGID_8_" gradientUnits="userSpaceOnUse" x1="404.243" y1="231.8738" x2="406.2455" y2="231.5609" gradientTransform="matrix(-0.5878 0.809 -0.809 -0.5878 909.1871 131.7854)">
			<stop  offset="0" style="stop-color:#000000"/>
			<stop  offset="0.5" style="stop-color:#FFFFFF"/>
			<stop  offset="1" style="stop-color:#000000"/>
		</linearGradient>
		<polygon class="st11" points="417.1,288.4 550.9,356.6 550,358.4 416.2,290.2 		"/>
	</g>
	<g>
		
			<linearGradient id="SVGID_9_" gradientUnits="userSpaceOnUse" x1="401.1124" y1="230.2553" x2="403.1081" y2="229.9435" gradientTransform="matrix(-0.309 0.9511 -0.9511 -0.309 833.8873 -10.2579)">
			<stop  offset="0" style="stop-color:#000000"/>
			<stop  offset="0.5" style="stop-color:#FFFFFF"/>
			<stop  offset="1" style="stop-color:#000000"/>
		</linearGradient>
		<polygon class="st12" points="416.8,288.3 565.1,311.8 564.8,313.8 416.5,290.3 		"/>
	</g>
	<g>
		
			<linearGradient id="SVGID_10_" gradientUnits="userSpaceOnUse" x1="399.9104" y1="227.9513" x2="401.9109" y2="227.6387" gradientTransform="matrix(0 1 -1 0 718.5869 -123.3089)">
			<stop  offset="0" style="stop-color:#000000"/>
			<stop  offset="0.5" style="stop-color:#FFFFFF"/>
			<stop  offset="1" style="stop-color:#000000"/>
		</linearGradient>
		<polygon class="st13" points="416.5,288.3 564.8,264.9 565.1,266.8 416.8,290.3 		"/>
	</g>
	<g>
		
			<linearGradient id="SVGID_11_" gradientUnits="userSpaceOnUse" x1="398.932" y1="224.6384" x2="400.9362" y2="224.3253" gradientTransform="matrix(0.309 0.9511 -0.9511 0.309 573.4641 -194.4791)">
			<stop  offset="0" style="stop-color:#000000"/>
			<stop  offset="0.5" style="stop-color:#FFFFFF"/>
			<stop  offset="1" style="stop-color:#000000"/>
		</linearGradient>
		<polygon class="st14" points="416.2,288.4 550,220.3 550.9,222.1 417.1,290.2 		"/>
	</g>
	<g>
		
			<linearGradient id="SVGID_12_" gradientUnits="userSpaceOnUse" x1="398.8351" y1="222.4668" x2="400.8326" y2="222.1547" gradientTransform="matrix(0.5878 0.809 -0.809 0.5878 414.5649 -217.8808)">
			<stop  offset="0" style="stop-color:#000000"/>
			<stop  offset="0.5" style="stop-color:#FFFFFF"/>
			<stop  offset="1" style="stop-color:#000000"/>
		</linearGradient>
		<polygon class="st15" points="415.9,288.6 522.1,182.5 523.5,183.9 417.4,290 		"/>
	</g>
	<g>
		
			<linearGradient id="SVGID_13_" gradientUnits="userSpaceOnUse" x1="400.0751" y1="219.3203" x2="402.0785" y2="219.0073" gradientTransform="matrix(0.809 0.5878 -0.5878 0.809 255.0931 -190.6063)">
			<stop  offset="0" style="stop-color:#000000"/>
			<stop  offset="0.5" style="stop-color:#FFFFFF"/>
			<stop  offset="1" style="stop-color:#000000"/>
		</linearGradient>
		<polygon class="st16" points="415.8,288.9 483.9,155.1 485.7,156 417.5,289.8 		"/>
	</g>
	<g>
		
			<linearGradient id="SVGID_14_" gradientUnits="userSpaceOnUse" x1="412.6292" y1="215.1482" x2="414.6317" y2="214.8353" gradientTransform="matrix(0.5878 -0.809 0.809 0.5878 -67.2952 463.4914)">
			<stop  offset="0" style="stop-color:#000000"/>
			<stop  offset="0.5" style="stop-color:#FFFFFF"/>
			<stop  offset="1" style="stop-color:#000000"/>
		</linearGradient>
		<polygon class="st17" points="416.2,290.2 282.4,222.1 283.3,220.3 417.1,288.4 		"/>
	</g>
	<g>
		
			<linearGradient id="SVGID_15_" gradientUnits="userSpaceOnUse" x1="414.2569" y1="216.9405" x2="416.2531" y2="216.6286" gradientTransform="matrix(0.309 -0.9511 0.9511 0.309 8.0053 605.5345)">
			<stop  offset="0" style="stop-color:#000000"/>
			<stop  offset="0.5" style="stop-color:#FFFFFF"/>
			<stop  offset="1" style="stop-color:#000000"/>
		</linearGradient>
		<polygon class="st18" points="416.5,290.3 268.2,266.8 268.5,264.9 416.8,288.3 		"/>
	</g>
	<g>
		
			<linearGradient id="SVGID_16_" gradientUnits="userSpaceOnUse" x1="416.5265" y1="219.3489" x2="418.5273" y2="219.0363" gradientTransform="matrix(0 -1 1 0 123.306 718.5859)">
			<stop  offset="0" style="stop-color:#000000"/>
			<stop  offset="0.5" style="stop-color:#FFFFFF"/>
			<stop  offset="1" style="stop-color:#000000"/>
		</linearGradient>
		<polygon class="st19" points="416.8,290.3 268.5,313.8 268.2,311.8 416.5,288.3 		"/>
	</g>
	<g>
		
			<linearGradient id="SVGID_17_" gradientUnits="userSpaceOnUse" x1="417.3901" y1="221.5914" x2="419.3952" y2="221.2781" gradientTransform="matrix(-0.309 -0.9511 0.9511 -0.309 268.4282 789.7543)">
			<stop  offset="0" style="stop-color:#000000"/>
			<stop  offset="0.5" style="stop-color:#FFFFFF"/>
			<stop  offset="1" style="stop-color:#000000"/>
		</linearGradient>
		<polygon class="st20" points="417.1,290.2 283.3,358.4 282.4,356.6 416.2,288.4 		"/>
	</g>
	<g>
		
			<linearGradient id="SVGID_18_" gradientUnits="userSpaceOnUse" x1="417.3306" y1="225.2736" x2="419.3285" y2="224.9614" gradientTransform="matrix(-0.5878 -0.809 0.809 -0.5878 427.3272 813.1544)">
			<stop  offset="0" style="stop-color:#000000"/>
			<stop  offset="0.5" style="stop-color:#FFFFFF"/>
			<stop  offset="1" style="stop-color:#000000"/>
		</linearGradient>
		<polygon class="st21" points="417.4,290 311.2,396.2 309.8,394.8 415.9,288.6 		"/>
	</g>
	<g>
		
			<linearGradient id="SVGID_19_" gradientUnits="userSpaceOnUse" x1="416.7986" y1="227.7041" x2="418.802" y2="227.3911" gradientTransform="matrix(-0.809 -0.5878 0.5878 -0.809 586.7981 785.8785)">
			<stop  offset="0" style="stop-color:#000000"/>
			<stop  offset="0.5" style="stop-color:#FFFFFF"/>
			<stop  offset="1" style="stop-color:#000000"/>
		</linearGradient>
		<polygon class="st22" points="417.5,289.8 349.4,423.6 347.6,422.7 415.8,288.9 		"/>
	</g>
	<g>
		
			<linearGradient id="SVGID_20_" gradientUnits="userSpaceOnUse" x1="414.34" y1="230.1704" x2="416.3362" y2="229.8585" gradientTransform="matrix(-0.9511 -0.309 0.309 -0.9511 728.8412 710.5787)">
			<stop  offset="0" style="stop-color:#000000"/>
			<stop  offset="0.5" style="stop-color:#FFFFFF"/>
			<stop  offset="1" style="stop-color:#000000"/>
		</linearGradient>
		<polygon class="st23" points="417.6,289.5 394.1,437.8 392.2,437.5 415.7,289.2 		"/>
	</g>
	<g>
		
			<linearGradient id="SVGID_21_" gradientUnits="userSpaceOnUse" x1="412.5173" y1="231.9577" x2="414.5178" y2="231.6451" gradientTransform="matrix(-1 0 0 -1 841.8916 595.2783)">
			<stop  offset="0" style="stop-color:#000000"/>
			<stop  offset="0.5" style="stop-color:#FFFFFF"/>
			<stop  offset="1" style="stop-color:#000000"/>
		</linearGradient>
		<polygon class="st24" points="417.6,289.2 441.1,437.5 439.1,437.8 415.7,289.5 		"/>
	</g>
	<g>
		<linearGradient id="SVGID_22_" gradientUnits="userSpaceOnUse" x1="403.916" y1="215.3395" x2="405.916" y2="215.027">
			<stop  offset="0" style="stop-color:#000000"/>
			<stop  offset="0.5" style="stop-color:#FFFFFF"/>
			<stop  offset="1" style="stop-color:#000000"/>
		</linearGradient>
		<polygon class="st25" points="415.7,289.5 392.2,141.2 394.1,140.9 417.6,289.2 		"/>
	</g>
	<g>
		
			<linearGradient id="SVGID_23_" gradientUnits="userSpaceOnUse" x1="406.6371" y1="213.8831" x2="408.641" y2="213.57" gradientTransform="matrix(0.9511 -0.309 0.309 0.9511 -71.1693 145.1218)">
			<stop  offset="0" style="stop-color:#000000"/>
			<stop  offset="0.5" style="stop-color:#FFFFFF"/>
			<stop  offset="1" style="stop-color:#000000"/>
		</linearGradient>
		<polygon class="st26" points="415.8,289.8 347.6,156 349.4,155.1 417.5,288.9 		"/>
	</g>
	<g>
		
			<linearGradient id="SVGID_24_" gradientUnits="userSpaceOnUse" x1="409.4868" y1="214.6193" x2="411.4843" y2="214.3072" gradientTransform="matrix(0.809 -0.5878 0.5878 0.809 -94.5702 304.0206)">
			<stop  offset="0" style="stop-color:#000000"/>
			<stop  offset="0.5" style="stop-color:#FFFFFF"/>
			<stop  offset="1" style="stop-color:#000000"/>
		</linearGradient>
		<polygon class="st27" points="415.9,290 309.8,183.9 311.2,182.5 417.4,288.6 		"/>
	</g>
	<circle class="st1" cx="416.6" cy="289.3" r="15.5"/>
	<g>
		<radialGradient id="SVGID_25_" cx="416.5752" cy="289.3328" r="16.4929" gradientUnits="userSpaceOnUse">
			<stop  offset="0" style="stop-color:#130C0E"/>
			<stop  offset="0.881" style="stop-color:#130C0E"/>
			<stop  offset="0.8879" style="stop-color:#211B1D"/>
			<stop  offset="0.9011" style="stop-color:#474143"/>
			<stop  offset="0.9193" style="stop-color:#838081"/>
			<stop  offset="0.9414" style="stop-color:#D6D5D5"/>
			<stop  offset="0.9518" style="stop-color:#FFFFFF"/>
			<stop  offset="0.9567" style="stop-color:#FAFAFA"/>
			<stop  offset="0.9626" style="stop-color:#EBEBEB"/>
			<stop  offset="0.9692" style="stop-color:#D2D2D2"/>
			<stop  offset="0.9761" style="stop-color:#B0B0B0"/>
			<stop  offset="0.9833" style="stop-color:#848484"/>
			<stop  offset="0.9907" style="stop-color:#4E4E4E"/>
			<stop  offset="0.9983" style="stop-color:#0F0F0F"/>
			<stop  offset="1" style="stop-color:#000000"/>
		</radialGradient>
		<path class="st28" d="M416.6,306c-9.2,0-16.7-7.5-16.7-16.7c0-9.2,7.5-16.7,16.7-16.7c9.2,0,16.7,7.5,16.7,16.7
			C433.3,298.5,425.8,306,416.6,306z M416.6,274.7c-8.1,0-14.7,6.6-14.7,14.7c0,8.1,6.6,14.7,14.7,14.7c8.1,0,14.7-6.6,14.7-14.7
			C431.3,281.3,424.7,274.7,416.6,274.7z"/>
	</g>
	<circle class="st2" cx="416.6" cy="289.3" r="7.8"/>
	<g>
		<radialGradient id="SVGID_26_" cx="416.6451" cy="289.3321" r="8.8277" gradientUnits="userSpaceOnUse">
			<stop  offset="0" style="stop-color:#130C0E"/>
			<stop  offset="0.7749" style="stop-color:#130C0E"/>
			<stop  offset="0.7868" style="stop-color:#211B1D"/>
			<stop  offset="0.8096" style="stop-color:#474143"/>
			<stop  offset="0.841" style="stop-color:#838081"/>
			<stop  offset="0.8793" style="stop-color:#D6D5D5"/>
			<stop  offset="0.8971" style="stop-color:#FFFFFF"/>
			<stop  offset="0.9076" style="stop-color:#FAFAFA"/>
			<stop  offset="0.9203" style="stop-color:#EBEBEB"/>
			<stop  offset="0.9342" style="stop-color:#D2D2D2"/>
			<stop  offset="0.9489" style="stop-color:#B0B0B0"/>
			<stop  offset="0.9643" style="stop-color:#848484"/>
			<stop  offset="0.9803" style="stop-color:#4E4E4E"/>
			<stop  offset="0.9964" style="stop-color:#0F0F0F"/>
			<stop  offset="1" style="stop-color:#000000"/>
		</radialGradient>
		<path class="st29" d="M416.6,298.2c-4.9,0-8.8-4-8.8-8.8c0-4.9,4-8.8,8.8-8.8c4.9,0,8.8,4,8.8,8.8
			C425.5,294.2,421.5,298.2,416.6,298.2z M416.6,282.5c-3.8,0-6.8,3.1-6.8,6.8c0,3.8,3.1,6.8,6.8,6.8c3.8,0,6.8-3.1,6.8-6.8
			C423.5,285.6,420.4,282.5,416.6,282.5z"/>
	</g>
</g>
</svg>
