<?xml version="1.0" ?><!DOCTYPE svg  PUBLIC '-//W3C//DTD SVG 1.1//EN'  'http://www.w3.org/Graphics/SVG/1.1/DTD/svg11.dtd'><svg enable-background="new 0 0 100 100" height="100px" id="Layer_1" version="1.1" viewBox="0 0 100 100" width="100px" xml:space="preserve" xmlns="http://www.w3.org/2000/svg" xmlns:xlink="http://www.w3.org/1999/xlink"><g><radialGradient cx="3739.165" cy="34.8214" fx="3740.2532" fy="21.2332" gradientTransform="matrix(-1 0 0 1 3770.8613 0)" gradientUnits="userSpaceOnUse" id="SVGID_1_" r="74.8937"><stop offset="0.0824" style="stop-color:#FFFFFF"/><stop offset="0.4955" style="stop-color:#E4E3E3"/><stop offset="1" style="stop-color:#BDBBBB"/></radialGradient><circle cx="50" cy="50" fill="url(#SVGID_1_)" r="50"/><g><polygon fill="#9E9E9F" points="59.922,53.835 36.261,45.798 36.118,46.221 59.778,54.257 59.922,53.835   "/><path d="M65.38,72.266v0.001l-0.347-0.283c-0.004,0.006-2.168,2.669-5.507,5.953l0,0    c-3.339,3.284-7.848,6.62-12.503,9.058v0.557l0.209-0.051C56.948,82.915,65.368,72.277,65.38,72.266L65.38,72.266z" fill="#717071"/><path d="M29.466,81.842c-3.334-6.225-5.059-12.288-5.947-16.791l0,0c-0.89-4.503-0.946-7.43-0.946-7.438l0,0    l-0.446,0.008c0.002,0.02,0.224,11.88,6.947,24.432l0,0L29.466,81.842L29.466,81.842z" fill="#9E9E9F"/><path d="M74.894,39.791c-0.004-10.394-5.465-21.098-5.469-21.114l0,0l0,0l-0.399,0.203    c0.002,0.007,1.354,2.659,2.71,6.608l0,0c1.358,3.949,2.713,9.183,2.711,14.303l0,0c0,0.732-0.027,1.46-0.086,2.183l0,0    l0.445,0.037C74.865,41.274,74.894,40.533,74.894,39.791L74.894,39.791z" fill="#231815"/><path d="M43.128,17.172c3.818-2.766,6.965-4.425,7.003-4.446l0,0l-0.207-0.395    c-0.013,0.012-12.754,6.7-18.168,15.708l0,0l0.383,0.229C34.789,23.848,39.29,19.952,43.128,17.172L43.128,17.172z" fill="#888888"/><path d="M85.37,82.493c-0.002-6.915-3.559-12.477-3.569-12.496l0,0l0,0l-0.375,0.24    c0,0.003,0.871,1.364,1.747,3.585l0,0c0.877,2.22,1.751,5.289,1.751,8.67l0,0c0,0.547-0.022,1.103-0.074,1.666l0,0l0.445,0.04    C85.348,83.622,85.37,83.052,85.37,82.493L85.37,82.493z" fill="#231815"/><path d="M7.916,49.818c1.822-1.325,3.126-1.812,3.128-1.813l0,0h-0.001l-0.156-0.419    c-0.026,0.01-5.432,2.044-9.489,8.8l0,0l0.385,0.23C3.774,53.297,6.095,51.143,7.916,49.818L7.916,49.818z" fill="#B4B4B5"/><path d="M15.982,29.902c0.001-0.01-1.622-4.683-1.622-11.137l0,0c0-0.717,0.022-1.457,0.066-2.212l0,0    l-0.224-0.013c-0.043,0.759-0.063,1.503-0.063,2.225l0,0c0,6.491,1.631,11.202,1.634,11.21l0,0L15.982,29.902L15.982,29.902z" fill="#9E9E9F"/><path d="M97.988,42.997l-0.385-0.224c-0.734,1.271-3.171,3.389-5.404,5.145l0,0    c-2.235,1.763-4.273,3.19-4.278,3.192l0,0l0.256,0.365C88.19,51.457,96.35,45.777,97.988,42.997L97.988,42.997z" fill="#231815"/><path d="M95.437,29.212C87.605,15.788,77.088,12.315,77.072,12.31l0,0v0.001l-0.071,0.212    c0.007,0.006,2.607,0.858,6.194,3.388l0,0c3.589,2.532,8.151,6.733,12.049,13.414l0,0L95.437,29.212L95.437,29.212z" fill="#231815"/><path d="M47.571,3.674c0,0-12.127-0.893-23.213,3.572c0,0,12.575-5.581,23.213-4.167V3.674z" fill="#FFFFFF"/><path d="M21.828,86.784c0,0-4.166-0.261-8.779-4.092c0,0,2.772,3.162,8.966,4.985L21.828,86.784z" fill="#9E9E9F"/><path d="M49.506,95.229c0,0,4.763,1.896,13.358,2.344c0,0-8.26,0.334-13.617-1.563L49.506,95.229z" fill="#9E9E9F"/></g><g><radialGradient cx="3694.2705" cy="-14.0342" gradientTransform="matrix(-1 0 0 1 3770.8613 0)" gradientUnits="userSpaceOnUse" id="SVGID_2_" r="41.3666"><stop offset="0" style="stop-color:#72706D"/><stop offset="0.1493" style="stop-color:#5C5855"/><stop offset="0.3601" style="stop-color:#433C39"/><stop offset="0.5725" style="stop-color:#312825"/><stop offset="0.7855" style="stop-color:#271C19"/><stop offset="1" style="stop-color:#231815"/></radialGradient><path d="M78.822,12.9C73.509,5.863,62.951,1.697,62.951,1.697C53.33,0.463,46.531,2.93,46.531,2.93    l2.678,10.268c8.63,0.893,20.684,6.548,20.684,6.548L78.822,12.9z" fill="url(#SVGID_2_)"/><path d="M74.804,39.537c0,0-12.202,11.905-15.922,13.989c0,0,4.613,14.732,5.208,19.493    c0,0,10.863,1.786,18.603-1.487c0,0,5.654-8.63,6.398-20.982C89.09,50.549,80.757,41.917,74.804,39.537z" fill="#231815"/><radialGradient cx="3724.6282" cy="56.5007" gradientTransform="matrix(-1 0 0 1 3770.8613 0)" gradientUnits="userSpaceOnUse" id="SVGID_3_" r="59.6883"><stop offset="0" style="stop-color:#231815"/><stop offset="0.4299" style="stop-color:#251A17"/><stop offset="0.6025" style="stop-color:#2B211E"/><stop offset="0.7289" style="stop-color:#362D2A"/><stop offset="0.8327" style="stop-color:#463F3C"/><stop offset="0.9217" style="stop-color:#5A5552"/><stop offset="1" style="stop-color:#72706D"/></radialGradient><path d="M48.465,86.412c0,0-13.095-1.191-20.387-6.994c0,0-3.572,4.762-7.44,7.441    c0,0,7.65,9.086,13.805,10.67c0,0,7.921,1.83,17.295-1.295C51.739,96.234,49.506,92.366,48.465,86.412z" fill="url(#SVGID_3_)"/><path d="M33.138,26.74c0,0,2.975,13.987,4.76,19.641c0,0-10.564,8.781-15.327,13.542    c0,0-11.309-6.845-12.798-11.458c0,0-0.446-10.864,5.655-20.239C15.43,28.227,22.87,23.913,33.138,26.74z" fill="#231815"/><radialGradient cx="3739.6538" cy="34.1897" gradientTransform="matrix(-1 0 0 1 3770.8613 0)" gradientUnits="userSpaceOnUse" id="SVGID_4_" r="21.2058"><stop offset="0" style="stop-color:#72706D"/><stop offset="0.1017" style="stop-color:#64605D"/><stop offset="0.3447" style="stop-color:#48413E"/><stop offset="0.5803" style="stop-color:#332A27"/><stop offset="0.8032" style="stop-color:#271D1A"/><stop offset="1" style="stop-color:#231815"/></radialGradient><path d="M32.338,27.546c0,0,2.828,13.288,4.525,18.66c0,0-10.038,8.34-14.561,12.865    c0,0-10.744-6.503-12.159-10.886c0,0-0.424-10.32,5.372-19.227C15.515,28.958,22.584,24.86,32.338,27.546z" fill="url(#SVGID_4_)"/><path d="M94.436,27.06C97.99,33.931,100,41.73,100,50c0,0.084-0.002,0.167-0.003,0.25    c-0.671-2.202-1.763-5.26-3.019-6.695C96.978,43.555,96.975,33.635,94.436,27.06z" fill="#231815"/><path d="M84.924,82.096c0,0,3.062-1.192,6.072-3.469c-5.883,8.408-14.284,14.922-24.112,18.446    C71.982,94.604,80.821,89.483,84.924,82.096z" fill="#231815"/><path d="M3.673,68.833c-2.247-5.523-3.537-11.537-3.66-17.838c0.463,1.818,1.152,3.589,2.173,4.762    C2.185,55.757,2.302,61.958,3.673,68.833z" fill="#231815"/><path d="M14.239,17.662c-3.4,1.309-6.749,6.141-8.939,9.919c4.551-9.057,11.771-16.54,20.632-21.415    C19.855,10.499,14.239,17.662,14.239,17.662z" fill="#231815"/></g><g><path d="M56.321,53.555L39.866,47.99c-1.167-0.395-2.87-0.06-3.801,0.748l-11.211,9.723    c-0.931,0.808-0.889,0.86,0.093,0.114l11.173-8.465c0.983-0.744,2.744-1.089,3.936-0.769l16.224,4.349    C57.47,54.01,57.488,53.949,56.321,53.555z" fill="#FFFFFF"/><path d="M75.363,39.202c0,0-1.004-13.168-5.245-19.419l8.482-6.25l-7.366,6.362    C71.233,19.894,75.251,27.93,75.363,39.202z" fill="#FFFFFF"/><path d="M78.933,12.677c0,0-3.756-5.84-13.132-9.933C65.801,2.744,74.283,5.161,78.933,12.677z" fill="#F1EFF2"/><path d="M64.76,73.541c0,0-7.589,9.485-15.847,13.504c0,0,0.297,3.385,2.826,8.594c0,0-1.897-5.172-2.119-8.297    C49.62,87.341,57.841,83.585,64.76,73.541z" fill="#F1EFF2"/><path d="M28.377,79.269c0,0-4.018-8.314-5.246-19.084c0,0,2.679,12.221,5.134,17.356    c0.319,0.667,1.21,1.68,1.842,2.064c2.404,1.462,8.7,4.769,18.024,6.362C48.131,85.966,37.807,85.742,28.377,79.269z" fill="#F1EFF2"/><path d="M22.015,59.849c0,0-10.045-5.803-12.277-10.826C9.738,49.023,11.636,55.273,22.015,59.849z" fill="#FFFFFF"/></g></g></svg>