<?xml version="1.0" ?><!DOCTYPE svg  PUBLIC '-//W3C//DTD SVG 1.1//EN'  'http://www.w3.org/Graphics/SVG/1.1/DTD/svg11.dtd'><svg enable-background="new 0 0 100 100" height="100px" id="Layer_1" version="1.1" viewBox="0 0 100 100" width="100px" xml:space="preserve" xmlns="http://www.w3.org/2000/svg" xmlns:xlink="http://www.w3.org/1999/xlink"><g><g><radialGradient cx="-378.9036" cy="-1610.7806" gradientTransform="matrix(0.404 0.2886 0.2886 -0.4039 656.63 -472.287)" gradientUnits="userSpaceOnUse" id="SVGID_1_" r="161.0147"><stop offset="0" style="stop-color:#C8D300"/><stop offset="0.2865" style="stop-color:#C4D100"/><stop offset="0.4379" style="stop-color:#B7CC09"/><stop offset="0.691" style="stop-color:#98C11D"/><stop offset="0.7721" style="stop-color:#87B622"/><stop offset="0.9324" style="stop-color:#5B9B2E"/><stop offset="1" style="stop-color:#468E34"/></radialGradient><path clip-rule="evenodd" d="M20.952,90.667c7.138,5.098,15.195,8.067,23.364,8.985    c0.419-0.304,1.369-0.63,2.008-0.519c0.705,0.102,1.349,0.446,1.708,0.788c16.254,0.63,32.496-6.652,42.668-20.889    c16.033-22.439,10.811-53.677-11.63-69.707C56.591-6.732,25.362-1.53,9.331,20.908C-0.65,34.878-2.426,52.207,3.057,67.19    c0.108,0.251,0.184,0.505,0.293,0.756c0.126,0.349,0.858,0.21,1.352,1.368c0.628,1.454-0.068,1.703,0.188,2.232    C8.416,78.923,13.815,85.569,20.952,90.667z" fill="url(#SVGID_1_)" fill-rule="evenodd"/><linearGradient gradientTransform="matrix(0.8137 0.5813 0.5813 -0.8137 1271.8778 -1002.1252)" gradientUnits="userSpaceOnUse" id="SVGID_2_" x1="-376.6607" x2="-391.1743" y1="-1512.4781" y2="-1615.7472"><stop offset="0" style="stop-color:#DEDDDD"/><stop offset="0.46" style="stop-color:#F9F9FA"/><stop offset="1" style="stop-color:#FCFCFC"/></linearGradient><path clip-rule="evenodd" d="M48.036,99.837c0,0-1.474-1.396-3.659-0.312    c8.177-17.76,39.077-30.871,45.327-50.725c4.421-14.033-2.925-28.134-13.055-36.087C65.823,5.696,50.1,3.319,38.256,12.05    C21.498,24.398,19.103,57.927,4.964,71.398c0.319-2.417-1.441-3.414-1.468-3.377C17.644,50.675,17.98,23.809,36.654,10.388    c11.637-8.361,29.195-7.546,41.051,0.808l0,0l0.019,0.014l0.019,0.014l0,0C89.47,19.715,95.947,36.04,91.796,49.777    C85.133,71.777,59.856,80.799,48.036,99.837z" fill="url(#SVGID_2_)" fill-rule="evenodd"/><g><linearGradient gradientTransform="matrix(0.8137 0.5813 0.5813 -0.8137 1271.8778 -1002.1252)" gradientUnits="userSpaceOnUse" id="SVGID_3_" x1="-382.639" x2="-382.639" y1="-1518.4978" y2="-1610.147"><stop offset="0" style="stop-color:#CAC8C8"/><stop offset="0.85" style="stop-color:#F1F0F1"/><stop offset="1" style="stop-color:#FFFFFF"/></linearGradient><path d="M47.988,99.544c5.049-8.034,12.51-14.29,19.922-20.522c10.002-8.405,19.918-16.73,23.705-29.315     c2.939-9.745,0.487-20.84-5.395-29.467c-1.152-1.687-2.458-3.279-3.858-4.74c-1.401-1.46-2.896-2.786-4.505-3.994l-0.02-0.014     l0,0l-0.17-0.122l-0.018-0.014l-0.019-0.013l0,0l-0.02-0.014l0,0c-8.435-5.939-19.785-8.04-29.779-5.72     c-1.955,0.443-3.877,1.082-5.675,1.866c-1.829,0.793-3.563,1.77-5.184,2.911l-0.014,0.019l-0.198,0.118l0,0     C26.1,18.199,21.438,30.276,16.727,42.462C13.254,51.508,9.735,60.578,3.77,67.96c0.019,0.014,0.058,0.04,0.076,0.054     c0.133,0.095,0.311,0.25,0.499,0.47c0.432,0.481,0.867,1.281,0.829,2.461c6.349-6.272,10.307-16.64,14.316-27.201     c4.766-12.461,9.624-25.176,18.641-31.841l0,0l0,0l0,0l0,0c8.591-6.31,19.163-6.864,28.472-4.039     c1.819,0.553,3.589,1.213,5.297,2.002c1.674,0.794,3.301,1.696,4.821,2.668l0.038,0.028l0,0l0,0     c7.332,5.754,13.196,14.684,14.247,24.52c0.218,1.91,0.258,3.863,0.066,5.823c-0.194,1.959-0.57,3.935-1.179,5.914l0,0l0,0     l-0.028,0.038l0,0c-3.35,10.684-13.804,19.402-24.05,27.947c-8.673,7.23-17.199,14.334-21.061,22.356     C46.384,98.57,47.568,99.245,47.988,99.544L47.988,99.544z M44.472,99.676c-0.093,0.048-0.215,0.019-0.246-0.061     c-0.03-0.077-0.021-0.13,0.006-0.168l0,0l0,0c3.785-8.276,12.504-15.53,21.35-22.921c10.201-8.523,20.614-17.184,23.949-27.765     l0,0l0.009-0.052l0,0c0.615-1.946,0.996-3.888,1.175-5.828c0.18-1.942,0.144-3.863-0.054-5.761     c-1.05-9.716-6.871-18.59-14.106-24.274l-0.034,0.006c-1.506-0.989-3.112-1.88-4.801-2.655c-1.655-0.78-3.426-1.442-5.213-1.999     C57.308,5.422,46.834,5.96,38.349,12.2l0,0l0,0l0,0l-0.015,0.021c-8.93,6.584-13.747,19.24-18.505,31.651     C15.724,54.651,11.687,65.25,5.09,71.545c-0.074,0.063-0.192,0.066-0.272-0.021c-0.025-0.047-0.049-0.093-0.042-0.144l0,0     c0.185-1.305-0.279-2.185-0.711-2.666c-0.15-0.193-0.321-0.315-0.422-0.416c-0.076-0.054-0.148-0.076-0.166-0.09     c-0.037-0.027-0.071-0.021-0.09-0.035c-0.076-0.055-0.098-0.185-0.043-0.261l0.014-0.019c6.015-7.373,9.542-16.495,13.03-25.56     c4.737-12.225,9.407-24.354,20.174-32.099l0,0l0,0l0.178-0.13l0,0l0.014-0.019l0,0c1.634-1.161,3.4-2.143,5.23-2.935     c1.844-0.81,3.785-1.434,5.754-1.896c10.105-2.354,21.545-0.219,30.056,5.774l0.019,0.014l0,0l0.019,0.014l0.02,0.014     l0.018,0.012l0.171,0.122l0,0c1.643,1.203,3.176,2.557,4.582,4.051c1.42,1.472,2.712,3.086,3.883,4.785     c5.963,8.713,8.451,19.919,5.464,29.773c-3.838,12.695-13.799,21.043-23.828,29.488c-7.447,6.237-14.934,12.531-19.96,20.611     c-0.036,0.09-0.166,0.112-0.242,0.057c-0.019-0.013-0.019-0.013-0.038-0.027C47.788,99.862,46.47,98.69,44.472,99.676     L44.472,99.676z M3.358,67.894L3.358,67.894L3.358,67.894L3.358,67.894z M77.837,11.492L77.837,11.492L77.837,11.492     L77.837,11.492z" fill="url(#SVGID_3_)"/></g></g></g></svg>